<svg data-name="Layer 1" xmlns="http://www.w3.org/2000/svg" viewBox="0 0 36 36"><defs><style>.cls-1{fill:#dd1e34;}.cls-2{fill:#c32033;}.cls-3{fill:#fff;}</style></defs><title>Angular</title><polygon class="cls-1" points="18 0 18 0 18 0 1.24 5.98 3.8 28.13 18 36 18 36 18 36 32.2 28.13 34.76 5.98 18 0"/><polygon class="cls-2" points="18 0 18 4 18 3.98 18 22.21 18 22.21 18 36 18 36 32.2 28.13 34.76 5.98 18 0"/><path class="cls-3" d="M18,4,7.52,27.47h3.91l2.11-5.26h8.89l2.1,5.26h3.91L18,4Zm3.06,15H14.94L18,11.61Z"/></svg>