<svg width="36" height="36" viewBox="0 0 36 36" fill="none" xmlns="http://www.w3.org/2000/svg">
<rect width="36" height="36" fill="#512BD4"/>
<path
     fill="white"
     d="m 6.4163526,22.99997 c -0.2545421,0 -0.4709052,-0.0848 -0.6490894,-0.25444 -0.1781843,-0.174 -0.2672764,-0.38061 -0.2672764,-0.61982 0,-0.24363 0.089092,-0.45237 0.2672764,-0.62637 0.1781842,-0.174 0.3945473,-0.261 0.6490894,-0.261 0.2587895,0 0.4772763,0.087 0.6554606,0.261 0.1824236,0.174 0.2736394,0.38274 0.2736394,0.62637 0,0.23921 -0.091216,0.44582 -0.2736394,0.61982 -0.1781843,0.16965 -0.3966711,0.25444 -0.6554606,0.25444 z" />
  <path
     fill="white"
     d="m 16.592132,22.85645 h -1.654579 l -4.359079,-6.87703 c -0.11029,-0.174 -0.201553,-0.35455 -0.273632,-0.54158 h -0.03821 c 0.03395,0.20013 0.05092,0.62858 0.05092,1.28534 v 6.13327 H 8.8538684 V 13.5 h 1.7627366 l 4.21279,6.71392 c 0.178184,0.27845 0.292737,0.46982 0.343658,0.57419 h 0.02542 c -0.04239,-0.2479 -0.06363,-0.66766 -0.06363,-1.25929 V 13.5 h 1.45729 z" />
  <path
     fill="white"
     d="M 23.719658,22.85645 H 18.596921 V 13.5 h 4.919132 v 1.31803 h -3.404527 v 2.649 h 3.13729 v 1.31147 h -3.13729 v 2.76647 h 3.608132 z" />
  <path
     fill="white"
     d="m 31.000026,14.81803 h -2.621842 v 8.03842 H 26.863579 V 14.81803 H 24.248132 V 13.5 h 6.751894 z" />
</svg>
