<svg data-name="Layer 1" xmlns="http://www.w3.org/2000/svg" viewBox="0 0 36 36" width="20" height="20" alt="Azure functions logo" role="img" aria-hidden="true"><defs><style>.azurefunctions-cls-1{fill:#3999c7;}.azurefunctions-cls-2{fill:#fbd118;}.azurefunctions-cls-3{fill:#f78c1e;opacity:0.3;isolation:isolate;}</style></defs><title>Azure Functions</title><path class="azurefunctions-cls-1" d="M35.77,18.22a1,1,0,0,0,0-1.29L34,15.19,26.27,7.65a.9.9,0,0,0-1.24,0h0A.86.86,0,0,0,25,9l8.15,8a.94.94,0,0,1,0,1.29l-8.32,8.27a.94.94,0,0,0,0,1.29h0a.94.94,0,0,0,1.24,0l7.7-7.64.06-.06Z"/><path class="azurefunctions-cls-1" d="M.23,18.22a1,1,0,0,1,0-1.29L2,15.19,9.73,7.65a.9.9,0,0,1,1.24,0h0A.86.86,0,0,1,11,9l-8,8a.94.94,0,0,0,0,1.29l8.15,8.27a.94.94,0,0,1,0,1.29h0a.94.94,0,0,1-1.24,0L2,20.25l0-.06Z"/><polygon class="azurefunctions-cls-2" points="26.77 1.41 15.81 1.41 9.9 18.06 17.1 18.11 11.48 34.59 27 12.6 19.46 12.6 26.77 1.41"/><polygon class="azurefunctions-cls-3" points="19.46 12.6 26.77 1.41 21.04 1.41 14.96 15.24 22.16 15.3 11.48 34.59 27 12.6 19.46 12.6"/></svg>
