<svg xmlns="http://www.w3.org/2000/svg" width="200.9119" height="190.5" viewBox="0 0 408.9119 292.5" alt="Cloud Service Logo" role="img" aria-hidden="true"><defs><style>.cls-1{fill:#525252;}.cls-2{fill:#a0a0a0;}.cls-3{fill:#b2b2b2;}.cls-4{fill:#e6e6e6;}.cls-5{fill:#ed8422;}.cls-6{fill:#df6c47;}.cls-7{fill:#459bdd;}.cls-8{fill:#0078d7;}.cls-9{fill:#fff;}.cls-10{fill:#09538f;}.cls-11{fill:#b1b1b1;}.cls-12{fill:#e5e5e5;}.cls-13{fill:#d1d1d1;}.cls-14{fill:#909090;}.cls-15{fill:#021760;}.cls-16{fill:#dc3c00;}.cls-17{fill:#70c9ee;}.cls-18{fill:#f3f3f3;}.cls-19{fill:#00bcf2;}.cls-20{fill:#0075d6;}.cls-21{fill:#274e85;}.cls-22{fill:#161616;}</style></defs><title>cloudServices</title><g id="Layer_2" data-name="Layer 2"><g id="Layer_3" data-name="Layer 3"><rect class="cls-1" y="289.4245" width="86.2595" height="3.0755" rx="1.5378"/><path class="cls-2" d="M226.5925,73.2363v-60.33A12.9066,12.9066,0,0,0,213.6859,0H142.9611a12.9066,12.9066,0,0,0-12.9066,12.9066v60.33a12.9066,12.9066,0,0,0,12.9066,12.9066H240.043Z"/><rect class="cls-3" x="254.6802" y="54.0718" width="73.0549" height="214.9451"/><rect class="cls-4" x="282.9" y="54.2834" width="44.8352" height="13.1813"/><rect class="cls-4" x="282.9" y="71.8734" width="44.8352" height="11.3929"/><rect class="cls-4" x="282.9" y="88.6749" width="44.8352" height="11.3929"/><rect class="cls-4" x="282.9" y="105.4764" width="44.8352" height="11.3929"/><rect class="cls-4" x="282.9" y="134.4345" width="44.8352" height="11.3929"/><circle class="cls-5" cx="311.3835" cy="60.874" r="2.1745"/><circle class="cls-5" cx="319.1637" cy="60.874" r="2.1745"/><circle class="cls-5" cx="311.3835" cy="77.5698" r="2.1745"/><circle class="cls-5" cx="319.1637" cy="77.5698" r="2.1745"/><circle class="cls-5" cx="311.3835" cy="94.3713" r="2.1745"/><circle class="cls-5" cx="319.1637" cy="94.3713" r="2.1745"/><circle class="cls-5" cx="311.3835" cy="111.1728" r="2.1745"/><circle class="cls-5" cx="319.1637" cy="111.1728" r="2.1745"/><rect class="cls-6" x="195.7957" y="19.1484" width="10.4835" height="49.8462"/><rect class="cls-7" x="179.807" y="36.4945" width="10.4835" height="32.5"/><path class="cls-8" d="M239.2848,161.5444V115.985a4.8122,4.8122,0,0,0-4.8121-4.8122H222.8662a4.8121,4.8121,0,0,0-4.8121,4.8122v45.5594l-28.3517,26.7692v80.7033h73.3187V188.3136Z"/><rect class="cls-8" x="164.2466" y="60.2967" width="10.4835" height="8.6978"/><rect class="cls-9" x="147.8949" y="54.4945" width="10.4835" height="14.5"/><path class="cls-10" d="M230.9439,161.5444V115.985a4.8122,4.8122,0,0,0-4.8121-4.8122H214.5253a4.8121,4.8121,0,0,0-4.8121,4.8122v45.5594l-28.3517,26.7692v80.7033H254.68V188.3136Z"/><path class="cls-8" d="M385.1757,161.5444V115.985a4.8122,4.8122,0,0,0-4.8122-4.8122H368.7571a4.8122,4.8122,0,0,0-4.8122,4.8122v45.5594l-28.3516,26.7692v80.7033h73.3186V188.3136Z"/><path class="cls-10" d="M376.8348,161.5444V115.985a4.8122,4.8122,0,0,0-4.8122-4.8122H360.4162a4.8122,4.8122,0,0,0-4.8122,4.8122v45.5594l-28.3516,26.7692v80.7033H400.571V188.3136Z"/><rect class="cls-8" x="261.2736" y="188.3136" width="141.8901" height="80.7033"/><circle class="cls-8" cx="220.5596" cy="125.6762" r="5.8022"/><path class="cls-8" d="M366.45,119.874H237.5373v11.6044H366.45a5.8022,5.8022,0,0,0,0-11.6044Z"/><path class="cls-9" d="M374.7825,188.3136a19.7348,19.7348,0,0,0-24.0611-29.1026,31.0053,31.0053,0,0,0-61.5971-4.4822,22.6648,22.6648,0,0,0-36.0094,22.4128l9.9062,11.172Z"/><rect class="cls-11" x="228.6594" y="234.6934" width="12.7049" height="14.6092"/><rect class="cls-12" x="241.3643" y="234.6934" width="3.3886" height="14.6092"/><path class="cls-13" d="M244.3921,163.722a10.9139,10.9139,0,0,0-10.4811,11.0337v25.36h-.1319l-7.0865,7.1989a4.25,4.25,0,0,0-1.2212,2.9815v24.3972h22.1539V210.0643a4.25,4.25,0,0,0-.9515-2.68l-5.9057-7.2685h-.1318V173.7579a3.956,3.956,0,0,1,3.956-3.956h0c2.1849,0,2.8074.953,2.8074.953l7.8739,8.8212v-5.1746A10.6814,10.6814,0,0,0,244.3921,163.722Z"/><path class="cls-12" d="M240.7681,200.1158l.5962,9.9052v24.6724h6.33v-24.57a4.3828,4.3828,0,0,0-.9949-2.7805Z"/><rect class="cls-14" x="236.0699" y="239.6762" width="2.3218" height="2.3218"/><rect class="cls-14" x="231.4545" y="239.6762" width="2.3218" height="2.3218"/><path class="cls-15" d="M175.6728,284.3324H79.64l-10.7546,5.7845a4.401,4.401,0,0,0,4.03,2.3831H178.2781a6.2019,6.2019,0,0,0,5.9441-5.2088l9.0457-64.0754-9.7039,5.2194Z"/><path class="cls-10" d="M97.4668,145.2115h71.2421l17.1967-8.1676H94.8616a6.202,6.202,0,0,0-5.9441,5.2088l-6.1823,43.7921,9.6115-4.565Z"/><polygon class="cls-5" points="92.347 181.48 101.145 177.301 104.446 153.923 150.367 153.923 168.709 145.212 97.467 145.212 92.347 181.48"/><polygon class="cls-16" points="168.803 274.846 97.277 274.846 79.64 284.332 175.673 284.332 183.564 228.435 174.681 233.213 168.803 274.846"/><polygon class="cls-17" points="104.446 153.923 101.145 177.301 150.367 153.923 104.446 153.923"/><polygon class="cls-18" points="174.681 233.213 97.277 274.846 168.803 274.846 174.681 233.213"/><path class="cls-15" d="M77.8267,284.3324,92.3467,181.48l-9.6115,4.565L68.442,287.2912a4.7309,4.7309,0,0,0,.4437,2.8257L79.64,284.3324Zm3.4245-69.56a2.12,2.12,0,0,1,2.0315-1.78,1.51,1.51,0,0,1,1.5289,1.78,2.12,2.12,0,0,1-2.0315,1.78A1.51,1.51,0,0,1,81.2512,214.772Z"/><path class="cls-15" d="M200.2242,137.0439H185.9056l-17.1967,8.1676H195.313l-11.749,83.2237,9.7039-5.2194,11.43-80.9631A4.4187,4.4187,0,0,0,200.2242,137.0439Z"/><polygon class="cls-6" points="185.874 153.923 181.63 183.989 100.201 183.989 101.145 177.301 92.347 181.48 77.827 284.332 79.64 284.332 97.277 274.846 87.375 274.846 99.531 188.736 180.96 188.736 174.681 233.213 183.564 228.435 195.313 145.212 168.709 145.212 150.367 153.923 185.874 153.923"/><path class="cls-19" d="M181.63,183.989l4.2444-30.0659H150.3669l-49.2216,23.3778-.9441,6.6881Zm-28.5873-26.2514h4.7188l-3.1674,22.4368h-4.7189Zm-8.2991,7.8079h4.7188l-2.0652,14.6289h-4.7189Zm-8.5166,10.7139h4.7189l-.5528,3.915h-4.7188Zm-2.2727-2.6117-.9214,6.5267h-4.7188l.9214-6.5267Z"/><path class="cls-9" d="M180.96,188.7363H99.5309l-12.1563,86.11H97.277l77.4038-41.6329Zm-40.2072,38.5055H99.8644l.67-4.7473h40.8882Zm30.2678-8.9671H101.13l.67-4.7472h69.89Zm1.2659-8.967h-69.89l.67-4.7473h69.89Zm-68.6242-8.9671.67-4.7472h69.89l-.67,4.7472Z"/><polygon class="cls-6" points="157.762 157.738 153.043 157.738 149.875 180.174 154.594 180.174 157.762 157.738"/><polygon class="cls-7" points="149.462 165.546 144.744 165.546 142.678 180.174 147.397 180.174 149.462 165.546"/><polygon class="cls-20" points="140.946 176.259 136.227 176.259 135.674 180.174 140.393 180.174 140.946 176.259"/><polygon class="cls-9" points="133.033 180.174 133.954 173.648 129.235 173.648 128.314 180.174 133.033 180.174"/><polygon class="cls-11" points="104.332 195.593 103.662 200.341 173.552 200.341 174.222 195.593 104.332 195.593"/><polygon class="cls-11" points="102.396 209.308 172.286 209.308 172.956 204.56 103.066 204.56 102.396 209.308"/><polygon class="cls-11" points="101.13 218.275 171.02 218.275 171.691 213.527 101.8 213.527 101.13 218.275"/><polygon class="cls-11" points="99.864 227.242 140.753 227.242 141.423 222.495 100.535 222.495 99.864 227.242"/><path class="cls-21" d="M82.78,216.5522a2.12,2.12,0,0,0,2.0315-1.78,1.51,1.51,0,0,0-1.5289-1.78,2.12,2.12,0,0,0-2.0315,1.78A1.51,1.51,0,0,0,82.78,216.5522Z"/><polygon class="cls-10" points="389.826 269.016 375.465 269.018 312.77 188.315 327.131 188.314 389.826 269.016"/><rect class="cls-11" x="367.0755" y="154.5076" width="9.3987" height="116.6666" transform="translate(-42.1935 102.623) rotate(-14.8821)"/><rect class="cls-13" x="376.4451" y="190.2658" width="4.6994" height="79.6847" transform="translate(-46.3928 105.0052) rotate(-14.8821)"/><rect class="cls-13" x="353.7456" y="154.1206" width="5.4826" height="2.3837" transform="translate(-27.9312 96.7669) rotate(-14.8821)"/><path class="cls-11" d="M391.2984,268.0106l.862,13.7162a2.0493,2.0493,0,0,1-3.8845,1.0323l-6.0609-12.3346Z"/><rect class="cls-1" x="305.9056" y="281.9245" width="86.2595" height="3.0755" rx="1.5378"/><path class="cls-22" d="M387.4864,281.1523l.7895,1.6068a2.0493,2.0493,0,0,0,3.8845-1.0323l-.1123-1.7867Z"/></g></g></svg>
