<svg alt="" data-name="Layer 1" xmlns="http://www.w3.org/2000/svg" viewBox="0 0 36 36"><defs><style>.cls-1{stroke:#000;stroke-miterlimit:10;stroke-width:1.25px;}</style></defs><title>Contact Page</title><path d="M32.62,9.65V36H3.38V0H23Zm-2.24,24.1V11.25h-9v-9H5.63v31.5ZM23.63,9h5.15L23.63,3.85Z"/><path class="cls-1" d="M20.39,24.18a6.81,6.81,0,0,1,3.38,2.56,7.11,7.11,0,0,1,.92,1.9A7.36,7.36,0,0,1,25,30.79H24a6.23,6.23,0,0,0-.46-2.38,5.78,5.78,0,0,0-3.17-3.17A6,6,0,0,0,12,30.79H11a7,7,0,0,1,1.26-4,6.78,6.78,0,0,1,1.46-1.52,7.2,7.2,0,0,1,1.91-1,4.79,4.79,0,0,1-1.09-.8,4.87,4.87,0,0,1-.83-1,5.17,5.17,0,0,1-.52-1.23A5,5,0,0,1,13,19.78a4.93,4.93,0,0,1,.4-2,5,5,0,0,1,2.66-2.66,5,5,0,0,1,3.9,0,5,5,0,0,1,2.66,2.66,4.93,4.93,0,0,1,.4,2,5,5,0,0,1-.19,1.34,5.27,5.27,0,0,1-.52,1.22,5.15,5.15,0,0,1-.82,1A4.79,4.79,0,0,1,20.39,24.18ZM14,19.78a3.91,3.91,0,0,0,.31,1.56,4.06,4.06,0,0,0,2.13,2.13,4.08,4.08,0,0,0,3.12,0,4.06,4.06,0,0,0,2.13-2.13,4.08,4.08,0,0,0,0-3.12A4.13,4.13,0,0,0,20.83,17a4.25,4.25,0,0,0-1.27-.86,4.08,4.08,0,0,0-3.12,0,4.25,4.25,0,0,0-1.27.86,4.13,4.13,0,0,0-.86,1.27A3.91,3.91,0,0,0,14,19.78Z"/></svg>