<?xml version="1.0" encoding="utf-8"?>
<!-- Generator: Adobe Illustrator 21.1.0, SVG Export Plug-In . SVG Version: 6.00 Build 0)  -->
<svg version="1.1" id="Layer_1" xmlns="http://www.w3.org/2000/svg" xmlns:xlink="http://www.w3.org/1999/xlink" x="0px" y="0px"
	 width="24px" height="24px" viewBox="0 0 24 24" enable-background="new 0 0 24 24" xml:space="preserve">
<path fill="#B8D432" d="M8.147,19.01c1.73-1.219,3.716-2.861,5.859-5.004c2.201-2.201,3.819-4.167,5.008-5.853
	C17.654,5.678,15.024,4,12,4c-4.418,0-8,3.582-8,8C4,15.021,5.675,17.649,8.147,19.01z"/>
<path fill="#B8D432" d="M16.127,16.127c-1.43,1.429-2.888,2.725-4.318,3.863C11.873,19.992,11.936,20,12,20c4.418,0,8-3.582,8-8
	c0-0.065-0.008-0.127-0.01-0.191C18.82,13.276,17.513,14.741,16.127,16.127z"/>
<path fill="#0078D7" d="M23.417,0.583c-0.342-0.342-0.839-0.504-1.461-0.504c-1.703,0-4.348,1.225-7.312,3.328
	c0.389,0.121,0.768,0.262,1.133,0.433c2.682-1.821,4.904-2.761,6.18-2.761c0.247,0,0.579,0.037,0.754,0.211
	c0.947,0.947-0.966,6.391-7.997,13.422c-5.389,5.389-10.452,8.208-12.668,8.208c-0.248,0-0.579-0.037-0.754-0.211
	c-0.626-0.626,0.011-3.228,2.542-6.949c-0.167-0.36-0.306-0.734-0.425-1.118c-2.872,4.047-4.1,7.497-2.824,8.774
	c0.342,0.342,0.839,0.504,1.461,0.504c2.819,0,8.21-3.337,13.375-8.501C21.725,9.114,25.305,2.472,23.417,0.583z"/>
<path fill="#0078D7" d="M4,0c0,2.209-1.791,4-4,4c2.209,0,4,1.791,4,4c0-2.209,1.791-4,4-4C5.791,4,4,2.209,4,0L4,0z"/>
<path fill="#0078D7" d="M21,18c0,1.657-1.343,3-3,3c1.657,0,3,1.343,3,3c0-1.657,1.343-3,3-3C22.343,21,21,19.657,21,18L21,18z"/>
<path fill="#59B4D9" d="M8.639,13.194H8.312c0.041-0.163,0.061-0.327,0.061-0.51c0-1.205-0.98-2.184-2.184-2.184H4.146
	C4.053,10.986,4,11.487,4,12c0,2.164,0.863,4.123,2.258,5.563h2.381c1.205,0,2.184-0.98,2.184-2.184
	C10.823,14.174,9.843,13.194,8.639,13.194z"/>
<path fill="#59B4D9" d="M14.001,14.011c0.002-0.002,0.003-0.003,0.005-0.005c0.296-0.296,0.572-0.584,0.847-0.871
	C14.48,13.323,14.178,13.631,14.001,14.011z"/>
<path fill="#59B4D9" d="M16.127,16.127c-0.936,0.936-1.885,1.815-2.831,2.632c0.336,0.333,0.797,0.54,1.304,0.54h0.665
	c2.519-1.129,4.346-3.519,4.676-6.37H19.07C18.147,14.017,17.159,15.094,16.127,16.127z"/>
<path fill="#59B4D9" d="M12.661,11.234h3.926c0.958-1.107,1.759-2.134,2.422-3.073c-0.799-1.452-2.032-2.633-3.531-3.358h-0.449
	c-0.817,0-1.47,0.653-1.47,1.47c0,0.122,0.02,0.265,0.061,0.388h-0.939c-1.286,0-2.307,1.021-2.307,2.286
	S11.395,11.234,12.661,11.234z"/>
</svg>
