<svg xmlns="http://www.w3.org/2000/svg" id="Layer_1" data-name="Layer 1" viewBox="0 0 50.035 46.007" alt="Cosmos DB logo" role="img" aria-hidden="true">
    <title>
        Cosmos Database
    </title>
    <path fill="#59b4d9" d="M41.545,20.885A16.527,16.527,0,1,1,21.625,8.7,16.457,16.457,0,0,1,41.545,20.885Z" transform="translate(-0.178 -0.234)"/>
    <path fill="#fff" d="M23.143,31.381A4.391,4.391,0,0,0,18.742,27h-.665a4.365,4.365,0,0,0-4.28-5.386H9.234A16.352,16.352,0,0,0,13.21,35.761h5.531A4.391,4.391,0,0,0,23.143,31.381Z" opacity="0.5" style="isolation:isolate" transform="translate(-0.178 -0.234)"/>
    <path fill="#fff" d="M28.594,13.218a2.942,2.942,0,0,0,.1.761h-1.9a4.561,4.561,0,1,0,0,9.122H41.9a16.165,16.165,0,0,0-8.546-12.835h-1.8A2.959,2.959,0,0,0,28.594,13.218Z" opacity="0.5" style="isolation:isolate" transform="translate(-0.178 -0.234)"/>
    <path fill="#fff" d="M41.9,26.491H32.888A3.724,3.724,0,0,0,29.155,30.2a3.686,3.686,0,0,0,.449,1.767,3.711,3.711,0,0,0,1.125,7.253h2.512A16.47,16.47,0,0,0,41.9,26.491Z" opacity="0.5" style="isolation:isolate" transform="translate(-0.178 -0.234)"/>
    <path fill="#b8d432" d="M6.974,13.767a.506.506,0,0,1-.508-.505A5.776,5.776,0,0,0,.685,7.5a.5.5,0,1,1,0-1.009A5.775,5.775,0,0,0,6.466.739a.508.508,0,0,1,1.015,0A5.776,5.776,0,0,0,13.263,6.5a.505.505,0,1,1,0,1.01,5.776,5.776,0,0,0-5.782,5.757A.507.507,0,0,1,6.974,13.767Z" transform="translate(-0.178 -0.234)"/>
    <path fill="#0072c6" d="M42.628,46.241a.3.3,0,0,1-.3-.3A3.454,3.454,0,0,0,38.867,42.5a.3.3,0,1,1,0-.6,3.454,3.454,0,0,0,3.457-3.442.3.3,0,0,1,.607,0,3.454,3.454,0,0,0,3.457,3.442.3.3,0,1,1,0,.6,3.454,3.454,0,0,0-3.457,3.443A.3.3,0,0,1,42.628,46.241Z" transform="translate(-0.178 -0.234)"/>
    <path fill="#fff" d="M49.555,9.9C47.978,7.316,44.014,6.719,38.1,8.168A47.134,47.134,0,0,0,32.669,9.9a16.666,16.666,0,0,1,3.2,2.045c1.007-.331,1.995-.629,2.937-.859a20.669,20.669,0,0,1,4.821-.683c1.938,0,3.007.479,3.364,1.062.585.957.047,3.484-3.393,7.458-.612.707-1.3,1.423-2.024,2.143A68.883,68.883,0,0,1,29.127,30.61a68.516,68.516,0,0,1-14.2,6.76c-5.987,1.95-10.075,1.911-10.991.414s.915-5.157,5.385-9.6a16.355,16.355,0,0,1-.367-3.847c-7.115,6.43-9.417,12-7.578,15.011.962,1.574,3.066,2.461,6.138,2.461a31.252,31.252,0,0,0,10.626-2.345A75.746,75.746,0,0,0,30.691,33.17a75.624,75.624,0,0,0,11.29-8.357,46.623,46.623,0,0,0,3.888-3.929C49.859,16.278,51.133,12.479,49.555,9.9Z" transform="translate(-0.178 -0.234)"/>
</svg>
