<svg xmlns="http://www.w3.org/2000/svg" width="36" height="36" viewBox="0 0 36 36"><title>Icon Individual Artboards</title><path d="M29.76,16.3A11.89,11.89,0,1,1,15.41,7.54h0a11.84,11.84,0,0,1,14.31,8.69Z" fill="#5bb4da"/><path d="M16.52,23.85a3.16,3.16,0,0,0-3.16-3.15h-.48a3.15,3.15,0,0,0-2.32-3.79,3.29,3.29,0,0,0-.76-.09H6.51A11.74,11.74,0,0,0,9.38,27h4a3.15,3.15,0,0,0,3.17-3.15Z" fill="#fff" opacity="0.5" style="isolation:isolate"/><path d="M20.44,10.78a2,2,0,0,0,.08.55H19.15a3.28,3.28,0,1,0,0,6.56H30a11.64,11.64,0,0,0-6.15-9.23h-1.3A2.14,2.14,0,0,0,20.44,10.78Z" fill="#fff" opacity="0.5" style="isolation:isolate"/><path d="M30,20.33H23.53a2.67,2.67,0,0,0-2.36,3.94A2.67,2.67,0,0,0,22,29.49h1.81A11.86,11.86,0,0,0,30,20.33Z" fill="#fff" opacity="0.5" style="isolation:isolate"/><path d="M4.89,11.18a.37.37,0,0,1-.37-.36h0A4.15,4.15,0,0,0,.36,6.67.36.36,0,0,1,0,6.31a.37.37,0,0,1,.36-.37A4.15,4.15,0,0,0,4.52,1.8a.37.37,0,0,1,.73,0A4.16,4.16,0,0,0,9.41,6a.37.37,0,0,1,.37.36.38.38,0,0,1-.37.37,4.15,4.15,0,0,0-4.16,4.14A.36.36,0,0,1,4.89,11.18Z" fill="#b8d433"/><path d="M30.54,34.54a.21.21,0,0,1-.21-.21,2.49,2.49,0,0,0-2.49-2.48.21.21,0,0,1-.22-.21.22.22,0,0,1,.22-.22h0a2.48,2.48,0,0,0,2.48-2.48.22.22,0,0,1,.44,0,2.49,2.49,0,0,0,2.49,2.48.21.21,0,0,1,.21.22.21.21,0,0,1-.21.21h0a2.49,2.49,0,0,0-2.49,2.48.21.21,0,0,1-.22.21Z" fill="#2272b9"/><path d="M35.53,8.4c-1.14-1.86-4-2.29-8.25-1.25a33.38,33.38,0,0,0-3.9,1.25,11.82,11.82,0,0,1,2.3,1.47c.72-.24,1.43-.45,2.11-.62a14.6,14.6,0,0,1,3.47-.49c1.4,0,2.16.34,2.42.76.42.69,0,2.51-2.44,5.37-.44.51-.93,1-1.46,1.54a49.38,49.38,0,0,1-9,6.87,49.1,49.1,0,0,1-10.22,4.86c-4.31,1.4-7.25,1.38-7.91.3s.66-3.71,3.88-6.91a11.73,11.73,0,0,1-.27-2.77C1.19,23.41-.46,27.42.86,29.59c.69,1.13,2.21,1.77,4.42,1.77a22.84,22.84,0,0,0,7.64-1.69,54.07,54.07,0,0,0,9-4.53,54.89,54.89,0,0,0,8.13-6,33.87,33.87,0,0,0,2.79-2.83C35.75,13,36.66,10.25,35.53,8.4Z" fill="#fff"/></svg>