<svg id="editIcon" alt="Edit Name" role="img" xmlns="http://www.w3.org/2000/svg" width="20" height="20" viewBox="0 0 36 36"><title>Edit Name</title><path d="M36,5.89a6,6,0,0,1-.44,2.25,5.66,5.66,0,0,1-1.28,1.93L11.13,33.22,0,36,2.78,24.87,25.93,1.72A5.66,5.66,0,0,1,27.86.44,6,6,0,0,1,30.11,0,5.72,5.72,0,0,1,32.4.47,5.89,5.89,0,0,1,35.53,3.6,5.72,5.72,0,0,1,36,5.89Zm-32.91,27,5.79-1.45a5.94,5.94,0,0,0-.57-1.52,6.19,6.19,0,0,0-1-1.29,6.19,6.19,0,0,0-1.29-1,5.94,5.94,0,0,0-1.52-.57ZM5.73,25.1a8.14,8.14,0,0,1,3.21,2,8.14,8.14,0,0,1,2,3.21l19-19L24.75,6.1ZM31.5,9.65l.84-.83A6.06,6.06,0,0,0,33.06,8a3.84,3.84,0,0,0,.51-.93,3.51,3.51,0,0,0,.18-1.17,3.53,3.53,0,0,0-.29-1.42,3.76,3.76,0,0,0-1.95-1.95,3.74,3.74,0,0,0-2.59-.11,3.84,3.84,0,0,0-.93.51,6.06,6.06,0,0,0-.81.72l-.83.84Z"/></svg>
