<svg data-name="Layer 1" xmlns="http://www.w3.org/2000/svg" viewBox="0 0 36 36"><defs><style>.cls-1{stroke:#000;stroke-miterlimit:10;stroke-width:0.75px;}</style></defs><title>FAQ Page</title><path d="M32.62,9.65V36H3.38V0H23Zm-2.25,24.1V11.25h-9v-9H5.62v31.5ZM23.62,9h5.16L23.62,3.85Z"/><path class="cls-1" d="M18.1,15.21a4,4,0,0,1,1.62.33,4.48,4.48,0,0,1,1.32.9,4.22,4.22,0,0,1,.9,1.33,4,4,0,0,1,.33,1.61A3.52,3.52,0,0,1,22,20.74a4.93,4.93,0,0,1-.62,1.05,6.63,6.63,0,0,1-.81.86c-.28.25-.55.51-.8.77a4.42,4.42,0,0,0-.62.82,2,2,0,0,0-.24,1v.84H17.27v-.84a3.37,3.37,0,0,1,.25-1.36,4.22,4.22,0,0,1,.62-1.05,5.87,5.87,0,0,1,.8-.85l.8-.77a4.31,4.31,0,0,0,.62-.82,2,2,0,0,0,.24-1,2.48,2.48,0,0,0-.19-1,2.52,2.52,0,0,0-.54-.79,2.39,2.39,0,0,0-.79-.53,2.29,2.29,0,0,0-1-.2,2.32,2.32,0,0,0-1,.2A2.46,2.46,0,0,0,15.8,18.4a2.32,2.32,0,0,0-.2,1H13.93a4,4,0,0,1,.33-1.61,4,4,0,0,1,.89-1.33,4.4,4.4,0,0,1,1.33-.9A4,4,0,0,1,18.1,15.21Zm-.83,12.51h1.67v1.67H17.27Z"/></svg>