<svg xmlns="http://www.w3.org/2000/svg" xmlns:xlink="http://www.w3.org/1999/xlink" version="1.1" id="图层_1" x="0px" y="0px" viewBox="71 -75 246.6 300" style="enable-background:new 71 -75 246.6 300;" xml:space="preserve">
<style type="text/css">
	.st0{fill:#040000;}
</style>
<path id="XMLID_515_" class="st0" d="M144.7,160.9c-9.4-7.4-19.4-14.5-26.3-24.4c-14.4-17.6-25.5-38-33.1-59.4  c-4.6-13.9-6.2-28.8-12.1-42.2c-6.2-9.7,1.1-20.3,11.7-23.4c4.7-0.9,13.1-5.4,3-2.2c-9,6.6-9.9-6-0.6-6.8c6.3-0.8,8.6-6,6.5-10.7  c-6.8-4.4,16.4-9.3,4.8-15.9c-12.2-13.1,17-15.6,9.8-0.7c-1.7,11.5,20.4-2.1,15.3,11.1c5.2,6.4,19.5,1.4,19.2,10.4  c7.6,0.5,10.2,6.9,17.3,7.4c7.4,3.3,20.8,6,23.3,14.3c-7.3,5.8-24.3-12-25.1,4.1c2.2,23.7,1.7,48.2,10.3,70.8  c4.1,13.7,14.1,24.5,23.1,35.1c8.6,10.4,20.3,17.8,32.1,24c10.4,4.9,21.7,8.2,33,10.2c4.6-3.5,12.7-16.6,19.9-11.1  c0.3,6.2-14.3,13-0.7,12.3c8-2.4,13.5,6.2,20.1-1.6c6,7.2,25.1-4.6,20.8,10.1c-5.8,3.8-14.3,1.5-20.1,6.7  c-9.6-4.8-17.3,4.3-27.9,3.1c-11.8,2.1-23.8,3-35.8,3c-19.6-1.5-39.7-2.2-58.4-9C164.2,172.9,154,166.9,144.7,160.9L144.7,160.9z   M161.3,168.1c10.3,4.4,20.3,9.1,31.6,10.5c17.9,2.5,36.3,6.3,54.3,2.8c-8.1-3.7-16.5,1.4-24.6-2.6c-9.7,2.1-20.1-0.5-30-1.8  c-11.2-5-23.3-8.4-33.8-14.9c-13.1-4.8,6.8,6.1,10.3,7c8.2,4.7-9-2.4-11.5-4.3c-6.9-3.9-7.7-3-0.7,0.9  C158.4,166.5,159.8,167.4,161.3,168.1L161.3,168.1z M141.7,154.3c10,3.7,0-7-4.6-6.4c-2-3.5-7.7-5.7-3.7-7.6  c-7.2,2.5-7.6-9.6-11-7.8c-7.7-2.4-3-11-12.1-16.3c-0.8-5.5-9.1-10.3-11.7-18.7c-1.2-4.3-9.3-16.6-4.3-5.1c4.3,11,11.7,20.4,18,29.9  c4.8,9,10.6,18.4,19.4,23.9C134.7,149,137.5,153.4,141.7,154.3L141.7,154.3z M113,122.8C113.4,121.2,114.8,126,113,122.8L113,122.8z   M153.7,158.7C155.9,157.7,150.5,157.4,153.7,158.7L153.7,158.7z M159.1,160.7C158.5,157.9,156.6,162.2,159.1,160.7L159.1,160.7z   M165.8,163.5C169.1,160.4,160.9,161.5,165.8,163.5L165.8,163.5z M177.4,170C179.4,167.1,171.2,168.9,177.4,170L177.4,170z   M155.2,154.4C160.2,151.2,148.7,154.4,155.2,154.4L155.2,154.4z M160.2,156.9C160.1,155.2,158.4,157.7,160.2,156.9L160.2,156.9z   M185.6,172.8c4.1,2.6,23.8,5.6,11.5,1.1C195,174.3,174.2,167.9,185.6,172.8L185.6,172.8z M145.3,141.4  C144.9,139.7,139,139.5,145.3,141.4L145.3,141.4z M157.1,148.3C160.2,146.2,150.8,146.6,157.1,148.3L157.1,148.3z M167.1,154.4  C171.5,152.7,159.9,152.7,167.1,154.4L167.1,154.4z M140.5,136.2c4.8,3.7,19.3,0.5,7.3-2.2c-5.4-2.9-17.7-4.9-9.4,1.8L140.5,136.2  L140.5,136.2z M173.8,156.5C175.8,153.1,165.4,154.6,173.8,156.5L173.8,156.5z M163.7,148.5c11.7,3.3-9.8-7.4-2.9-1.2l1.5,0.7  L163.7,148.5L163.7,148.5z M184,160.2C195.1,160.3,174,158.7,184,160.2L184,160.2z M136.3,129.8  C135.8,127.7,133.5,129.9,136.3,129.8L136.3,129.8z M202.7,170.7C203,167,199.1,173.5,202.7,170.7L202.7,170.7z M155.2,141.3  C154.5,139.4,151.7,141.3,155.2,141.3L155.2,141.3z M137.3,128.5C143.7,128.1,128.6,125.7,137.3,128.5L137.3,128.5z M116.1,114.8  C115.3,111.7,109.2,109.3,116.1,114.8L116.1,114.8z M171.7,150.1C170.5,148.7,171.2,150.3,171.7,150.1L171.7,150.1z M206.3,171.3  C206.2,169.2,204.4,172,206.3,171.3L206.3,171.3z M168.6,146.9C169.3,144.3,163.2,146.1,168.6,146.9L168.6,146.9z M142.9,130.6  C147.6,130.1,135.3,127.4,142.9,130.6L142.9,130.6z M186.5,157.6C193.9,154.7,179.3,156.2,186.5,157.6L186.5,157.6z M163.8,142.3  c8.5,1.1-10.1-5.8-1.9-0.6L163.8,142.3L163.8,142.3z M193.4,160.4c7.9-4.7,5.3,11.1,13.5,1.3c8-5.9-6.9,7.3,3,1  c7.2-4.8,17.8,2.3,24.4,4.6c4.8-0.2,9.5,4.2,14.4,1.5c9.5-2.6-18.6-3.8-11.2-8.3c-8.7,2.5-15.1-3-19.4-8.6  c-9.7-2.2-21-7.2-25.9-15.8c-2-3.2,2.9,0.5-1.7-4.8c-5.9-5.2-8.8-11.1-12.7-17.5c-4.7-2.5-5.3-9.9-5.7-0.2c0-6.1-5.7-10.2-7.1-8.5  c0-5.9,6.1-2.9,1.8-7.3c-0.9-6.1-4-12.4-4.9-19.3c-1.4-3.3-0.2-10.4-4.9-2.9c-1.7,7.9-0.6-9.7,2.1-3.9c3.5-5.9-1.2-5.2-1.4-4.4  c2.3-5,1.4-12.1-0.6-9.4c1.2-5.3,1.9-19.5-1.8-17c2.2-5.6,4.3-25.4-5.5-17.8c-3.9,0.1-10.8,1.4-14,3c10.1,5.6-1,2-5.1,1.1  c-0.5,5.2-4.6,2.9-9.7,3c8.2,1-4,8.3-8.6,5.5c-6.1,2.9,5.2,10.1,0.1,12.4c0.6,3.4-9.3-1.2-8.5,6.6c-5.9-2.5-0.8,9.2,2.1,5.3  c10,2.7,7.1,8.9,7.3,14.8c-1.6,3.4-8.1-8-1.4-7.5c-5.2-8.5-5.8-3.1-10.1,0.9c-1,0.3,11.1,5.6,3.5,8.3c6.7,1,6.9,6.9,8.2,10.6  c4,4.2,3.2-4.6,8,0.4c-3-4.5-16.1-12.6-5.6-10c-0.1-4.5-1.9-8.1,1.3-8.1c3.2-5.8-3.3,14.2,3.8,6.9c2-0.9,2.5-5.8,6.1,0.5  c5.2,5.1,1.9,8.8-5.5,4.1c1.3,4.5,9.8,6,8.2,13c1.7,6.1,4.1,3.9,6.1,3.5c1.6,5.9,2.5,1.6,2.6-1.3c7.4,1.6,5.7,6,8,9  c5.1,2.3-7.3-15.6,1.5-5.4c9.2,8.3,3.5,11.8-4.8,10.5c5.2-0.4,6.9,7.1,13.5,6.8c6,2.8,10,13.8-0.3,9.2c-3.6-3.2-16.2-7.2-5.9-1.1  c9.5,4.4,17.1,7.1,26.3,12.6c6.6,4.7,9.4,10.1,11.9,11.1c-5.5,2.6-16.7-2.1-8.4-3.6c-5.2-0.9-11-3.6-6,2.9  c4.2,3.5,14.9,3.1,16.8,3.5c-1.6,3.6-4.4,3.9,0.1,4.1C186.3,158.5,192.9,158.9,193.4,160.4L193.4,160.4z M183.1,131.6  c-3-3.2-3.8-9.1-0.5-4C184.3,128.3,188,137.3,183.1,131.6L183.1,131.6z M216.4,152.7C218.3,152.6,216.5,154.2,216.4,152.7  L216.4,152.7z M178.3,123.8C178.2,119,179.4,127.5,178.3,123.8L178.3,123.8z M175,119.3C171.2,111.9,179.8,121.4,175,119.3  L175,119.3z M134.9,91.7C137.2,91.1,136,95.5,134.9,91.7L134.9,91.7z M166.8,108.9C168.2,103.8,168.5,113.3,166.8,108.9L166.8,108.9  z M144.3,93.3C142.7,90.4,147.6,96,144.3,93.3L144.3,93.3z M163.6,99.5c-3.6-8.1,2.6-4.4,0.8,1.3L163.6,99.5L163.6,99.5z   M130.3,77.2c-1.6-2.7-4.3-10.5-3.4-12.9c0.8,3.9,8.3,16.7,3.7,5.3c-5.1-9.6,6.1,3.1,7.2,5.5c0.5,2.4-3.1-0.6-0.6,4.9  C132.6,73.8,134.4,83.6,130.3,77.2L130.3,77.2z M120,70.1C120.4,63.9,122.3,74.4,120,70.1L120,70.1z M124.6,71.7  C126.8,67.1,128.4,78.2,124.6,71.7L124.6,71.7z M113.5,63.1c-3.8-3.8-6.6-7.3,0.2-2.4c2.6,0.1-5.8-8,0.6-2.6  C121.1,59.4,117.6,69.3,113.5,63.1L113.5,63.1z M119.3,62.9C121.6,60.7,120.5,65.1,119.3,62.9L119.3,62.9z M122.9,64.1  C119.5,57.8,127,66.8,122.9,64.1L122.9,64.1z M115.8,57.2c-11.2-9.9,14,5.2,1.8,1.8L115.8,57.2L115.8,57.2z M147.7,75.8  c-4.8-2.9-1.3-20.4,0.4-8.4c4.7-1.5-0.3,6.2,3.2,6.1C150.8,78.4,149.2,80.1,147.7,75.8L147.7,75.8z M159.6,82.8  C160,77.5,160.6,86.4,159.6,82.8L159.6,82.8z M157.5,80.8C158,78.5,157.6,83.4,157.5,80.8L157.5,80.8z M118,54  c-7.2-9.9,20.8,10,4.6,2.5C120.8,56,118.8,55.9,118,54L118,54z M140.7,66.1C140,57.7,142.2,67.4,140.7,66.1L140.7,66.1z M158,77.1  C159.3,72.4,158.1,80.3,158,77.1L158,77.1z M119.1,50.2c4.3-0.9,17.7,7.5,5.4,2.4C123,51.1,120.1,51.8,119.1,50.2L119.1,50.2z   M155.6,68.4c0.5-8.5,2.5-5.1,0,1.2L155.6,68.4L155.6,68.4z M122.2,47.2c1.7-2.5-4.6-11.5,0.9-3.2c2.4,1.9,6.9,3.2,2.9,4  C132.3,53.5,124.5,49.5,122.2,47.2L122.2,47.2z M153.8,65.8C155,56.1,154.9,71.5,153.8,65.8L153.8,65.8z M118.6,38.3  C119.9,37.7,119.3,40.1,118.6,38.3L118.6,38.3z M126.8,43.2C129,38.7,130.8,48.2,126.8,43.2L126.8,43.2z M150.1,56.1  C150.1,54.4,150.5,58.6,150.1,56.1L150.1,56.1z M148.7,53.1C145.5,45.2,151.7,57.4,148.7,53.1L148.7,53.1z M146.8,47.9  C146.2,44.6,148.6,52.1,146.8,47.9L146.8,47.9z M150,42.7c-2.2-3.9,2.8-17.2,3.4-9c-2.3,6.4-0.7,10,0.9,1.4  C157.3,28.4,153.6,48.5,150,42.7L150,42.7z M153.3,22.9C154.3,21.7,153.5,24.3,153.3,22.9L153.3,22.9z M147.8,132  C146.5,130.8,147.9,132.7,147.8,132L147.8,132z M159.2,137.7c6.3,1.6,6.3-1,0.6-1.8c-3.1-2.9-12.8-5.9-4.1-0.4  C156.2,137.1,158,137,159.2,137.7L159.2,137.7z M136.7,122.8c3.5,2.6,13.2,7.4,5,1c2.8-3.2-5.3-4.9-2.6-7.1  c-6.8-4.2-5.4-3.8-0.6-3.6c-8.2-3.6,1.2-3.4,0.7-5.2c-3.1-0.6-15.6-5.5-8.3,0.4c-7.5-3.8-1.8,1.4-4,0.9c-7.6-2.1,6.8,5.8-1.2,3.8  c4.4,3.5,11.8,8.9,1.8,3.7C126.2,118.5,134.6,121.4,136.7,122.8L136.7,122.8z M148.6,129.6C163.1,134.3,141.5,123.9,148.6,129.6  L148.6,129.6z M209.6,166.6C209.8,163.7,207.6,169.1,209.6,166.6L209.6,166.6z M215.9,169.3c3.3-3.2,0.1,5.2,5.5-0.8  c0.1-4.3-0.2-6.8-6.2-1.6C213.6,167.8,212.8,171.7,215.9,169.3L215.9,169.3z M116.3,106.7C115.3,102.7,109.1,102.7,116.3,106.7  L116.3,106.7z M123,111.1C120.5,107,114.1,107.4,123,111.1L123,111.1z M161.1,134.1c3.7,3.3,17.1,2.4,4.5,0.4  C163.8,131.7,153.8,132.4,161.1,134.1L161.1,134.1z M213.5,166.4C219.2,161.6,208,168.6,213.5,166.4L213.5,166.4z M225.4,174.6  C225.5,173.1,222.9,175.3,225.4,174.6L225.4,174.6z M225.4,172.5C231.8,165.7,219.3,172.9,225.4,172.5L225.4,172.5z M99.8,92.9  c-5.4-7.7-3.4-11.2-8.6-17.5c-1-4.8-8.9-15.7-4.1-4.2C91.6,78,92.9,88.5,99.8,92.9L99.8,92.9z M223.4,170.3  C235.1,162.8,218.7,167,223.4,170.3L223.4,170.3z M232.4,173.8C238.2,168.8,228.7,172.8,232.4,173.8L232.4,173.8z M114.3,98.2  C116,95.7,110,97.9,114.3,98.2L114.3,98.2z M230.5,171.4c5.7-3.6-1.3-3.1-1,0.3L230.5,171.4L230.5,171.4z M153.7,123  C153.5,120.6,150.7,123.3,153.7,123L153.7,123z M158.5,125.8C157,122.7,156.1,126.3,158.5,125.8L158.5,125.8z M239.6,173.9  c7.3-5.2-4.4-1-1.5,1L239.6,173.9L239.6,173.9z M236.8,172.6C242.7,167.6,230.6,174.8,236.8,172.6L236.8,172.6z M251,182  C254.9,179.3,246.2,181.1,251,182L251,182z M118,96.4c5.3,1.2,21.2,13.1,11.8,0.8c-4.8-1.4-1.9-13.2-6.8-11.1  c3.3,5.5,2.7,7.8-4.2,4.4c-8.7-4.2-4.9,2.1-3.2,3.8C113.3,94.9,118.6,96.3,118,96.4L118,96.4z M93.7,77.3c0.9-3.9-8.8-21.6-4.6-8.9  C90.7,71.1,90.5,76.1,93.7,77.3L93.7,77.3z M138.2,104.7C135.4,102.4,138,104.3,138.2,104.7L138.2,104.7z M144.9,106.2  C144.9,102.1,137.5,104.5,144.9,106.2L144.9,106.2z M203.3,143C202.2,140.2,198.9,143,203.3,143L203.3,143z M206.1,145.1  C205.7,143.5,204.5,145.4,206.1,145.1L206.1,145.1z M229.3,159.7C231.5,158,226.5,159.5,229.3,159.7L229.3,159.7z M105.8,80.4  C112.2,77.9,99,78.6,105.8,80.4L105.8,80.4z M198.2,138.5C198.1,134.4,194.1,139.6,198.2,138.5L198.2,138.5z M103.3,74.5  C107.4,73.1,99.5,73.6,103.3,74.5L103.3,74.5z M115.2,80.2C115.1,78.9,113.9,80.8,115.2,80.2L115.2,80.2z M260,169  c5.3-1.1,17.2,2.7,19.2-1.4c-6.4-0.2-22.1-4.5-22.8,1l1.4,0.2L260,169L260,169z M119,81.2C119.1,77,115.7,81,119,81.2L119,81.2z   M87.8,59.5C86.3,51.6,82.4,58.3,87.8,59.5L87.8,59.5z M95.2,61.4C95.3,58.9,88.4,59.1,95.2,61.4L95.2,61.4z M99.4,63.5  C98.2,62.5,98.5,64.8,99.4,63.5L99.4,63.5z M126.2,80.7C127.5,79.5,123.2,79.8,126.2,80.7L126.2,80.7z M96.6,58.8  C95.9,52.8,88,57.9,96.6,58.8L96.6,58.8z M81.4,48.9C81.1,46.1,79.9,49.9,81.4,48.9L81.4,48.9z M83.6,47.2  C83.3,43.9,81.7,47.6,83.6,47.2L83.6,47.2z M96.2,54.7c5.3-2.1-9.7-4.3-1.1-0.4L96.2,54.7L96.2,54.7z M264,158.3  C267.4,155.2,259.7,157.4,264,158.3L264,158.3z M284.3,168.8C285.6,164.8,280.9,169.4,284.3,168.8L284.3,168.8z M97.4,48.1  C98,44.2,93.2,48.9,97.4,48.1L97.4,48.1z M79.6,36.1c-1-5.5-0.8-15.1,8.3-11.9c-12.2,2.4,8.5,15.2,5.9,5.1c5.1,0.3,10.1-3,7.4,2  c10.1-1.1,17.2-9.9,27-8.7c7.6-1,16-1.8,24.2-4.9c6.8-0.5,13.3-7.8,9.6-12.1c-9.2-0.8-18.9,0.4-29.1,2.4  c-11.3,2.3-21.5,6.8-32.9,8.7c-11.1,1.5,2.2,4.1-1,4.7c-5.8,2,6.9,3.4-0.7,5.5c-4.7-0.9-9.7-2.5-7.6-7.5c-10.6,1.4-20,5.8-11.6,16.6  L79.6,36.1L79.6,36.1z M105.2,23.1c2.5-9.2,13.4,7.6,4.1,1.2C108.2,23.5,106.4,22.8,105.2,23.1L105.2,23.1z M105.7,18.6  C109.3,15.9,107.6,20.1,105.7,18.6L105.7,18.6z M110.3,18.7c0.3-4.2,10.5,2.2,1.7,1.5L110.3,18.7L110.3,18.7z M116.5,16.2  C118.8,13.5,117.2,18.6,116.5,16.2L116.5,16.2z M118.1,15.1c3.8-4.6,21.5-2.9,8.6-0.4C123.2,12.1,120.5,16.2,118.1,15.1L118.1,15.1z   M141.3,11.6C140.7-0.9,152.8,16,141.3,11.6L141.3,11.6z M147.8,11.5c2.4-6.3,9.3-2.5,1.1-1.3C149.1,10.9,148.7,13.5,147.8,11.5  L147.8,11.5z M94.9,44.9C102,40.5,87.2,41.1,94.9,44.9L94.9,44.9z M100.2,46.3C102.7,43.7,94.7,45.2,100.2,46.3L100.2,46.3z   M84.5,35.3C88.6,32.1,79.7,34.1,84.5,35.3L84.5,35.3z M296.2,167.7C296.4,164,293.1,169.3,296.2,167.7L296.2,167.7z M274.7,153  C275.3,148.8,272,153.4,274.7,153L274.7,153z M302.2,169.1c5.7,0,17.4-1.8,4.9-1.8C305.1,167.6,295.7,167.6,302.2,169.1L302.2,169.1  z M104.8,43.8c4.6-0.3,7.3-5.1-0.9-4.8c-12.6-1.3,11.1,4.3-1.6,2.7C100.6,42.8,104.7,44.1,104.8,43.8L104.8,43.8z M108.9,45.8  C108.4,42.8,107.5,47.4,108.9,45.8L108.9,45.8z M113.7,32.9C115.8,30.4,111,32.2,113.7,32.9L113.7,32.9z M98.3,7.1  c8.3-2.8,19.6-6,23.5,1.4c-4-4.8-1.6-9.5,2.1-2.5c5.3,7.1,8-3.2,4.5-5.6c3.9,4.9,8.4,7.2,2.6,0.3c6.3-7.6-12.6,1-16.9,0.9  C112.2,2.6,93,6.5,98.3,7.1L98.3,7.1z M103.2-2.1c4.7-3.6,16.3,2.1,8.9-3.5C111.3-6.3,95.8-1.4,103.2-2.1L103.2-2.1z M120.4-1.4  c5.5,0.1-2.4-7.4,4.2-4c-1.1-3.5-7.7-4.2-10.9-5.6C111.9-7.8,117.4-1.4,120.4-1.4L120.4-1.4z M106.2-17.1  C108.1-19.6,102.8-15.7,106.2-17.1L106.2-17.1z M113.2-15.4c8.9-1.2-2.3-3.8-1.8-0.1L113.2-15.4L113.2-15.4z M100.1-25.6  c-6.3-8.2,11.8,1.4,5.4-7.2C100.2-37.1,95-28,100.1-25.6L100.1-25.6z M180.5,17.7c2.9-5.1-11.9-6.9-1.9-1.8  C179.5,16.2,179.3,18,180.5,17.7L180.5,17.7z"/>
</svg>