<svg alt="Open File Explorer" role="img" xmlns="http://www.w3.org/2000/svg" width="36" height="36" viewBox="0 0 36 36"><title>Open File Explorer</title><path d="M0,7.87A2.25,2.25,0,0,1,.17,7a2.36,2.36,0,0,1,.49-.72,2.34,2.34,0,0,1,.71-.48,2.13,2.13,0,0,1,.88-.18H19.69a2.61,2.61,0,0,0,1-.16A3.84,3.84,0,0,0,21.42,5a7,7,0,0,0,.71-.54,5.36,5.36,0,0,1,.8-.55,5.29,5.29,0,0,1,1-.41,5,5,0,0,1,1.36-.17h8.44a2.13,2.13,0,0,1,.88.18,2.29,2.29,0,0,1,1.2,1.2,2.25,2.25,0,0,1,.17.87v27H0Zm33.75,22.5V10.12H25.31A5,5,0,0,1,24,10a4.73,4.73,0,0,1-1-.42,4.66,4.66,0,0,1-.8-.54c-.23-.2-.47-.38-.71-.55A4.37,4.37,0,0,0,20.65,8a2.61,2.61,0,0,0-1-.17H2.25v22.5ZM25.31,5.62a3.13,3.13,0,0,0-.73.08,2.34,2.34,0,0,0-.58.23,4.3,4.3,0,0,0-.52.35c-.17.14-.36.29-.56.47l.56.46a3.46,3.46,0,0,0,.52.36,2,2,0,0,0,.58.22,2.67,2.67,0,0,0,.73.08h8.44V5.62Z"/></svg>
