<svg id="Layer_1" data-name="Layer 1" xmlns="http://www.w3.org/2000/svg" viewBox="0 0 36 36"><defs><style>.cls-1{fill:#fff;}</style></defs><title>Folder</title><path class="cls-1" d="M29.25,0a2.3,2.3,0,0,1,.88.17,2.2,2.2,0,0,1,.71.49,2,2,0,0,1,.48.71,2.13,2.13,0,0,1,.18.88V19.69a2.52,2.52,0,0,0,.17.95,4.13,4.13,0,0,0,.41.78,7.13,7.13,0,0,0,.55.71A4.89,4.89,0,0,1,33.58,24a5,5,0,0,1,.17,1.36v8.44a2.13,2.13,0,0,1-.18.88,2.26,2.26,0,0,1-1.19,1.19,2.13,2.13,0,0,1-.88.18H4.5V0ZM6.75,33.75H27V25.31A5,5,0,0,1,27.17,24a5.29,5.29,0,0,1,.41-1,4.7,4.7,0,0,1,.55-.8,8.87,8.87,0,0,0,.54-.71,4.13,4.13,0,0,0,.41-.78,2.52,2.52,0,0,0,.17-.95V2.25H6.75ZM31.5,25.31a3.29,3.29,0,0,0-.08-.74,2.27,2.27,0,0,0-.23-.58,3.87,3.87,0,0,0-.35-.51c-.13-.17-.29-.36-.46-.56-.18.2-.34.39-.47.56a3.87,3.87,0,0,0-.35.51,2.27,2.27,0,0,0-.23.58,3.29,3.29,0,0,0-.08.74v8.44H31.5Z"/></svg>