<svg xmlns="http://www.w3.org/2000/svg" width="1919.4381" height="1080" viewBox="0 0 1919.4381 1080" alt="An octopus wizard creating his full-stack project in space" role="img"><defs><style>.homeSplash-cls-0{fill:#799cf2;}.homeSplash-cls-2{opacity:0.9;}.homeSplash-cls-3{fill:#5c83e5;}.homeSplash-cls-4{fill:#94b5f7;}.homeSplash-cls-5{fill:#f4a44d;}.homeSplash-cls-6{fill:#f4ca60;}.homeSplash-cls-7{fill:#ff5757;}.homeSplash-cls-8{fill:#ff4c39;}.homeSplash-cls-9{fill:#6172ed;}.homeSplash-cls-10{fill:#a9d8d6;}.homeSplash-cls-11{fill:#ff8980;}.homeSplash-cls-12{fill:#fcd681;}.homeSplash-cls-13{fill:#3649a8;}.homeSplash-cls-14{fill:#ededed;}.homeSplash-cls-15{fill:#fc7575;}.homeSplash-cls-16{fill:#282120;}.homeSplash-cls-17{fill:#f4997d;}.homeSplash-cls-18{fill:#fc6060;}.homeSplash-cls-19{fill:#7393e5;}.homeSplash-cls-20{fill:#6487f4;}.homeSplash-cls-21{fill:#ffc0ad;}.homeSplash-cls-22{opacity:0.7;}.homeSplash-cls-23{fill:#db4545;}.homeSplash-cls-24{opacity:0.1;}.homeSplash-cls-25{fill:#fcc2be;}.homeSplash-cls-26{fill:#ff8650;}.homeSplash-cls-27{opacity:0.5;}.homeSplash-cls-28{opacity:0.6;}.homeSplash-cls-29{opacity:0;}</style></defs><title>An octopus wizard creating his full-stack project in space</title><g id="Layer_2" data-name="Layer 2"><g id="Layer_1-2" data-name="Layer 1"><path class="homeSplash-cls-0" d="M1203.8285,1080h715.61v-37.8474C1691.0338,938.0994,1422.4967,950.7071,1203.8285,1080Z"/><g class="homeSplash-cls-2"><path class="homeSplash-cls-3" d="M1324.6109,1055.8413c16.808-3.7641,34.243-3.2129,51.3924-4.8161a204.7112,204.7112,0,0,0,45.9164-9.7008c12.0917-4.05,23.7726-9.22,35.4332-14.382l122.3745-54.173A773.7284,773.7284,0,0,0,1203.8285,1080h81.8734C1294.1354,1067.05,1309.3367,1059.262,1324.6109,1055.8413Z"/></g><g class="homeSplash-cls-2"><path class="homeSplash-cls-4" d="M1854.4552,1080a18.5952,18.5952,0,0,0-1.7859-4.21c-10.7815-18.9857-34.27-27.2447-56.0952-27.8285s-43.3543,4.8885-65.1515,6.1471c-58.5625,3.3814-115.798-23.6457-174.3291-19.743A168.4954,168.4954,0,0,0,1453.3522,1080Z"/></g><circle class="homeSplash-cls-5" cx="1302.611" cy="768.9937" r="3.2944"/><circle class="homeSplash-cls-5" cx="1865.145" cy="464.6413" r="3.2944"/><circle class="homeSplash-cls-5" cx="1312.1447" cy="225.7741" r="3.2944"/><circle class="homeSplash-cls-5" cx="1373.2924" cy="619.0871" r="7.6869"/><circle class="homeSplash-cls-6" cx="1263.5523" cy="864.0684" r="7.6869"/><circle class="homeSplash-cls-7" cx="1501.4169" cy="101.983" r="7.6869"/><circle class="homeSplash-cls-7" cx="1845.116" cy="208.9064" r="3.2944"/><circle class="homeSplash-cls-7" cx="1205.1675" cy="1015.0771" r="3.2944"/><circle class="homeSplash-cls-8" cx="1857.2188" cy="833.4884" r="7.6869"/><circle class="homeSplash-cls-6" cx="1643.8225" cy="251.1533" r="5.2292"/><circle class="homeSplash-cls-6" cx="1645.7193" cy="594.1384" r="12.0311"/><circle class="homeSplash-cls-6" cx="1416.5771" cy="488.7314" r="12.0311"/><circle class="homeSplash-cls-7" cx="1292.1855" cy="666.8637" r="12.0311"/><circle class="homeSplash-cls-7" cx="1653.9037" cy="354.9089" r="12.0311"/><circle class="homeSplash-cls-7" cx="1097.8985" cy="895.5753" r="12.0311"/><circle class="homeSplash-cls-9" cx="1196.9831" cy="937.3922" r="12.0311"/><circle class="homeSplash-cls-9" cx="1392.2765" cy="87.341" r="12.0311"/><circle class="homeSplash-cls-9" cx="1772.5267" cy="888.4232" r="7.6869"/><circle class="homeSplash-cls-9" cx="1717.2051" cy="466.8824" r="3.2944"/><circle class="homeSplash-cls-9" cx="1166.3464" cy="759.2299" r="3.2944"/><circle class="homeSplash-cls-9" cx="1458.7825" cy="572.6069" r="3.2944"/><circle class="homeSplash-cls-9" cx="1020.3444" cy="995.682" r="3.2944"/><circle class="homeSplash-cls-9" cx="1885.6714" cy="909.6406" r="3.2944"/><circle class="homeSplash-cls-9" cx="1567.4047" cy="198.4857" r="3.2944"/><path class="homeSplash-cls-6" d="M1730.0273,782.3893H1470.8985a5.5121,5.5121,0,0,0-3.8976,1.6145l-8.0617,8.0618a.8623.8623,0,0,0,.1409,1.3342l264.22-.1358,8.0054-7.704A1.8429,1.8429,0,0,0,1730.0273,782.3893Z"/><path class="homeSplash-cls-6" d="M1716.3364,782.3893H1732.1a2.5,2.5,0,0,1,2.5,2.5v20.4821a0,0,0,0,1,0,0h-18.2634a0,0,0,0,1,0,0V782.3893A0,0,0,0,1,1716.3364,782.3893Z"/><path class="homeSplash-cls-10" d="M1644.9831,988.8316h3.0721a.7679.7679,0,0,1,.7679.7679v4.7675a0,0,0,0,1,0,0h-3.84a0,0,0,0,1,0,0v-5.5354A0,0,0,0,1,1644.9831,988.8316Z"/><path class="homeSplash-cls-11" d="M1648.8232,1006.0408V990.2874a.7076.7076,0,0,0-1.1448-.5564l-12.3724,9.72.1271,18.5137,11.2016-7.4217A5.726,5.726,0,0,0,1648.8232,1006.0408Z"/><path class="homeSplash-cls-6" d="M1546.1159,990.3059l-10.07,8.7024,99.26.443,11.9082-9.3556a.7076.7076,0,0,0-.4372-1.2641h-96.3981A6.9,6.9,0,0,0,1546.1159,990.3059Z"/><path class="homeSplash-cls-12" d="M1536.1137,998.8277h99.0643a.9217.9217,0,0,1,.9217.9217v17.5927a1.478,1.478,0,0,1-1.478,1.478h-97.045a2.3077,2.3077,0,0,1-2.3077-2.3077v-16.84A.8448.8448,0,0,1,1536.1137,998.8277Z"/><path class="homeSplash-cls-11" d="M1620.2772,998.5841l-63.3607-.03c-4.3674-.0021-6.7959-3.4694-5.4139-7.73l8.3539-25.7535a11.7615,11.7615,0,0,1,10.4263-7.7223l63.3607.03c4.3674.0021,6.7959,3.4694,5.4139,7.73l-8.3539,25.7536A11.7616,11.7616,0,0,1,1620.2772,998.5841Zm-51.6652-36.085a3.92,3.92,0,0,0-3.4754,2.5741l-8.354,25.7535a1.83,1.83,0,0,0,1.8047,2.5766l63.3607.03a3.9207,3.9207,0,0,0,3.4754-2.5741l8.354-25.7536a1.83,1.83,0,0,0-1.8047-2.5766Z"/><path class="homeSplash-cls-11" d="M1731.862,785.0242l-8.07,7.7662a1.6169,1.6169,0,0,0-.4957,1.1566l-4.6011,168.35,12.3171-8.2018a10.2736,10.2736,0,0,0,3.5875-7.8V786.1891A1.6167,1.6167,0,0,0,1731.862,785.0242Z"/><path class="homeSplash-cls-12" d="M1459.24,791.5255h262.3662a1.6938,1.6938,0,0,1,1.6938,1.6938V958.39a4.7995,4.7995,0,0,1-4.7995,4.7995H1462.28a4.9643,4.9643,0,0,1-4.9643-4.9643V793.45A1.9245,1.9245,0,0,1,1459.24,791.5255Z"/><rect class="homeSplash-cls-13" x="1464.329" y="797.0347" width="251.9571" height="160.6454" rx="5.1913"/><rect class="homeSplash-cls-9" x="1475.0653" y="816.9016" width="221.2379" height="141.0591" rx="2.3325"/><path class="homeSplash-cls-6" d="M1490.8424,831.3652l1.4717-.0517h2.9531v.6992h-4.4248Zm1.45-.4795a1.8562,1.8562,0,0,1,2.0459-2.0566,3.7627,3.7627,0,0,1,1.4609.292l-.1982.6475a2.7383,2.7383,0,0,0-1.1787-.24c-.9082,0-1.2735.5117-1.2735,1.3262v5.5312h-.8564Z"/><path class="homeSplash-cls-6" d="M1496.83,834.4648v-3.1513h.8662v3.0371c0,.95.334,1.4092,1.169,1.4092a2.0123,2.0123,0,0,0,1.5761-.9287v-3.5176h.8662v5.0722h-.7207l-.0722-.8867h-.042a2.4689,2.4689,0,0,1-1.89,1.0117C1497.3824,836.5107,1496.83,835.8008,1496.83,834.4648Z"/><path class="homeSplash-cls-6" d="M1503.2555,831.3135h.71l.0723.8554h.042a2.63,2.63,0,0,1,1.91-.98c1.2,0,1.7539.709,1.7539,2.0449v3.1523h-.8662v-3.0371c0-.96-.334-1.4091-1.1592-1.4091-.6055,0-1.0127.3027-1.5967.9082v3.538h-.8662Z"/><path class="homeSplash-cls-6" d="M1509.3785,833.86a2.6325,2.6325,0,0,1,2.8282-2.6719,2.579,2.579,0,0,1,1.8476.74l-.4277.5537a2.0924,2.0924,0,0,0-1.3887-.5742,1.863,1.863,0,0,0-1.9726,1.9522,1.8411,1.8411,0,0,0,1.9521,1.9306,2.413,2.413,0,0,0,1.5654-.6367l.3867.5635a3.0232,3.0232,0,0,1-2.0146.7929A2.5585,2.5585,0,0,1,1509.3785,833.86Z"/><path class="homeSplash-cls-6" d="M1516.9528,834.4131v-2.4h-1.44v-.6475l1.4717-.0517.1143-1.628h.7207v1.628h2.4834v.6992h-2.4834v2.4111c0,.9082.3027,1.377,1.2832,1.377a3.3353,3.3353,0,0,0,1.2109-.23l.1875.6367a4.4206,4.4206,0,0,1-1.5859.3027C1517.4322,836.5107,1516.9528,835.666,1516.9528,834.4131Z"/><path class="homeSplash-cls-6" d="M1524.3492,832.0127h-2.3486v-.6992h3.2148v5.0722h-.8662Zm-.3447-2.4316a.6893.6893,0,1,1,.6885.6679A.6522.6522,0,0,1,1524.0045,829.5811Z"/><path class="homeSplash-cls-6" d="M1527.9459,833.86a2.5089,2.5089,0,1,1,2.5049,2.65A2.4857,2.4857,0,0,1,1527.9459,833.86Zm4.1231,0c0-1.169-.6475-1.9522-1.6182-1.9522s-1.6172.7832-1.6172,1.9522c0,1.1582.6465,1.9306,1.6172,1.9306S1532.069,835.0186,1532.069,833.86Z"/><path class="homeSplash-cls-6" d="M1534.5494,831.3135h.71l.0732.8554h.0411a2.63,2.63,0,0,1,1.91-.98c1.2,0,1.7539.709,1.7539,2.0449v3.1523h-.8672v-3.0371c0-.96-.334-1.4091-1.1582-1.4091-.6054,0-1.0117.3027-1.5967.9082v3.538h-.8662Z"/><path class="homeSplash-cls-6" d="M1548.2672,833.4844a5.8079,5.8079,0,0,1,2.3379-4.7383l.4805.4385a5.5413,5.5413,0,0,0,0,8.6l-.4805.4385A5.8082,5.8082,0,0,1,1548.2672,833.4844Z"/><path class="homeSplash-cls-6" d="M1553.0963,835.7178l.3965-.5742a3.6163,3.6163,0,0,0,2.2021.6894c.8555,0,1.2735-.3555,1.2735-.7832,0-.3857-.1983-.6572-1.5762-.9394-1.3252-.2715-1.9834-.72-1.9834-1.4815,0-.8144.7207-1.44,2.1084-1.44a3.8124,3.8124,0,0,1,2.0459.6465l-.417.5537a2.99,2.99,0,0,0-1.7021-.5323c-.8555,0-1.168.3438-1.168.7305,0,.4385.4375.626,1.4814.8447,1.6807.3653,2.0879.7832,2.0879,1.5664,0,.8243-.8037,1.5127-2.2549,1.5127A4.4576,4.4576,0,0,1,1553.0963,835.7178Z"/><path class="homeSplash-cls-6" d="M1560.7643,834.4131v-2.4h-1.4405v-.6475l1.4717-.0517.1143-1.628h.7207v1.628h2.4834v.6992h-2.4834v2.4111c0,.9082.3027,1.377,1.2832,1.377a3.3353,3.3353,0,0,0,1.2109-.23l.1875.6367a4.4206,4.4206,0,0,1-1.5859.3027C1561.2438,836.5107,1560.7643,835.666,1560.7643,834.4131Z"/><path class="homeSplash-cls-6" d="M1565.7076,835.07c0-1.1377,1.0645-1.69,3.6846-1.8994a1.2042,1.2042,0,0,0-1.3467-1.2734,3.5372,3.5372,0,0,0-1.7744.6054l-.3447-.584a4.4491,4.4491,0,0,1,2.2656-.73,1.8848,1.8848,0,0,1,2.0664,2.0869v3.11h-.7207l-.0723-.6884h-.0322a3.4127,3.4127,0,0,1-1.9931.8134A1.5389,1.5389,0,0,1,1565.7076,835.07Zm3.6846-.01v-1.3154c-2.1709.167-2.8291.5947-2.8291,1.2627,0,.5742.5225.8037,1.1064.8037A2.77,2.77,0,0,0,1569.3922,835.0605Z"/><path class="homeSplash-cls-6" d="M1572.6451,831.3135h.72l.0839,1.2h.0206a2.6736,2.6736,0,0,1,2.2646-1.3252,2.1338,2.1338,0,0,1,1.002.208l-.1983.7412a2.5533,2.5533,0,0,0-.9394-.167,2.3788,2.3788,0,0,0-2.087,1.4512v2.9638h-.8662Z"/><path class="homeSplash-cls-6" d="M1579.5406,834.4131v-2.4h-1.44v-.6475l1.4717-.0517.1143-1.628h.7207v1.628h2.4834v.6992h-2.4834v2.4111c0,.9082.3027,1.377,1.2832,1.377a3.3353,3.3353,0,0,0,1.2109-.23l.1875.6367a4.4206,4.4206,0,0,1-1.5859.3027C1580.02,836.5107,1579.5406,835.666,1579.5406,834.4131Z"/><path class="homeSplash-cls-6" d="M1584.2018,832.9629c0-2.2129,1.2636-3.5488,3.0371-3.5488a2.518,2.518,0,0,1,1.89.8349l-.5009.5528a1.78,1.78,0,0,0-1.3887-.6153c-1.2832,0-2.1182,1.0537-2.1182,2.7549,0,1.7227.7617,2.7969,2.0977,2.7969a1.7078,1.7078,0,0,0,1.18-.3965v-1.7842h-1.3575v-.7207h2.1709v2.8809a2.8755,2.8755,0,0,1-2.0449.7929C1585.444,836.5107,1584.2018,835.1963,1584.2018,832.9629Z"/><path class="homeSplash-cls-6" d="M1591.4215,831.3135h.72l.084,1.2h.02a2.6738,2.6738,0,0,1,2.2647-1.3252,2.1336,2.1336,0,0,1,1.0019.208l-.1982.7412a2.5535,2.5535,0,0,0-.9395-.167,2.3788,2.3788,0,0,0-2.0869,1.4512v2.9638h-.8662Z"/><path class="homeSplash-cls-6" d="M1596.8766,833.8389a2.55,2.55,0,0,1,2.5879-2.65,2.1814,2.1814,0,0,1,2.3174,2.3789,3.5762,3.5762,0,0,1-.042.5224h-4.2891v-.6679h3.7773l-.2187.24c0-1.2012-.5947-1.7959-1.5234-1.7959a1.7877,1.7877,0,0,0-1.754,1.9727,1.8412,1.8412,0,0,0,1.9834,1.9834,2.7608,2.7608,0,0,0,1.545-.4805l.3125.5635a3.4764,3.4764,0,0,1-1.9619.6054A2.5674,2.5674,0,0,1,1596.8766,833.8389Z"/><path class="homeSplash-cls-6" d="M1603.26,835.07c0-1.1377,1.0644-1.69,3.6845-1.8994a1.2042,1.2042,0,0,0-1.3466-1.2734,3.5376,3.5376,0,0,0-1.7745.6054l-.3447-.584a4.4494,4.4494,0,0,1,2.2656-.73,1.8849,1.8849,0,0,1,2.0665,2.0869v3.11h-.7208l-.0722-.6884h-.0322a3.413,3.413,0,0,1-1.9932.8134A1.5389,1.5389,0,0,1,1603.26,835.07Zm3.6845-.01v-1.3154c-2.1709.167-2.8291.5947-2.8291,1.2627,0,.5742.5225.8037,1.1065.8037A2.77,2.77,0,0,0,1606.9449,835.0605Z"/><path class="homeSplash-cls-6" d="M1610.8346,834.4131v-2.4h-1.44v-.6475l1.4716-.0517.1143-1.628h.7207v1.628h2.4834v.6992h-2.4834v2.4111c0,.9082.3027,1.377,1.2832,1.377a3.3353,3.3353,0,0,0,1.2109-.23l.1875.6367a4.42,4.42,0,0,1-1.5859.3027C1611.3141,836.5107,1610.8346,835.666,1610.8346,834.4131Z"/><path class="homeSplash-cls-6" d="M1616.0074,829.5391h2.0664c1.5137,0,2.5362.5117,2.5362,2.0146,0,1.45-1.0332,2.1182-2.5362,2.1182h-1.1894v2.7138h-.877Zm1.962,3.4238c1.19,0,1.7646-.4385,1.7646-1.4092,0-.9814-.585-1.3047-1.7646-1.3047h-1.085v2.7139Z"/><path class="homeSplash-cls-6" d="M1622.7154,831.3135h.72l.084,1.2h.0205a2.6737,2.6737,0,0,1,2.2646-1.3252,2.1338,2.1338,0,0,1,1.002.208l-.1983.7412a2.5529,2.5529,0,0,0-.9394-.167,2.3787,2.3787,0,0,0-2.0869,1.4512v2.9638h-.8663Z"/><path class="homeSplash-cls-6" d="M1628.0865,833.86a2.5089,2.5089,0,1,1,2.5049,2.65A2.4857,2.4857,0,0,1,1628.0865,833.86Zm4.1231,0c0-1.169-.6475-1.9522-1.6182-1.9522s-1.6172.7832-1.6172,1.9522c0,1.1582.6465,1.9306,1.6172,1.9306S1632.21,835.0186,1632.21,833.86Z"/><path class="homeSplash-cls-6" d="M1634.2936,838.3066l.2812-.6474a2.7013,2.7013,0,0,0,1.1592.2812c1.002,0,1.2734-.5107,1.2734-1.3672v-4.5605h-2.3486v-.6992h3.2149v5.1972a1.869,1.869,0,0,1-2.13,2.14A3.3749,3.3749,0,0,1,1634.2936,838.3066Zm2.3691-8.7255a.6893.6893,0,1,1,.6885.6679A.6522.6522,0,0,1,1636.6627,829.5811Z"/><path class="homeSplash-cls-6" d="M1640.6881,833.8389a2.55,2.55,0,0,1,2.5879-2.65,2.1819,2.1819,0,0,1,2.3174,2.3789,3.4418,3.4418,0,0,1-.042.5224h-4.2891v-.6679h3.7774l-.2188.24c0-1.2012-.5947-1.7959-1.5234-1.7959a1.7876,1.7876,0,0,0-1.7539,1.9727,1.8406,1.8406,0,0,0,1.9834,1.9834,2.755,2.755,0,0,0,1.5439-.4805l.3135.5635a3.4739,3.4739,0,0,1-1.9619.6054A2.5679,2.5679,0,0,1,1640.6881,833.8389Z"/><path class="homeSplash-cls-6" d="M1647.0719,833.86a2.6324,2.6324,0,0,1,2.8281-2.6719,2.5793,2.5793,0,0,1,1.8477.74l-.4278.5537a2.092,2.092,0,0,0-1.3886-.5742,1.863,1.863,0,0,0-1.9727,1.9522,1.8412,1.8412,0,0,0,1.9522,1.9306,2.4133,2.4133,0,0,0,1.5654-.6367l.3867.5635a3.0234,3.0234,0,0,1-2.0146.7929A2.5585,2.5585,0,0,1,1647.0719,833.86Z"/><path class="homeSplash-cls-6" d="M1654.6461,834.4131v-2.4h-1.44v-.6475l1.4717-.0517.1142-1.628h.7207v1.628h2.4834v.6992h-2.4834v2.4111c0,.9082.3028,1.377,1.2832,1.377a3.3359,3.3359,0,0,0,1.211-.23l.1875.6367a4.4212,4.4212,0,0,1-1.586.3027C1655.1256,836.5107,1654.6461,835.666,1654.6461,834.4131Z"/><path class="homeSplash-cls-6" d="M1660.0279,837.7842a5.5413,5.5413,0,0,0,0-8.6l.48-.4385a5.9706,5.9706,0,0,1,0,9.4766Z"/><path class="homeSplash-cls-6" d="M1667.6744,836.584c0-.7617.1045-1.3154.1045-2.0147,0-.4062-.2812-.8037-1.5127-.8134v-.543c1.2315-.0108,1.5127-.4072,1.5127-.8145,0-.6572-.1045-1.2939-.1045-2.0136,0-1.0752.627-1.3887,1.9317-1.3887h.6465v.4912h-.543c-1.0645,0-1.294.27-1.294.9492,0,.5948.0625,1.2422.0625,1.89a.976.976,0,0,1-.9492,1.1367v.042a.9773.9773,0,0,1,.9492,1.1377c0,.71-.0625,1.2529-.0625,1.89,0,.6778.2295.9492,1.294.9492h.543v.4913h-.6465C1668.3014,837.9727,1667.6744,837.6592,1667.6744,836.584Z"/><path class="homeSplash-cls-6" d="M1491.2809,843.83h.72l.084,1.2h.0205a2.6737,2.6737,0,0,1,2.2646-1.3252,2.1338,2.1338,0,0,1,1.002.208l-.1982.7412a2.5535,2.5535,0,0,0-.94-.167,2.3788,2.3788,0,0,0-2.0869,1.4512v2.9638h-.8662Z"/><path class="homeSplash-cls-6" d="M1496.736,846.3555a2.55,2.55,0,0,1,2.5878-2.65,2.1813,2.1813,0,0,1,2.3174,2.3789,3.5762,3.5762,0,0,1-.042.5224h-4.289v-.6679h3.7773l-.2187.24c0-1.2-.5948-1.7959-1.5235-1.7959a1.7877,1.7877,0,0,0-1.7539,1.9727,1.8412,1.8412,0,0,0,1.9834,1.9834,2.768,2.768,0,0,0,1.5449-.4805l.3125.5635a3.4759,3.4759,0,0,1-1.9619.6054A2.5674,2.5674,0,0,1,1496.736,846.3555Z"/><path class="homeSplash-cls-6" d="M1503.12,847.5869c0-1.1377,1.0645-1.69,3.6846-1.8994a1.2042,1.2042,0,0,0-1.3467-1.2734,3.5372,3.5372,0,0,0-1.7744.6054l-.3447-.584a4.4494,4.4494,0,0,1,2.2656-.73,1.8848,1.8848,0,0,1,2.0664,2.0869v3.11h-.7207l-.0722-.6884h-.0323a3.4069,3.4069,0,0,1-1.9931.8134A1.5389,1.5389,0,0,1,1503.12,847.5869Zm3.6846-.01v-1.3154c-2.1709.167-2.8291.5947-2.8291,1.2627,0,.5742.5225.8037,1.1065.8037A2.77,2.77,0,0,0,1506.8043,847.5771Z"/><path class="homeSplash-cls-6" d="M1509.3785,846.377a2.6325,2.6325,0,0,1,2.8282-2.6719,2.579,2.579,0,0,1,1.8476.74l-.4277.5537a2.0968,2.0968,0,0,0-1.3887-.5742,1.863,1.863,0,0,0-1.9726,1.9522,1.8411,1.8411,0,0,0,1.9521,1.9306,2.413,2.413,0,0,0,1.5654-.6367l.3867.5635a3.0232,3.0232,0,0,1-2.0146.7929A2.5585,2.5585,0,0,1,1509.3785,846.377Z"/><path class="homeSplash-cls-6" d="M1516.9528,846.93v-2.4h-1.44v-.6475l1.4717-.0517.1143-1.628h.7207v1.628h2.4834v.6992h-2.4834V846.94c0,.9082.3027,1.378,1.2832,1.378a3.335,3.335,0,0,0,1.2109-.2305l.1875.6367a4.4206,4.4206,0,0,1-1.5859.3027C1517.4322,849.0273,1516.9528,848.1826,1516.9528,846.93Z"/><path class="homeSplash-cls-6" d="M1523.3473,848.1406a.8462.8462,0,1,1,.8447.8867A.8454.8454,0,0,1,1523.3473,848.1406Z"/><path class="homeSplash-cls-6" d="M1528.0612,848.2344l.3964-.5742a3.6166,3.6166,0,0,0,2.2022.6894c.8555,0,1.2734-.3555,1.2734-.7832,0-.3857-.1982-.6572-1.5762-.9394-1.3251-.2715-1.9833-.72-1.9833-1.4825,0-.8134.7207-1.4394,2.1083-1.4394a3.8121,3.8121,0,0,1,2.0459.6465l-.4169.5537a2.9906,2.9906,0,0,0-1.7022-.5323c-.8555,0-1.168.3438-1.168.7305,0,.4385.4375.626,1.4815.8447,1.6806.3663,2.0879.7832,2.0879,1.5664,0,.8243-.8037,1.5127-2.2549,1.5127A4.4576,4.4576,0,0,1,1528.0612,848.2344Z"/><path class="homeSplash-cls-6" d="M1535.7291,846.93v-2.4h-1.44v-.6475l1.4717-.0517.1142-1.628h.7207v1.628h2.4834v.6992h-2.4834V846.94c0,.9082.3028,1.378,1.2832,1.378a3.3356,3.3356,0,0,0,1.211-.2305l.1875.6367a4.4207,4.4207,0,0,1-1.586.3027C1536.2086,849.0273,1535.7291,848.1826,1535.7291,846.93Z"/><path class="homeSplash-cls-6" d="M1540.6725,847.5869c0-1.1377,1.0644-1.69,3.6845-1.8994a1.2042,1.2042,0,0,0-1.3466-1.2734,3.5369,3.5369,0,0,0-1.7744.6054l-.3448-.584a4.45,4.45,0,0,1,2.2657-.73,1.8849,1.8849,0,0,1,2.0664,2.0869v3.11h-.7207l-.0723-.6884h-.0322a3.4072,3.4072,0,0,1-1.9932.8134A1.5389,1.5389,0,0,1,1540.6725,847.5869Zm3.6845-.01v-1.3154c-2.1708.167-2.8291.5947-2.8291,1.2627,0,.5742.5225.8037,1.1065.8037A2.77,2.77,0,0,0,1544.357,847.5771Z"/><path class="homeSplash-cls-6" d="M1547.61,843.83h.72l.084,1.2h.02a2.6737,2.6737,0,0,1,2.2646-1.3252,2.1338,2.1338,0,0,1,1.002.208l-.1982.7412a2.5535,2.5535,0,0,0-.9395-.167,2.3788,2.3788,0,0,0-2.0869,1.4512v2.9638h-.8662Z"/><path class="homeSplash-cls-6" d="M1554.5055,846.93v-2.4h-1.44v-.6475l1.4716-.0517.1143-1.628h.7207v1.628h2.4834v.6992h-2.4834V846.94c0,.9082.3027,1.378,1.2832,1.378a3.335,3.335,0,0,0,1.2109-.2305l.1875.6367a4.42,4.42,0,0,1-1.5859.3027C1554.985,849.0273,1554.5055,848.1826,1554.5055,846.93Z"/><path class="homeSplash-cls-6" d="M1560.7848,846.001a5.8079,5.8079,0,0,1,2.3379-4.7383l.48.4385a5.5413,5.5413,0,0,0,0,8.6l-.48.4385A5.8082,5.8082,0,0,1,1560.7848,846.001Z"/><path class="homeSplash-cls-6" d="M1566.1461,850.3008a5.5413,5.5413,0,0,0,0-8.6l.48-.4385a5.9706,5.9706,0,0,1,0,9.4766Z"/><path class="homeSplash-cls-6" d="M1573.1774,850.583a1.8688,1.8688,0,0,0,1.3144-1.8271l-.1875-.96.585.8242a.7365.7365,0,0,1-.585.24.7471.7471,0,0,1-.8144-.7823.7783.7783,0,0,1,.8349-.7939c.6162,0,.9395.5117.9395,1.3359a2.566,2.566,0,0,1-1.8369,2.5049Zm.24-6.1787a.8462.8462,0,1,1,.8447.8867A.8453.8453,0,0,1,1573.4176,844.4043Z"/><path class="homeSplash-cls-6" d="M1490.7379,856.3477h.71l.0722.8554h.042a2.63,2.63,0,0,1,1.91-.98c1.2,0,1.7539.7089,1.7539,2.0449V861.42h-.8662v-3.0371c0-.96-.334-1.4092-1.1592-1.4092-.6055,0-1.0127.3028-1.5967.9082V861.42h-.8662Z"/><path class="homeSplash-cls-6" d="M1496.652,858.8945a2.5088,2.5088,0,1,1,2.5049,2.65A2.4856,2.4856,0,0,1,1496.652,858.8945Zm4.123,0c0-1.1689-.6474-1.9521-1.6181-1.9521s-1.6172.7832-1.6172,1.9521c0,1.1582.6465,1.9307,1.6172,1.9307S1500.775,860.0527,1500.775,858.8945Z"/><path class="homeSplash-cls-6" d="M1502.9108,858.8945a2.4415,2.4415,0,0,1,2.2968-2.6718,2.1778,2.1778,0,0,1,1.5235.6464h.0205l-.042-.9287v-1.9521h.8672V861.42h-.71l-.0732-.6679h-.0313a2.437,2.437,0,0,1-1.6592.7929C1503.7877,861.5449,1502.9108,860.585,1502.9108,858.8945Zm3.7988,1.169v-2.5264a1.88,1.88,0,0,0-1.3252-.584,1.7272,1.7272,0,0,0-1.5859,1.9307c0,1.2109.5634,1.9307,1.4921,1.9307A1.9128,1.9128,0,0,0,1506.71,860.0635Z"/><path class="homeSplash-cls-6" d="M1509.2535,858.873a2.55,2.55,0,0,1,2.5879-2.65,2.1814,2.1814,0,0,1,2.3174,2.3789,3.5762,3.5762,0,0,1-.042.5224h-4.289v-.6679h3.7773l-.2188.24c0-1.2-.5947-1.7959-1.5234-1.7959a1.7877,1.7877,0,0,0-1.7539,1.9726,1.8411,1.8411,0,0,0,1.9834,1.9834,2.768,2.768,0,0,0,1.5449-.48l.3125.5635a3.4769,3.4769,0,0,1-1.9619.6054A2.5675,2.5675,0,0,1,1509.2535,858.873Z"/><path class="homeSplash-cls-6" d="M1515.3766,863.34l.2812-.6464a2.7013,2.7013,0,0,0,1.1592.2812c1.002,0,1.2734-.5107,1.2734-1.3672v-4.56h-2.3486v-.6992h3.2149v5.1972a1.869,1.869,0,0,1-2.13,2.14A3.3609,3.3609,0,0,1,1515.3766,863.34Zm2.3691-8.7246a.6893.6893,0,1,1,.6885.668A.6522.6522,0,0,1,1517.7457,854.6152Z"/><path class="homeSplash-cls-6" d="M1521.8024,860.752l.3964-.5743a3.616,3.616,0,0,0,2.2022.69c.8555,0,1.2734-.3555,1.2734-.7832,0-.3858-.1982-.6572-1.5761-.9395-1.3252-.2715-1.9834-.72-1.9834-1.4824,0-.8135.7207-1.4394,2.1084-1.4394a3.8135,3.8135,0,0,1,2.0459.6464l-.417.5538a2.989,2.989,0,0,0-1.7012-.5323c-.8565,0-1.17.3438-1.17.7305,0,.4385.4384.626,1.4824.8447,1.6807.3662,2.0879.7832,2.0879,1.5664,0,.8242-.8037,1.5127-2.2549,1.5127A4.4576,4.4576,0,0,1,1521.8024,860.752Z"/><path class="homeSplash-cls-6" d="M1529.6061,860.6582a.8462.8462,0,1,1,.8447.8867A.8453.8453,0,0,1,1529.6061,860.6582Z"/><path class="homeSplash-cls-6" d="M1534.32,860.752l.3965-.5743a3.616,3.616,0,0,0,2.2022.69c.8554,0,1.2734-.3555,1.2734-.7832,0-.3858-.1982-.6572-1.5762-.9395-1.3252-.2715-1.9834-.72-1.9834-1.4824,0-.8135.7207-1.4394,2.1084-1.4394a3.8129,3.8129,0,0,1,2.0459.6464l-.417.5538a2.9884,2.9884,0,0,0-1.7011-.5323c-.8565,0-1.17.3438-1.17.7305,0,.4385.4384.626,1.4824.8447,1.6806.3662,2.0879.7832,2.0879,1.5664,0,.8242-.8037,1.5127-2.2549,1.5127A4.4582,4.4582,0,0,1,1534.32,860.752Z"/><path class="homeSplash-cls-6" d="M1541.9879,859.4473v-2.4h-1.44v-.6475l1.4717-.0517.1142-1.628h.7207v1.628h2.4834v.6992h-2.4834v2.4111c0,.9082.3028,1.3779,1.2832,1.3779a3.336,3.336,0,0,0,1.211-.23l.1875.6367a4.4212,4.4212,0,0,1-1.586.3027C1542.4674,861.5449,1541.9879,860.7,1541.9879,859.4473Z"/><path class="homeSplash-cls-6" d="M1546.9313,860.1045c0-1.1377,1.0644-1.69,3.6845-1.8994a1.2043,1.2043,0,0,0-1.3466-1.2735,3.5377,3.5377,0,0,0-1.7745.6055l-.3447-.584a4.4485,4.4485,0,0,1,2.2656-.73,1.8848,1.8848,0,0,1,2.0664,2.0869v3.11h-.7207l-.0732-.6885h-.0312a3.4066,3.4066,0,0,1-1.9932.8135A1.5389,1.5389,0,0,1,1546.9313,860.1045Zm3.6845-.01v-1.3154c-2.1709.167-2.8291.5947-2.8291,1.2627,0,.5742.5225.8037,1.1065.8037A2.77,2.77,0,0,0,1550.6158,860.0947Z"/><path class="homeSplash-cls-6" d="M1553.8688,856.3477h.72l.084,1.2h.0205a2.6735,2.6735,0,0,1,2.2646-1.3252,2.1338,2.1338,0,0,1,1.002.208l-.1983.7412a2.5526,2.5526,0,0,0-.9394-.167,2.3787,2.3787,0,0,0-2.0869,1.4512V861.42h-.8662Z"/><path class="homeSplash-cls-6" d="M1560.7643,859.4473v-2.4h-1.4405v-.6475l1.4717-.0517.1143-1.628h.7207v1.628h2.4834v.6992h-2.4834v2.4111c0,.9082.3027,1.3779,1.2832,1.3779a3.3351,3.3351,0,0,0,1.2109-.23l.1875.6367a4.4206,4.4206,0,0,1-1.5859.3027C1561.2438,861.5449,1560.7643,860.7,1560.7643,859.4473Z"/><path class="homeSplash-cls-6" d="M1567.0436,858.5186a5.8079,5.8079,0,0,1,2.3379-4.7383l.48.4385a5.5413,5.5413,0,0,0,0,8.6l-.48.4384A5.8079,5.8079,0,0,1,1567.0436,858.5186Z"/><path class="homeSplash-cls-6" d="M1572.4049,862.8184a5.5413,5.5413,0,0,0,0-8.6l.48-.4385a5.97,5.97,0,0,1,0,9.4765Z"/><path class="homeSplash-cls-6" d="M1579.4362,863.1006a1.8691,1.8691,0,0,0,1.3144-1.8272l-.1875-.96.584.8242a.7319.7319,0,0,1-.584.24.747.747,0,0,1-.8144-.7822.7783.7783,0,0,1,.8349-.7939c.6162,0,.94.5117.94,1.3359a2.5661,2.5661,0,0,1-1.8369,2.5049Zm.24-6.1787a.8462.8462,0,1,1,.8447.8867A.8453.8453,0,0,1,1579.6764,856.9219Z"/><path class="homeSplash-cls-6" d="M1490.8,875.0322h.5322c1.0645,0,1.3047-.2715,1.3047-.9492,0-.6367-.0625-1.18-.0625-1.89a.97.97,0,0,1,.9395-1.1377v-.042a.9687.9687,0,0,1-.9395-1.1367c0-.6475.0625-1.295.0625-1.89,0-.6787-.24-.9492-1.3047-.9492H1490.8v-.4912h.6367c1.3155,0,1.9209.3135,1.9209,1.3886,0,.72-.0947,1.3565-.0947,2.0137,0,.4072.2822.8037,1.5137.8145v.5429c-1.2315.01-1.5137.4073-1.5137.8135,0,.6992.0947,1.2529.0947,2.0147,0,1.0752-.6054,1.3886-1.9209,1.3886H1490.8Z"/><path class="homeSplash-cls-6" d="M1498.0719,875.6172a1.8689,1.8689,0,0,0,1.3144-1.8272l-.1875-.96.585.8242a.7364.7364,0,0,1-.585.24.747.747,0,0,1-.8144-.7822.7783.7783,0,0,1,.835-.7939c.6162,0,.9394.5117.9394,1.3359a2.5661,2.5661,0,0,1-1.8369,2.5049Zm.24-6.1787a.8462.8462,0,1,1,.8448.8867A.8454.8454,0,0,1,1498.3121,869.4385Z"/><rect class="homeSplash-cls-14" x="1447.3812" y="845.5536" width="207.4669" height="132.2789" rx="2.3325"/><path class="homeSplash-cls-9" d="M1634.8912,965.6084H1467.3385a.5.5,0,0,1-.5-.5v-106.83a.5.5,0,0,1,.5-.5h167.5527a.5.5,0,0,1,.5.5v106.83A.5.5,0,0,1,1634.8912,965.6084Zm-167.0527-1h166.5527v-105.83H1467.8385Z"/><path class="homeSplash-cls-9" d="M1546.6422,951.0752l-2.0967-2.0957a.3757.3757,0,0,1,.5313-.5313l1.5654,1.5664,12.6807-12.6826a.3757.3757,0,0,1,.5312.5313Z"/><path class="homeSplash-cls-9" d="M1546.68,954.3574a1.7814,1.7814,0,0,1-1.2608-.52l-3.0429-3.0439a5.3213,5.3213,0,0,1-1.5322-3.252l-3.1338-32.4736,3.3964,3.3965,2.8194,27.3818a4.5783,4.5783,0,0,0,1.3144,2.7666l2.7012,2.7012a1.7827,1.7827,0,0,1-1.2617,3.0439Zm-8.0225-37.2822,2.9326,30.3936a4.5768,4.5768,0,0,0,1.3174,2.7939l3.042,3.0439a1.0334,1.0334,0,0,0,1.461-1.4619l-2.7012-2.7011a5.34,5.34,0,0,1-1.5293-3.2217l-2.792-27.1162Z"/><path class="homeSplash-cls-9" d="M1571.9908,925.57a.375.375,0,0,1-.2656-.6406l12.6826-12.6807-1.5664-1.5654a3.919,3.919,0,0,0-2.3711-1.127l-27.3095-2.78a.3744.3744,0,0,1-.335-.4112.38.38,0,0,1,.4111-.3349l27.31,2.78a4.6831,4.6831,0,0,1,2.8262,1.3418l2.0957,2.0967-13.2119,13.2119A.3749.3749,0,0,1,1571.9908,925.57Z"/><path class="homeSplash-cls-9" d="M1586.9684,914.07a1.7756,1.7756,0,0,1-1.2617-.5215.3756.3756,0,1,1,.5312-.5312,1.0571,1.0571,0,0,0,1.4609,0,1.0342,1.0342,0,0,0,0-1.4619l-3.0419-3.0411a4.5767,4.5767,0,0,0-2.795-1.3173l-30.3925-2.9327,1.8242,1.8252a.375.375,0,1,1-.5313.5293l-3.3008-3.3017,32.4727,3.1338a5.3316,5.3316,0,0,1,3.2529,1.5322l3.042,3.042a1.7827,1.7827,0,0,1-1.2607,3.0449Z"/><path class="homeSplash-cls-9" d="M1563.0729,939.35c-.0635,0-.127-.0019-.19-.0049a4.1693,4.1693,0,0,1-2.7373-1.2383l-25.0927-25.0927c-2.74-2.7412-10.8155-12.7256-12.1895-16.4961l-3.0752-8.4424a1.8591,1.8591,0,0,1,2.3867-2.4414l8.3809,2.8652c4.042,1.3809,14.2,9.51,17.09,12.3985L1572.5,925.752a3.844,3.844,0,0,1,.2373,5.4121l-7.18,7.18A3.47,3.47,0,0,1,1563.0729,939.35Zm-42.58-51.53,3.0752,8.4424c1.3418,3.6826,9.3076,13.5137,12.0156,16.2207l25.0928,25.0928a3.0911,3.0911,0,0,0,4.35.2373l7.18-7.18a3.0912,3.0912,0,0,0-.2373-4.35l-24.8545-24.8545c-2.7735-2.7744-12.9268-10.8965-16.8008-12.2207l-8.3809-2.8652a1.1108,1.1108,0,0,0-1.4394,1.4765Z"/><path class="homeSplash-cls-9" d="M1557.361,935.3213l-2.0459-2.0459,12.3535-12.3535,2.0459,2.0459Zm-.9854-2.0459.9854.9853,11.2929-11.2929-.9853-.9854Z"/><path class="homeSplash-cls-9" d="M1569.4449,941.1855a4.3314,4.3314,0,0,1-3.0722-1.2695l-1.1045-1.1045a.3756.3756,0,0,1,.5312-.5312l1.1045,1.1045a3.5948,3.5948,0,0,0,5.083,0l1.791-1.792a3.6,3.6,0,0,0,0-5.084l-1.1035-1.1025a.375.375,0,0,1,.5293-.5313l1.1045,1.1035a4.3518,4.3518,0,0,1,.001,6.1445l-1.792,1.793A4.3376,4.3376,0,0,1,1569.4449,941.1855Z"/><path class="homeSplash-cls-9" d="M1524.8639,899.8379a.375.375,0,0,1-.2656-.6406l8.5527-8.5518a16.2153,16.2153,0,0,0-2.8379-1.4375.3746.3746,0,1,1,.2422-.709,18.4091,18.4091,0,0,1,3.3945,1.7569l.4024.249-9.2227,9.2236A.3745.3745,0,0,1,1524.8639,899.8379Z"/><path class="homeSplash-cls-9" d="M1634.15,871.8184H1467.3385a.5.5,0,0,1,0-1H1634.15a.5.5,0,0,1,0,1Z"/><path class="homeSplash-cls-9" d="M1474.3834,868.15a3.1363,3.1363,0,1,1,3.1367-3.1367A3.14,3.14,0,0,1,1474.3834,868.15Zm0-5.2725a2.1363,2.1363,0,1,0,2.1367,2.1358A2.138,2.138,0,0,0,1474.3834,862.8779Z"/><path class="homeSplash-cls-9" d="M1483.3922,868.15a3.1363,3.1363,0,1,1,3.1367-3.1367A3.14,3.14,0,0,1,1483.3922,868.15Zm0-5.2725a2.1363,2.1363,0,1,0,2.1367,2.1358A2.138,2.138,0,0,0,1483.3922,862.8779Z"/><path class="homeSplash-cls-9" d="M1492.402,868.15a3.1363,3.1363,0,1,1,3.1357-3.1367A3.14,3.14,0,0,1,1492.402,868.15Zm0-5.2725a2.1363,2.1363,0,1,0,2.1357,2.1358A2.1388,2.1388,0,0,0,1492.402,862.8779Z"/><path class="homeSplash-cls-9" d="M1621.4459,871.8184a.5.5,0,0,1-.5-.5v-13.04a.5.5,0,1,1,1,0v13.04A.5.5,0,0,1,1621.4459,871.8184Z"/><path class="homeSplash-cls-9" d="M1626.4781,867.64a.5.5,0,0,1-.3535-.8535l4.252-4.2519a.5.5,0,1,1,.707.707l-4.2519,4.252A.4987.4987,0,0,1,1626.4781,867.64Z"/><path class="homeSplash-cls-9" d="M1630.73,867.64a.4984.4984,0,0,1-.3535-.1464l-4.252-4.252a.5.5,0,1,1,.7071-.707l4.2519,4.2519a.5.5,0,0,1-.3535.8535Z"/><polygon class="homeSplash-cls-6" points="1513.209 958.391 1528.776 922.091 1534.465 925.352 1521.637 960.139 1513.209 958.391"/><path class="homeSplash-cls-8" d="M1525.0094,1003.0655l-28.7252-13.7166-4.6747-3.0307a39.2461,39.2461,0,0,1-7.4077-9.7523,2.8548,2.8548,0,0,1-.4107-2.5806c.4823-.9163,1.7161-1.0449,2.7511-1.08,8.616-.2931,17.4174-2.2413,24.4461-7.2326a26.979,26.979,0,0,0,10.9187-16.2258,2.9818,2.9818,0,0,0-4.33-3.2046c-10.0113,5.3444-20.9577,9.83-31.7042,6.9818a28.6592,28.6592,0,0,1-4.5306-1.65,144.0074,144.0074,0,0,0,.0271-30.8249c-1.5907-14.8569-6.0486-30.3569-17.2539-40.2414-13.8374-12.2065-34.6533-12.8415-52.5107-8.1968a58.0368,58.0368,0,0,0-17.8592,7.4709c-14.426,9.6684-20.9187,27.8159-22.27,45.13-1.0639,13.64.4736,27.3145,1.072,40.9942a29.5873,29.5873,0,0,1-12.8636,17.4237,29.914,29.914,0,0,1-29.2826.4474,2.0606,2.0606,0,0,0-3.04,2.2205,27.1322,27.1322,0,0,0,12.8181,17.747c7.8085,4.39,18.1279,4.1264,25.4628-.9986a.1145.1145,0,0,1,.1746.1328,54.2531,54.2531,0,0,1-19.5806,25.284,3.0944,3.0944,0,0,0,1.0351,5.504c15.2216,4.0521,33.3171-3.5428,40.0986-17.9863a40.0953,40.0953,0,0,1-8.5635,29.2146,2.7073,2.7073,0,0,0,2.705,4.3452,51.8276,51.8276,0,0,0,35.899-29.9485.9.9,0,0,1,1.7255.2156,62.58,62.58,0,0,1-4.4215,32.2317,3.6124,3.6124,0,0,0,3.6549,5.0066c7.7451-.8125,15.0456-6.0105,19.3685-12.7037,4.9594-7.6787,6.7076-16.9342,7.4449-26.09a.9355.9355,0,0,1,1.7926-.2926c4.248,9.8648,6.9864,17.8511,10.2317,27.4519,1.2252,3.6245,7.7018,8.4234,10.9739,7.4875,5.0481-1.4439,3.56-14.4479,2.1292-19.6546-1.9172-6.9755-4.35-8.3225-7.0054-15.8717a.6863.6863,0,0,1,1.1522-.69c9.5913,10.2526,20.4432,20.25,33.3458,23.7257a4.6054,4.6054,0,0,0,5.2119-6.7661c-2.6328-4.4648-6.4511-8.3937-10.1519-12.1038l-18.9772-19.0255a.418.418,0,0,1,.4517-.6847,180.6833,180.6833,0,0,0,31.3556,9.136c6.162,1.2039,12.9836,1.91,18.91.3775A4.2028,4.2028,0,0,0,1525.0094,1003.0655Z"/><path class="homeSplash-cls-15" d="M1525.0094,1003.0655l-28.7252-13.7166-4.6747-3.0307a39.2461,39.2461,0,0,1-7.4077-9.7523,2.8548,2.8548,0,0,1-.4107-2.5806c.4823-.9163,1.7161-1.0449,2.7511-1.08,8.616-.2931,17.4174-2.2413,24.4461-7.2326a26.979,26.979,0,0,0,10.9187-16.2258,2.9818,2.9818,0,0,0-4.33-3.2046c-10.0113,5.3444-20.9577,9.83-31.7042,6.9818a28.6592,28.6592,0,0,1-4.5306-1.65,144.0074,144.0074,0,0,0,.0271-30.8249c-1.5907-14.8569-6.0486-30.3569-17.2539-40.2414-13.8374-12.2065-34.6533-12.8415-52.5107-8.1968a58.0368,58.0368,0,0,0-17.8592,7.4709c-14.426,9.6684-20.9187,27.8159-22.27,45.13-1.0639,13.64.4736,27.3145,1.072,40.9942a29.5873,29.5873,0,0,1-12.8636,17.4237,29.914,29.914,0,0,1-29.2826.4474,2.0606,2.0606,0,0,0-3.04,2.2205,27.1322,27.1322,0,0,0,12.8181,17.747c7.8085,4.39,18.1279,4.1264,25.4628-.9986a.1145.1145,0,0,1,.1746.1328,54.2531,54.2531,0,0,1-19.5806,25.284,3.0944,3.0944,0,0,0,1.0351,5.504c15.2216,4.0521,33.3171-3.5428,40.0986-17.9863a40.0953,40.0953,0,0,1-8.5635,29.2146,2.7073,2.7073,0,0,0,2.705,4.3452,51.8276,51.8276,0,0,0,35.899-29.9485.9.9,0,0,1,1.7255.2156,62.58,62.58,0,0,1-4.4215,32.2317,3.6124,3.6124,0,0,0,3.6549,5.0066c7.7451-.8125,15.0456-6.0105,19.3685-12.7037,4.9594-7.6787,6.7076-16.9342,7.4449-26.09a.9355.9355,0,0,1,1.7926-.2926c4.248,9.8648,6.9864,17.8511,10.2317,27.4519,1.2252,3.6245,7.7018,8.4234,10.9739,7.4875,5.0481-1.4439,3.56-14.4479,2.1292-19.6546-1.9172-6.9755-4.35-8.3225-7.0054-15.8717a.6863.6863,0,0,1,1.1522-.69c9.5913,10.2526,20.4432,20.25,33.3458,23.7257a4.6054,4.6054,0,0,0,5.2119-6.7661c-2.6328-4.4648-6.4511-8.3937-10.1519-12.1038l-18.9772-19.0255a.418.418,0,0,1,.4517-.6847,180.6833,180.6833,0,0,0,31.3556,9.136c6.162,1.2039,12.9836,1.91,18.91.3775A4.2028,4.2028,0,0,0,1525.0094,1003.0655Z"/><path class="homeSplash-cls-16" d="M1461.7042,925.9037c.3637,2.9543,1.8321,3.0326,3.6047,2.8144s3.1781-.65,2.8144-3.6047-2.0955-5.1724-3.8681-4.9541S1461.3405,922.9493,1461.7042,925.9037Z"/><ellipse class="homeSplash-cls-17" cx="1450.7516" cy="939.6774" rx="6.4676" ry="3.2338" transform="translate(-103.9444 184.3005) rotate(-7.0182)"/><path class="homeSplash-cls-18" d="M1411.6049,872.3109a58.0378,58.0378,0,0,0-17.8592,7.4709c-14.4259,9.6684-20.9187,27.8159-22.27,45.13-1.064,13.64.4736,27.3145,1.072,40.9942a28.5065,28.5065,0,0,1-34.3027,20.7681,31.4242,31.4242,0,0,0,3.3749,1.48,28.1413,28.1413,0,0,0,22.8039-1.3869c7.5907-4.1588,12.5534-12.08,14.9712-20.3906s2.59-17.0868,2.66-25.7415c.0317-3.9653.3552-8.5591,3.5932-10.8489a12.0171,12.0171,0,0,1,3.5955-1.5277c10.51-3.1161,21.353-5.05,31.789-8.4067s20.6709-8.3143,28.0855-16.3889c6.6792-7.2732,10.7085-17.432,9.3258-27.1033C1444.9661,868.2286,1427.1636,868.2641,1411.6049,872.3109Z"/><polygon class="homeSplash-cls-12" points="1534.465 917.856 1528.776 922.091 1534.465 925.352 1534.465 917.856"/><path class="homeSplash-cls-19" d="M1452.9022,865.6342c-13.2991-20.8942-51.6185,4.4674-72.4424,17.9071-4.33,2.7943-8.538,5.9894-11.0651,10.2307s-3.8674,10.4692-.1457,13.7711c19.8619,17.6217,51.6092,9.0151,67.0147.9655C1442.5422,905.2279,1464.4121,883.7174,1452.9022,865.6342Z"/><g class="homeSplash-cls-2"><path class="homeSplash-cls-3" d="M1436.2635,902.8929c-15.4055,8.05-47.1524,16.6563-67.0146-.9654a6.5672,6.5672,0,0,1-1.93-3.0543c-.7561,3.23-.4574,6.5516,1.93,8.67,19.8622,17.6217,51.6091,9.0151,67.0146.9654,5.3179-2.7786,21.8146-18.6357,19.7456-34.4113C1454.307,887.8471,1440.9484,900.4451,1436.2635,902.8929Z"/></g><path class="homeSplash-cls-20" d="M1388.4328,898.2152c-24.4934-9.7195-10.0089-29.7807-47.7007-44.1913a4.144,4.144,0,0,1,.3555-7.84c23.1818-6.9056,49.0724-6.9425,68.3749,2.4075,10.6491,5.1583,21.2254,11.6213,27.6088,21.61,2.5169,3.9384,4.2849,9.1153,1.9919,13.1891a15.1077,15.1077,0,0,1-3.3329,3.7155c-5.3788,4.7677-11.1021,9.3734-17.8255,11.8926S1395.2869,900.9351,1388.4328,898.2152Z"/><g class="homeSplash-cls-2"><path class="homeSplash-cls-3" d="M1439.0631,878.7623a15.1115,15.1115,0,0,1-3.3327,3.7156c-5.3791,4.7676-11.1025,9.3733-17.8257,11.8926s-22.6179,1.9364-29.4722-.7835c-24.4929-9.72-10.0086-29.7807-47.7006-44.1913a4.03,4.03,0,0,1-1.9361-1.5231,4.1168,4.1168,0,0,0,1.9361,6.1512c37.692,14.4106,23.2077,34.4719,47.7006,44.1914,6.8543,2.72,22.749,3.3026,29.4722.7834s12.4466-7.1249,17.8257-11.8926a15.1111,15.1111,0,0,0,3.3327-3.7155,9.452,9.452,0,0,0,.7983-6.6853A8.0309,8.0309,0,0,1,1439.0631,878.7623Z"/></g><path class="homeSplash-cls-21" d="M1483.7914,973.9853c.4823-.9163,1.716-1.0449,2.7511-1.08,8.6159-.2931,17.4173-2.2413,24.446-7.2326a26.9821,26.9821,0,0,0,10.9188-16.2258,2.9457,2.9457,0,0,0-1.4382-3.1542,4.9066,4.9066,0,0,0-.7537,1.1742,30.2637,30.2637,0,0,1-20.72,16.8007c-3.1415.6922-6.4395.889-9.3622,2.2336S1483.3045,970.8053,1483.7914,973.9853Z"/><path class="homeSplash-cls-21" d="M1522.32,1010.2c-4.23.2991-12.9646-2.5672-17.0673-3.6373-9.9155-2.586-18.87-5.5028-30.9151-5.0348a180.6968,180.6968,0,0,0,31.3558,9.136c6.1618,1.2039,12.9832,1.91,18.91.3775a4.0093,4.0093,0,0,0,2.7679-2.4082C1525.3267,1009.5152,1523.1873,1010.52,1522.32,1010.2Z"/><path class="homeSplash-cls-21" d="M1467.717,1052.6775c-6.8774-6.2733-9.029-11.9995-12.6158-20.7862-.956-2.3415-5.7367-13.4019-8.1256-14.2319,4.2476,9.8648,6.986,17.8511,10.2315,27.4519C1458.3773,1048.5737,1464.3334,1053.0947,1467.717,1052.6775Z"/><path class="homeSplash-cls-21" d="M1422.9234,1042.8245a27.5931,27.5931,0,0,0,.8682-14.4947,20.197,20.197,0,0,0-4.6554-8.8227,62.5835,62.5835,0,0,1-4.4215,32.2316,3.5884,3.5884,0,0,0,.1594,3.1413A23.0336,23.0336,0,0,0,1422.9234,1042.8245Z"/><path class="homeSplash-cls-21" d="M1402.755,1031.0426c-2.6835,2.0329-5.0423,4.4551-7.5439,6.7083a77.06,77.06,0,0,1-15.8948,11.0388,2.6425,2.6425,0,0,0,2.1954.45,51.9634,51.9634,0,0,0,34.915-27.7845c.3367-.7546.6665-1.4847.9836-2.1641C1412.4777,1021.4241,1407.0385,1027.7973,1402.755,1031.0426Z"/><path class="homeSplash-cls-21" d="M1387.37,1015.68c-3.25,2.3878-13.06,9.7192-15.8007,11.4925-7.0172,4.54-17.9729,4.2023-26.61,3.2538a3.1181,3.1181,0,0,0,2.3121,3.24C1362.4927,1037.7186,1380.5887,1030.1237,1387.37,1015.68Z"/><path class="homeSplash-cls-21" d="M1366.7675,997.5989c-6.8924,3.0194-17.25,4.012-23.6461.0486-5.7545-3.5656-10.3181-8.6906-14.6789-13.8966a1.9983,1.9983,0,0,0-1.0813,2.2463,27.1327,27.1327,0,0,0,12.8185,17.7471c7.8085,4.3895,18.1278,4.1264,25.4627-.9986a.1144.1144,0,0,1,.1744.1328A5.5348,5.5348,0,0,0,1366.7675,997.5989Z"/><path class="homeSplash-cls-21" d="M1502.5949,1038.5893a39.2981,39.2981,0,0,1-12.9814-5.5281c-8.4617-5.59-17.4144-10.128-25.1565-16.6789,9.591,10.2526,20.4434,20.25,33.3456,23.7257A4.5789,4.5789,0,0,0,1502.5949,1038.5893Z"/><g class="homeSplash-cls-22"><path class="homeSplash-cls-23" d="M1424.3524,958.4606a7.5792,7.5792,0,0,0-4.0009,3.7506,11.593,11.593,0,0,0-1.2945,4.33c-.3758,4,1.7625,8.36,5.537,9.7362,4.0637,1.4811,8.9892-1.1237,10.4606-5.1909a10.2568,10.2568,0,0,0-3.8831-11.4357S1426.1207,957.8468,1424.3524,958.4606Z"/></g><g class="homeSplash-cls-22"><path class="homeSplash-cls-23" d="M1436.8862,980.6354a4.3256,4.3256,0,0,0-4.8981,4.3543,4.6476,4.6476,0,0,0,5.3334,4.0409,4.046,4.046,0,0,0,3.3-3.4869C1440.7345,983.8255,1436.8862,980.6354,1436.8862,980.6354Z"/></g><g class="homeSplash-cls-22"><path class="homeSplash-cls-23" d="M1419.7989,985.7047a6.458,6.458,0,0,0-9.9639,6.3778,10.4639,10.4639,0,0,0,.5248,1.8957c.9536,2.6543,2.5373,5.3581,5.1791,6.3457a6.927,6.927,0,0,0,7.3505-2.0441,9.4961,9.4961,0,0,0,2.0672-7.58,5.2511,5.2511,0,0,0-.669-2.0824,6.82,6.82,0,0,0-3.3586-2.3022Z"/></g><g class="homeSplash-cls-24"><path class="homeSplash-cls-25" d="M1397.3625,971.5365c-3.5495,5.06-7.2209,10.24-12.3707,13.658-2.7389,1.8177-6.1362,3.4638-6.9191,6.6564a5.459,5.459,0,0,0,4.5563,6.4489c1.65.1658,3.2634-.4527,4.888-.7867a10.0524,10.0524,0,0,1,5.9241.4057,6.2947,6.2947,0,0,1,3.7888,4.3825,27.4779,27.4779,0,0,1,.0411,4.144c.0582,1.3831.6115,2.9187,1.8946,3.4384,1.4856.6017,3.1141-.4394,4.2457-1.5746,2.6689-2.6775,4.7755-6.3861,8.4456-7.2931a8.7484,8.7484,0,0,1,6.6148,1.3531,23.1515,23.1515,0,0,1,5.0411,4.7272c.7631.8892,2.0888,1.8446,2.9452,1.0447a1.9781,1.9781,0,0,0,.4355-1.5658c-.1553-3.4935-2.1715-6.59-4.0682-9.5277-6.8-10.532-13.09-22.1792-12.9678-34.715.0544-5.568,1.3852-11.1507.5807-16.6606-.2952-2.0211-1.7318-4.5161-3.6791-3.9a3.5745,3.5745,0,0,0-1.5871,1.2885,22.3817,22.3817,0,0,0-4.6588,10.4963c-.5517,3.4893-.2665,7.055-.5494,10.5762A20.5724,20.5724,0,0,1,1397.3625,971.5365Z"/></g><path class="homeSplash-cls-5" d="M1518.0871,955.5747a3.5924,3.5924,0,0,0-3.9692,3.3975,2.3008,2.3008,0,0,0,.1787,1.0812,2.16,2.16,0,0,0,2.6228.9365,4.093,4.093,0,0,0,2.15-2.06,2.6821,2.6821,0,0,0,.3629-2.0274C1519.2163,956.2306,1518.0871,955.5747,1518.0871,955.5747Z"/><path class="homeSplash-cls-26" d="M1515.604,960.0534a2.3,2.3,0,0,1-.1787-1.0812,3.527,3.527,0,0,1,2.8028-3.3093c-.0828-.0532-.1409-.0882-.1409-.0882a3.5923,3.5923,0,0,0-3.9693,3.3975,2.3,2.3,0,0,0,.1786,1.0812,2.1405,2.1405,0,0,0,2.5207.9616A1.8466,1.8466,0,0,1,1515.604,960.0534Z"/><path class="homeSplash-cls-5" d="M1503.7882,968.0689a3.9169,3.9169,0,0,0-5.6962.0559,2.5074,2.5074,0,0,0-.6085,1.0283,2.3552,2.3552,0,0,0,1.5342,2.62,4.4636,4.4636,0,0,0,3.24-.2137,2.9246,2.9246,0,0,0,1.7239-1.439A3.8088,3.8088,0,0,0,1503.7882,968.0689Z"/><path class="homeSplash-cls-26" d="M1498.5755,970.0693a2.5074,2.5074,0,0,1,.6085-1.0283,3.8454,3.8454,0,0,1,4.66-.8c-.0318-.1024-.0558-.1723-.0558-.1723a3.9165,3.9165,0,0,0-5.6963.0557,2.5081,2.5081,0,0,0-.6085,1.0283,2.3338,2.3338,0,0,0,1.4314,2.57A2.0132,2.0132,0,0,1,1498.5755,970.0693Z"/><path class="homeSplash-cls-5" d="M1496.5826,1008.1745a5.3627,5.3627,0,0,0-2.1153-2.604,3.1067,3.1067,0,0,0-2.7511-.3393,1.6517,1.6517,0,0,0-.7931.6229,3.0314,3.0314,0,0,0,.6064,3.209,4.5927,4.5927,0,0,0,2.8165,1.5073,1.964,1.964,0,0,0,1.8528-.4131A3.9473,3.9473,0,0,0,1496.5826,1008.1745Z"/><path class="homeSplash-cls-26" d="M1491.6082,1007.2682a1.6522,1.6522,0,0,1,.7931-.6229,3.1057,3.1057,0,0,1,2.7511.3392,5.0017,5.0017,0,0,1,1.4318,1.3775c0-.1107-.0015-.1874-.0015-.1874a5.3648,5.3648,0,0,0-2.1154-2.6043,3.1073,3.1073,0,0,0-2.7511-.3392,1.6513,1.6513,0,0,0-.7931.6229,2.9849,2.9849,0,0,0,.5323,3.1086A2.212,2.212,0,0,1,1491.6082,1007.2682Z"/><path class="homeSplash-cls-5" d="M1420.6862,1036.0085a4.0617,4.0617,0,0,0,2.012-1.5526,2.3533,2.3533,0,0,0,.3091-2.077,1.251,1.251,0,0,0-.4567-.6124,2.2965,2.2965,0,0,0-2.4416.3985,3.4787,3.4787,0,0,0-1.1948,2.1043,1.4877,1.4877,0,0,0,.2777,1.411A2.9909,2.9909,0,0,0,1420.6862,1036.0085Z"/><path class="homeSplash-cls-26" d="M1421.4668,1032.2586a1.2522,1.2522,0,0,1,.4567.6124,2.3529,2.3529,0,0,1-.309,2.077,3.79,3.79,0,0,1-1.07,1.0581c.0838.0024.1419.0025.1419.0025a4.0634,4.0634,0,0,0,2.0123-1.5527,2.3538,2.3538,0,0,0,.309-2.077,1.2516,1.2516,0,0,0-.4567-.6124,2.2613,2.2613,0,0,0-2.3642.3443A1.6758,1.6758,0,0,1,1421.4668,1032.2586Z"/><path class="homeSplash-cls-5" d="M1403.2932,1035.208a5.3633,5.3633,0,0,1,.6073-3.2994,3.1069,3.1069,0,0,1,2.2514-1.6172,1.6518,1.6518,0,0,1,.9947.1663,3.0315,3.0315,0,0,1,1.0069,3.1067,4.5922,4.5922,0,0,1-1.7485,2.6733,1.9637,1.9637,0,0,1-1.824.5262C1403.9567,1036.5344,1403.2932,1035.208,1403.2932,1035.208Z"/><path class="homeSplash-cls-26" d="M1407.2236,1032.0271a1.6526,1.6526,0,0,0-.9947-.1662,3.1058,3.1058,0,0,0-2.2514,1.617,5.0034,5.0034,0,0,0-.5957,1.8954c-.0534-.0969-.0886-.1651-.0886-.1651a5.3651,5.3651,0,0,1,.6073-3.3,3.1071,3.1071,0,0,1,2.2514-1.617,1.6517,1.6517,0,0,1,.9947.1662,2.9846,2.9846,0,0,1,1.0237,2.983A2.2115,2.2115,0,0,0,1407.2236,1032.0271Z"/><path class="homeSplash-cls-5" d="M1393.2521,1042.7438a3.2566,3.2566,0,0,1,.8186-1.866,1.8869,1.8869,0,0,1,1.5562-.6425,1.0031,1.0031,0,0,1,.5649.2369,1.8411,1.8411,0,0,1,.1625,1.9769,2.79,2.79,0,0,1-1.406,1.3369,1.1929,1.1929,0,0,1-1.1517.057C1393.46,1043.62,1393.2521,1042.7438,1393.2521,1042.7438Z"/><path class="homeSplash-cls-26" d="M1396.0187,1041.4107a1.004,1.004,0,0,0-.5649-.2368,1.8866,1.8866,0,0,0-1.5562.6424,3.0388,3.0388,0,0,0-.6162,1.0376c-.018-.0648-.0294-.11-.0294-.11a3.2584,3.2584,0,0,1,.8187-1.8662,1.8871,1.8871,0,0,1,1.5562-.6424,1.004,1.004,0,0,1,.5649.2368,1.8131,1.8131,0,0,1,.19,1.9062A1.3432,1.3432,0,0,0,1396.0187,1041.4107Z"/><path class="homeSplash-cls-5" d="M1378.1647,1025.1934a3.2575,3.2575,0,0,1,.8186-1.866,1.8868,1.8868,0,0,1,1.5563-.6424,1.003,1.003,0,0,1,.5648.2368,1.8411,1.8411,0,0,1,.1626,1.9769,2.789,2.789,0,0,1-1.4061,1.3369,1.1927,1.1927,0,0,1-1.1516.057C1378.3722,1026.07,1378.1647,1025.1934,1378.1647,1025.1934Z"/><path class="homeSplash-cls-26" d="M1380.9313,1023.86a1.0037,1.0037,0,0,0-.5648-.2368,1.8868,1.8868,0,0,0-1.5563.6424,3.04,3.04,0,0,0-.6162,1.0376c-.018-.0648-.0293-.11-.0293-.11a3.2583,3.2583,0,0,1,.8186-1.8662,1.8876,1.8876,0,0,1,1.5562-.6424,1.0037,1.0037,0,0,1,.5649.2368,1.8129,1.8129,0,0,1,.19,1.9062A1.3432,1.3432,0,0,0,1380.9313,1023.86Z"/><path class="homeSplash-cls-5" d="M1355.6237,1032.9283a3.2575,3.2575,0,0,1,1.8345-.8869,1.887,1.887,0,0,1,1.6006.5226,1.0034,1.0034,0,0,1,.2756.547,1.8413,1.8413,0,0,1-1.1607,1.6085,2.79,2.79,0,0,1-1.9375.103,1.1927,1.1927,0,0,1-.9125-.7048C1355.212,1033.7295,1355.6237,1032.9283,1355.6237,1032.9283Z"/><path class="homeSplash-cls-26" d="M1358.5931,1033.7121a1.0035,1.0035,0,0,0-.2757-.547,1.8862,1.8862,0,0,0-1.6-.5226,3.0373,3.0373,0,0,0-1.1425.3885c.0284-.0609.0491-.1027.0491-.1027a3.2589,3.2589,0,0,1,1.8347-.887,1.8876,1.8876,0,0,1,1.6005.5226,1.0034,1.0034,0,0,1,.2756.547,1.8127,1.8127,0,0,1-1.0941,1.5724A1.3433,1.3433,0,0,0,1358.5931,1033.7121Z"/><path class="homeSplash-cls-5" d="M1369.6293,1030.9769a3.2569,3.2569,0,0,1,1.4573-1.4242,1.8869,1.8869,0,0,1,1.6836-.0136,1.0028,1.0028,0,0,1,.4352.431,1.8412,1.8412,0,0,1-.5888,1.8941,2.79,2.79,0,0,1-1.8042.7138,1.193,1.193,0,0,1-1.0893-.378A2.3977,2.3977,0,0,1,1369.6293,1030.9769Z"/><path class="homeSplash-cls-26" d="M1372.6938,1030.7757a1.0038,1.0038,0,0,0-.4353-.4309,1.8862,1.8862,0,0,0-1.6836.0135,3.0383,3.0383,0,0,0-.96.7316c.0075-.0668.0139-.1129.0139-.1129a3.2586,3.2586,0,0,1,1.4574-1.4244,1.8872,1.8872,0,0,1,1.6836-.0135,1.0031,1.0031,0,0,1,.4352.4309,1.8128,1.8128,0,0,1-.5372,1.8387A1.3436,1.3436,0,0,0,1372.6938,1030.7757Z"/><path class="homeSplash-cls-5" d="M1336.6922,997.7645a3.7337,3.7337,0,0,1,2.3211.261,2.163,2.163,0,0,1,1.2329,1.4849,1.15,1.15,0,0,1-.067.6989,2.1105,2.1105,0,0,1-2.1086.8507,3.1973,3.1973,0,0,1-1.942-1.0841,1.3676,1.3676,0,0,1-.4543-1.2412C1335.8033,998.29,1336.6922,997.7645,1336.6922,997.7645Z"/><path class="homeSplash-cls-26" d="M1339.093,1000.3393a1.1506,1.1506,0,0,0,.0669-.699,2.1625,2.1625,0,0,0-1.2328-1.4849,3.484,3.484,0,0,0-1.3454-.3213c.0647-.0418.11-.07.11-.07a3.7352,3.7352,0,0,1,2.3215.261,2.1636,2.1636,0,0,1,1.2328,1.4848,1.1505,1.1505,0,0,1-.067.699,2.0782,2.0782,0,0,1-2.0219.8564A1.54,1.54,0,0,0,1339.093,1000.3393Z"/><path class="homeSplash-cls-5" d="M1359.7005,1003.2486a3.7337,3.7337,0,0,1,1.7527-1.5439,2.1633,2.1633,0,0,1,1.9282.0843,1.15,1.15,0,0,1,.4727.5193,2.1108,2.1108,0,0,1-.7866,2.1334,3.1978,3.1978,0,0,1-2.1077.71,1.3676,1.3676,0,0,1-1.2246-.4973A2.7491,2.7491,0,0,1,1359.7005,1003.2486Z"/><path class="homeSplash-cls-26" d="M1363.2205,1003.2a1.15,1.15,0,0,0-.4727-.5192,2.1624,2.1624,0,0,0-1.9281-.0845,3.4835,3.4835,0,0,0-1.142.7807c.0126-.076.0227-.1285.0227-.1285a3.7347,3.7347,0,0,1,1.7529-1.5441,2.1631,2.1631,0,0,1,1.9281.0844,1.1508,1.1508,0,0,1,.4727.5192,2.0781,2.0781,0,0,1-.7241,2.073A1.54,1.54,0,0,0,1363.2205,1003.2Z"/><path class="homeSplash-cls-5" d="M1347.5791,1003.37a3.7332,3.7332,0,0,1,2.2664-.5651,2.1628,2.1628,0,0,1,1.6734.9614,1.15,1.15,0,0,1,.1811.6784c-.0511.6844-.8681,1.3485-1.6794,1.5329a3.1977,3.1977,0,0,1-2.1982-.3385,1.3676,1.3676,0,0,1-.8588-1.0047C1346.9294,1004.1727,1347.5791,1003.37,1347.5791,1003.37Z"/><path class="homeSplash-cls-26" d="M1350.7273,1004.9456a1.15,1.15,0,0,0-.1811-.6784,2.1626,2.1626,0,0,0-1.6734-.9615,3.4847,3.4847,0,0,0-1.373.1681c.0461-.0617.0792-.1036.0792-.1036a3.7348,3.7348,0,0,1,2.2666-.5653,2.163,2.163,0,0,1,1.6733.9615,1.15,1.15,0,0,1,.1811.6784c-.0494.661-.8134,1.2988-1.5962,1.5079A1.54,1.54,0,0,0,1350.7273,1004.9456Z"/><path class="homeSplash-cls-5" d="M1486.48,1032.7314a5.3634,5.3634,0,0,0-2.1153-2.6039,3.1066,3.1066,0,0,0-2.7512-.3393,1.6517,1.6517,0,0,0-.7931.6229,3.0313,3.0313,0,0,0,.6065,3.209,4.5927,4.5927,0,0,0,2.8164,1.5073,1.9642,1.9642,0,0,0,1.8529-.4131A3.9477,3.9477,0,0,0,1486.48,1032.7314Z"/><path class="homeSplash-cls-26" d="M1481.5058,1031.8252a1.6517,1.6517,0,0,1,.7931-.6229,3.1057,3.1057,0,0,1,2.7511.3392,5.0014,5.0014,0,0,1,1.4317,1.3775c0-.1107-.0014-.1874-.0014-.1874a5.3645,5.3645,0,0,0-2.1155-2.6043,3.1072,3.1072,0,0,0-2.7511-.3392,1.6522,1.6522,0,0,0-.7931.6229,2.9847,2.9847,0,0,0,.5324,3.1086A2.2115,2.2115,0,0,1,1481.5058,1031.8252Z"/><path class="homeSplash-cls-5" d="M1512.5492,1009.7623a2.8639,2.8639,0,0,0-4.1606-.194,1.833,1.833,0,0,0-.4866.7256,1.7219,1.7219,0,0,0,1.012,1.976,3.2635,3.2635,0,0,0,2.3739-.0224,2.1389,2.1389,0,0,0,1.3178-.9794A2.7857,2.7857,0,0,0,1512.5492,1009.7623Z"/><path class="homeSplash-cls-26" d="M1508.6614,1011.0077a1.8334,1.8334,0,0,1,.4866-.7256,2.812,2.812,0,0,1,3.4349-.3917c-.019-.0761-.0336-.1281-.0336-.1281a2.8639,2.8639,0,0,0-4.1607-.1941,1.8327,1.8327,0,0,0-.4866.7256,1.7064,1.7064,0,0,0,.939,1.9349A1.4719,1.4719,0,0,1,1508.6614,1011.0077Z"/><path class="homeSplash-cls-5" d="M1460.9379,1047.5331a2.864,2.864,0,0,0-2.8048-3.0791,1.834,1.834,0,0,0-.8572.169,1.7221,1.7221,0,0,0-.6817,2.1129,3.2638,3.2638,0,0,0,1.6945,1.6627,2.1382,2.1382,0,0,0,1.6243.2393C1460.443,1048.4491,1460.9379,1047.5331,1460.9379,1047.5331Z"/><path class="homeSplash-cls-26" d="M1457.3081,1045.6647a1.8327,1.8327,0,0,1,.8572-.1689,2.8116,2.8116,0,0,1,2.7058,2.1518c.04-.0672.0668-.1143.0668-.1143a2.8637,2.8637,0,0,0-2.8048-3.0793,1.8333,1.8333,0,0,0-.8571.1689,1.7064,1.7064,0,0,0-.7042,2.0322A1.472,1.472,0,0,1,1457.3081,1045.6647Z"/><path class="homeSplash-cls-5" d="M1417.4233,1048.9677a2.864,2.864,0,0,0,2.3653-3.4283,1.8334,1.8334,0,0,0-.3584-.7967,1.722,1.722,0,0,0-2.2123-.1864,3.2638,3.2638,0,0,0-1.2366,2.0265,2.1385,2.1385,0,0,0,.1341,1.6364A2.7854,2.7854,0,0,0,1417.4233,1048.9677Z"/><path class="homeSplash-cls-26" d="M1418.4227,1045.0095a1.8338,1.8338,0,0,1,.3584.7968,2.8115,2.8115,0,0,1-1.4845,3.1223c.0747.0241.1266.0392.1266.0392a2.8637,2.8637,0,0,0,2.3654-3.4283,1.8331,1.8331,0,0,0-.3583-.7968,1.7066,1.7066,0,0,0-2.1388-.2266A1.4723,1.4723,0,0,1,1418.4227,1045.0095Z"/><path class="homeSplash-cls-5" d="M1454.5232,1034.3022a2.1818,2.1818,0,0,0-.6417-3.1077,1.398,1.398,0,0,0-.6274-.2224,1.312,1.312,0,0,0-1.2678,1.12,2.4865,2.4865,0,0,0,.4644,1.7481,1.6294,1.6294,0,0,0,.9716.788A2.1221,2.1221,0,0,0,1454.5232,1034.3022Z"/><path class="homeSplash-cls-26" d="M1452.87,1031.6673a1.3964,1.3964,0,0,1,.6274.2224,2.1421,2.1421,0,0,1,.9371,2.4616c.0526-.0283.0882-.049.0882-.049a2.1819,2.1819,0,0,0-.6416-3.1079,1.3974,1.3974,0,0,0-.6274-.2223,1.3,1.3,0,0,0-1.2511,1.0582A1.1216,1.1216,0,0,1,1452.87,1031.6673Z"/><g class="homeSplash-cls-27"><path class="homeSplash-cls-4" d="M1431.0271,863.167c.0485-.07.0947-.1418.1426-.2118-6.11-6.076-13.8859-10.5747-21.7071-14.3633-13.2482-6.4172-29.5993-8.4111-46.048-6.799a55.5387,55.5387,0,0,1,28.1143,21.9391c3.0775,4.757,6.1214,10.5354,11.6772,11.6475a17.8693,17.8693,0,0,0,6.245-.2365c4.094-.6411,8.2648-1.3063,11.9654-3.1712A26.7737,26.7737,0,0,0,1431.0271,863.167Z"/></g><path class="homeSplash-cls-9" d="M1299.019,265.2064c.6364-.0408,1.2758-.0707,1.9157-.0994Q1299.9737,265.1472,1299.019,265.2064Z"/><g class="homeSplash-cls-28"><circle class="homeSplash-cls-13" cx="1787.6211" cy="755.1722" r="12.6395"/></g><circle class="homeSplash-cls-6" cx="1787.6211" cy="755.1722" r="3.4521"/><g class="homeSplash-cls-28"><circle class="homeSplash-cls-13" cx="1874.124" cy="71.4247" r="12.6395"/></g><circle class="homeSplash-cls-9" cx="1874.124" cy="71.4247" r="3.4521"/><g class="homeSplash-cls-28"><circle class="homeSplash-cls-13" cx="1492.7348" cy="675.0481" r="10.2237"/></g><circle class="homeSplash-cls-7" cx="1492.7348" cy="675.0481" r="3.4521"/><g class="homeSplash-cls-28"><circle class="homeSplash-cls-13" cx="1769.755" cy="485.2793" r="10.2237"/></g><circle class="homeSplash-cls-7" cx="1769.755" cy="485.2793" r="3.4521"/><g class="homeSplash-cls-28"><circle class="homeSplash-cls-13" cx="1490.382" cy="254.8897" r="16.1586"/></g><circle class="homeSplash-cls-6" cx="1490.382" cy="254.8897" r="5.456"/><circle class="homeSplash-cls-6" cx="1772.2099" cy="335.0254" r="5.456"/><circle class="homeSplash-cls-6" cx="1530.9899" cy="417.8247" r="3.7351"/><circle class="homeSplash-cls-9" cx="1265.6557" cy="553.5632" r="3.7351"/><circle class="homeSplash-cls-6" cx="923.0082" cy="973.9853" r="3.7351"/><g class="homeSplash-cls-29"><rect class="homeSplash-cls-6" width="1919.4381" height="58.7852"/></g><g class="homeSplash-cls-29"><rect class="homeSplash-cls-6" y="1020.8302" width="1919.4381" height="58.7852"/></g></g></g></svg>
