<svg xmlns="http://www.w3.org/2000/svg" viewBox="0 0 1079 607.12"><defs><style>.cls-1{fill:#799cf2;}.cls-1,.cls-2{opacity:0.9;}.cls-3{fill:#5c83e5;}.cls-4{fill:#94b5f7;}.cls-5{fill:#f4a44d;}.cls-33,.cls-6{fill:#f4ca60;}.cls-7{fill:#ff5757;}.cls-8{fill:#ff4c39;}.cls-9{fill:#6172ed;}.cls-10{fill:#a9d8d6;}.cls-11{fill:#ff8980;}.cls-12{fill:#fcd681;}.cls-13,.cls-32{fill:#3649a8;}.cls-14{fill:#fff;}.cls-15,.cls-16,.cls-17,.cls-18{fill:none;stroke:#6172ed;}.cls-15,.cls-16,.cls-17{stroke-linecap:round;}.cls-15{stroke-linejoin:round;}.cls-16,.cls-17,.cls-18{stroke-miterlimit:10;}.cls-16{stroke-width:0.75px;}.cls-19{fill:#fc7575;}.cls-20{fill:#282120;}.cls-21{fill:#f4997d;}.cls-22{fill:#fc6060;}.cls-23{fill:#7393e5;}.cls-24{fill:#6487f4;}.cls-25{fill:#ffc0ad;}.cls-26{opacity:0.7;}.cls-27{fill:#db4545;}.cls-28{opacity:0.1;}.cls-29{fill:#fcc2be;}.cls-30{fill:#ff8650;}.cls-31{opacity:0.5;}.cls-32{opacity:0.6;}.cls-33{opacity:0;}</style></defs><title>homeSplash2</title><g id="Layer_2" data-name="Layer 2"><g id="Layer_2-2" data-name="Layer 2"><path class="cls-1" d="M676.72,607.12H1079V585.84C950.6,527.35,799.65,534.43,676.72,607.12Z"/><g class="cls-2"><path class="cls-3" d="M744.62,593.53c9.45-2.11,19.25-1.8,28.89-2.7a114.88,114.88,0,0,0,25.81-5.46c6.8-2.27,13.37-5.18,19.92-8.08L888,546.84a434.91,434.91,0,0,0-211.31,60.28h46C727.49,599.84,736,595.46,744.62,593.53Z"/></g><g class="cls-2"><path class="cls-4" d="M1042.47,607.12a10.35,10.35,0,0,0-1-2.37c-6.06-10.67-19.27-15.32-31.54-15.65s-24.37,2.75-36.62,3.46c-32.92,1.9-65.1-13.29-98-11.1A94.7,94.7,0,0,0,817,607.12Z"/></g><circle class="cls-5" cx="732.25" cy="432.28" r="1.85"/><circle class="cls-5" cx="1048.48" cy="261.2" r="1.85"/><circle class="cls-5" cx="737.61" cy="126.92" r="1.85"/><circle class="cls-5" cx="771.99" cy="348.02" r="4.32"/><circle class="cls-6" cx="710.3" cy="485.73" r="4.32"/><circle class="cls-7" cx="844.01" cy="57.33" r="4.32"/><circle class="cls-7" cx="1037.22" cy="117.44" r="1.85"/><circle class="cls-7" cx="677.48" cy="570.62" r="1.85"/><circle class="cls-8" cx="1044.02" cy="468.54" r="4.32"/><circle class="cls-6" cx="924.06" cy="141.18" r="2.94"/><circle class="cls-6" cx="925.13" cy="333.99" r="6.76"/><circle class="cls-6" cx="796.32" cy="274.74" r="6.76"/><circle class="cls-7" cx="726.39" cy="374.87" r="6.76"/><circle class="cls-7" cx="929.73" cy="199.51" r="6.76"/><circle class="cls-7" cx="617.18" cy="503.44" r="6.76"/><circle class="cls-9" cx="672.88" cy="526.95" r="6.76"/><circle class="cls-9" cx="782.66" cy="49.1" r="6.76"/><circle class="cls-9" cx="996.41" cy="499.42" r="4.32"/><circle class="cls-9" cx="965.32" cy="262.45" r="1.85"/><circle class="cls-9" cx="655.65" cy="426.8" r="1.85"/><circle class="cls-9" cx="820.05" cy="321.89" r="1.85"/><circle class="cls-9" cx="573.58" cy="559.72" r="1.85"/><circle class="cls-9" cx="1060.02" cy="511.35" r="1.85"/><circle class="cls-9" cx="881.11" cy="111.58" r="1.85"/><path class="cls-6" d="M972.52,439.82H826.86a3.08,3.08,0,0,0-2.19.9l-4.54,4.53a.48.48,0,0,0,.08.75l148.53-.07,4.5-4.33A1,1,0,0,0,972.52,439.82Z"/><path class="cls-6" d="M964.83,439.82h7.77a2.5,2.5,0,0,1,2.5,2.5v10.42a0,0,0,0,1,0,0H964.83a0,0,0,0,1,0,0V439.82A0,0,0,0,1,964.83,439.82Z"/><path class="cls-10" d="M924.72,555.87h1.39a.77.77,0,0,1,.77.77V559a0,0,0,0,1,0,0h-2.16a0,0,0,0,1,0,0v-3.11A0,0,0,0,1,924.72,555.87Z"/><path class="cls-11" d="M926.88,565.54v-8.86a.4.4,0,0,0-.65-.31l-7,5.47.07,10.4,6.3-4.17A3.23,3.23,0,0,0,926.88,565.54Z"/><path class="cls-6" d="M869.14,556.69l-5.66,4.9,55.8.25,6.69-5.26a.4.4,0,0,0-.24-.71H871.54A3.91,3.91,0,0,0,869.14,556.69Z"/><path class="cls-12" d="M863.89,561.48H918.8a.92.92,0,0,1,.92.92v8.84a1.48,1.48,0,0,1-1.48,1.48h-52.9a2.31,2.31,0,0,1-2.31-2.31v-8.09A.84.84,0,0,1,863.89,561.48Z"/><path class="cls-11" d="M910.83,561.35l-35.62,0c-2.45,0-3.82-2-3-4.34l4.69-14.48a6.61,6.61,0,0,1,5.86-4.34h35.62c2.46,0,3.82,2,3,4.35L916.69,557A6.63,6.63,0,0,1,910.83,561.35Zm-29-20.29a2.21,2.21,0,0,0-2,1.45L875.14,557a1,1,0,0,0,1,1.45h35.62a2.2,2.2,0,0,0,2-1.44l4.7-14.48a1,1,0,0,0-1-1.45Z"/><path class="cls-11" d="M973.56,441.3,969,445.66a.9.9,0,0,0-.28.65L966.15,541l6.93-4.61a5.78,5.78,0,0,0,2-4.39V442A.9.9,0,0,0,973.56,441.3Z"/><path class="cls-12" d="M821.15,445H967a1.69,1.69,0,0,1,1.69,1.69v90a4.8,4.8,0,0,1-4.8,4.8H824.18a5,5,0,0,1-5-5V446.88A1.92,1.92,0,0,1,821.15,445Z"/><rect class="cls-13" x="823.16" y="448.05" width="141.64" height="90.31" rx="5.19"/><rect class="cls-9" x="829.2" y="459.22" width="124.37" height="79.3" rx="2.33"/><path class="cls-6" d="M838.06,467.35l.83,0h1.66v.39h-2.49Zm.82-.27a1,1,0,0,1,1.15-1.15,2.14,2.14,0,0,1,.82.16l-.11.36a1.57,1.57,0,0,0-.67-.13c-.51,0-.71.29-.71.74v3.11h-.48Z"/><path class="cls-6" d="M841.43,469.09v-1.77h.49V469c0,.53.18.79.65.79a1.16,1.16,0,0,0,.89-.52v-2h.48v2.85h-.4l0-.5h0a1.42,1.42,0,0,1-1.06.57C841.74,470.24,841.43,469.84,841.43,469.09Z"/><path class="cls-6" d="M845,467.32h.4l0,.48h0a1.47,1.47,0,0,1,1.07-.55c.67,0,1,.4,1,1.15v1.77h-.48v-1.71c0-.54-.19-.79-.65-.79a1.23,1.23,0,0,0-.9.51v2H845Z"/><path class="cls-6" d="M848.49,468.75a1.48,1.48,0,0,1,1.58-1.5,1.43,1.43,0,0,1,1,.42l-.24.31a1.16,1.16,0,0,0-.78-.32,1.09,1.09,0,1,0,0,2.17,1.36,1.36,0,0,0,.88-.35l.22.31a1.67,1.67,0,0,1-1.14.45A1.43,1.43,0,0,1,848.49,468.75Z"/><path class="cls-6" d="M852.74,469.06v-1.35h-.81v-.36l.83,0,.06-.91h.41v.91h1.39v.39h-1.39v1.36c0,.51.17.77.72.77a1.83,1.83,0,0,0,.68-.13l.1.36a2.52,2.52,0,0,1-.89.17C853,470.24,852.74,469.76,852.74,469.06Z"/><path class="cls-6" d="M856.9,467.71h-1.32v-.39h1.81v2.85h-.49Zm-.19-1.36a.39.39,0,0,1,.77,0,.39.39,0,0,1-.77,0Z"/><path class="cls-6" d="M858.92,468.75a1.41,1.41,0,1,1,1.41,1.49A1.4,1.4,0,0,1,858.92,468.75Zm2.32,0c0-.66-.36-1.09-.91-1.09s-.91.43-.91,1.09.37,1.08.91,1.08S861.24,469.4,861.24,468.75Z"/><path class="cls-6" d="M862.64,467.32H863l.05.48h0a1.48,1.48,0,0,1,1.07-.55c.68,0,1,.4,1,1.15v1.77h-.49v-1.71c0-.54-.19-.79-.65-.79a1.23,1.23,0,0,0-.9.51v2h-.48Z"/><path class="cls-6" d="M870.35,468.54a3.27,3.27,0,0,1,1.31-2.66l.27.25a3.1,3.1,0,0,0,0,4.82l-.27.25A3.27,3.27,0,0,1,870.35,468.54Z"/><path class="cls-6" d="M873.06,469.79l.23-.32a2,2,0,0,0,1.23.39c.48,0,.72-.2.72-.44s-.11-.37-.89-.53-1.11-.4-1.11-.83.4-.81,1.18-.81a2.15,2.15,0,0,1,1.15.36l-.23.31a1.73,1.73,0,0,0-1-.29c-.48,0-.66.19-.66.41s.25.35.84.47c.94.21,1.17.44,1.17.88s-.45.85-1.27.85A2.53,2.53,0,0,1,873.06,469.79Z"/><path class="cls-6" d="M877.37,469.06v-1.35h-.81v-.36l.83,0,.06-.91h.41v.91h1.39v.39h-1.39v1.36c0,.51.17.77.72.77a1.83,1.83,0,0,0,.68-.13l.1.36a2.52,2.52,0,0,1-.89.17C877.64,470.24,877.37,469.76,877.37,469.06Z"/><path class="cls-6" d="M880.15,469.43c0-.64.6-.95,2.07-1.07a.67.67,0,0,0-.75-.71,2,2,0,0,0-1,.34l-.19-.33a2.45,2.45,0,0,1,1.27-.41,1.06,1.06,0,0,1,1.16,1.17v1.75h-.41l0-.39h0a1.89,1.89,0,0,1-1.11.46C880.59,470.24,880.15,469.94,880.15,469.43Zm2.07,0v-.73c-1.22.09-1.59.33-1.59.71s.3.45.62.45A1.56,1.56,0,0,0,882.22,469.42Z"/><path class="cls-6" d="M884.05,467.32h.41l0,.67h0a1.49,1.49,0,0,1,1.27-.74,1.18,1.18,0,0,1,.56.12l-.11.41a1.55,1.55,0,0,0-.53-.09,1.34,1.34,0,0,0-1.17.81v1.67h-.49Z"/><path class="cls-6" d="M887.93,469.06v-1.35h-.81v-.36l.83,0,.06-.91h.4v.91h1.4v.39h-1.4v1.36c0,.51.17.77.73.77a1.74,1.74,0,0,0,.67-.13l.11.36a2.56,2.56,0,0,1-.89.17C888.2,470.24,887.93,469.76,887.93,469.06Z"/><path class="cls-6" d="M890.55,468.25c0-1.25.71-2,1.71-2a1.41,1.41,0,0,1,1.06.47L893,467a1,1,0,0,0-.77-.34c-.73,0-1.19.59-1.19,1.55s.42,1.57,1.17,1.57a1,1,0,0,0,.67-.23v-1h-.77v-.4h1.22v1.61a1.6,1.6,0,0,1-1.15.45C891.25,470.24,890.55,469.5,890.55,468.25Z"/><path class="cls-6" d="M894.61,467.32h.4l0,.67h0a1.5,1.5,0,0,1,1.27-.74,1.15,1.15,0,0,1,.56.12l-.11.41a1.5,1.5,0,0,0-.52-.09,1.35,1.35,0,0,0-1.18.81v1.67h-.48Z"/><path class="cls-6" d="M897.68,468.74a1.43,1.43,0,0,1,1.45-1.49,1.22,1.22,0,0,1,1.3,1.34,2.33,2.33,0,0,1,0,.29H898v-.38h2.12l-.12.14c0-.67-.34-1-.86-1a1,1,0,0,0-1,1.11,1,1,0,0,0,1.11,1.11,1.52,1.52,0,0,0,.87-.27l.17.32a1.92,1.92,0,0,1-1.1.34A1.43,1.43,0,0,1,897.68,468.74Z"/><path class="cls-6" d="M901.26,469.43c0-.64.6-.95,2.07-1.07a.67.67,0,0,0-.75-.71,2,2,0,0,0-1,.34l-.19-.33a2.45,2.45,0,0,1,1.27-.41,1.06,1.06,0,0,1,1.16,1.17v1.75h-.41l0-.39h0a1.89,1.89,0,0,1-1.12.46C901.7,470.24,901.26,469.94,901.26,469.43Zm2.07,0v-.73c-1.22.09-1.59.33-1.59.71s.3.45.63.45A1.56,1.56,0,0,0,903.33,469.42Z"/><path class="cls-6" d="M905.52,469.06v-1.35h-.81v-.36l.83,0,.06-.91H906v.91h1.39v.39H906v1.36c0,.51.17.77.72.77a1.83,1.83,0,0,0,.68-.13l.1.36a2.52,2.52,0,0,1-.89.17C905.79,470.24,905.52,469.76,905.52,469.06Z"/><path class="cls-6" d="M908.43,466.33h1.16c.85,0,1.42.28,1.42,1.13s-.58,1.19-1.42,1.19h-.67v1.52h-.49Zm1.1,1.92c.67,0,1-.25,1-.79s-.33-.74-1-.74h-.61v1.53Z"/><path class="cls-6" d="M912.2,467.32h.4l0,.67h0a1.51,1.51,0,0,1,1.27-.74,1.19,1.19,0,0,1,.57.12l-.11.41a1.55,1.55,0,0,0-.53-.09,1.34,1.34,0,0,0-1.17.81v1.67h-.49Z"/><path class="cls-6" d="M915.22,468.75a1.41,1.41,0,1,1,1.41,1.49A1.4,1.4,0,0,1,915.22,468.75Zm2.32,0c0-.66-.37-1.09-.91-1.09s-.91.43-.91,1.09.36,1.08.91,1.08S917.54,469.4,917.54,468.75Z"/><path class="cls-6" d="M918.71,471.25l.16-.37a1.49,1.49,0,0,0,.65.16c.56,0,.71-.29.71-.77v-2.56h-1.31v-.39h1.8v2.92a1.05,1.05,0,0,1-1.2,1.2A1.93,1.93,0,0,1,918.71,471.25Zm1.33-4.9a.39.39,0,0,1,.77,0,.39.39,0,0,1-.77,0Z"/><path class="cls-6" d="M922.31,468.74a1.43,1.43,0,0,1,1.45-1.49,1.22,1.22,0,0,1,1.3,1.34,2.33,2.33,0,0,1,0,.29h-2.41v-.38h2.12l-.12.14c0-.67-.34-1-.86-1a1,1,0,0,0-1,1.11,1,1,0,0,0,1.11,1.11,1.52,1.52,0,0,0,.87-.27l.17.32a1.92,1.92,0,0,1-1.1.34A1.43,1.43,0,0,1,922.31,468.74Z"/><path class="cls-6" d="M925.89,468.75a1.48,1.48,0,0,1,1.59-1.5,1.47,1.47,0,0,1,1,.42l-.24.31a1.18,1.18,0,0,0-.78-.32,1.09,1.09,0,1,0,0,2.17,1.36,1.36,0,0,0,.88-.35l.21.31a1.65,1.65,0,0,1-1.13.45A1.44,1.44,0,0,1,925.89,468.75Z"/><path class="cls-6" d="M930.15,469.06v-1.35h-.81v-.36l.83,0,.06-.91h.41v.91H932v.39h-1.39v1.36c0,.51.17.77.72.77a1.83,1.83,0,0,0,.68-.13l.1.36a2.52,2.52,0,0,1-.89.17C930.42,470.24,930.15,469.76,930.15,469.06Z"/><path class="cls-6" d="M933.18,471a3.1,3.1,0,0,0,0-4.82l.27-.25a3.36,3.36,0,0,1,0,5.32Z"/><path class="cls-6" d="M937.47,470.28c0-.43.06-.74.06-1.13,0-.23-.15-.45-.85-.46v-.3c.7,0,.85-.23.85-.46s-.06-.73-.06-1.13c0-.6.36-.78,1.09-.78h.36v.28h-.3c-.6,0-.73.15-.73.53s0,.7,0,1.06a.55.55,0,0,1-.54.64v0a.55.55,0,0,1,.54.64c0,.4,0,.7,0,1.06s.13.53.73.53h.3v.28h-.36C937.83,471.06,937.47,470.88,937.47,470.28Z"/><path class="cls-6" d="M838.31,474.36h.41l0,.67h0a1.52,1.52,0,0,1,1.28-.74,1.3,1.3,0,0,1,.56.11l-.11.42a1.55,1.55,0,0,0-.53-.09,1.32,1.32,0,0,0-1.17.81v1.66h-.49Z"/><path class="cls-6" d="M841.38,475.78a1.43,1.43,0,0,1,1.45-1.49,1.22,1.22,0,0,1,1.3,1.33,2.51,2.51,0,0,1,0,.3H841.7v-.38h2.12l-.12.14c0-.68-.34-1-.86-1a1,1,0,0,0-1,1.11,1,1,0,0,0,1.11,1.11,1.6,1.6,0,0,0,.87-.27l.18.32a2.06,2.06,0,0,1-1.11.34A1.45,1.45,0,0,1,841.38,475.78Z"/><path class="cls-6" d="M845,476.47c0-.64.59-1,2.07-1.07a.68.68,0,0,0-.76-.71,2,2,0,0,0-1,.34l-.19-.33a2.45,2.45,0,0,1,1.27-.41,1.06,1.06,0,0,1,1.16,1.17v1.74h-.4l0-.38h0a2,2,0,0,1-1.12.46A.86.86,0,0,1,845,476.47Zm2.07,0v-.74c-1.22.1-1.59.34-1.59.71s.29.45.62.45A1.56,1.56,0,0,0,847,476.46Z"/><path class="cls-6" d="M848.49,475.79a1.47,1.47,0,0,1,1.58-1.5,1.42,1.42,0,0,1,1,.41l-.24.31a1.16,1.16,0,0,0-.78-.32,1,1,0,0,0-1.11,1.1,1,1,0,0,0,1.1,1.08,1.37,1.37,0,0,0,.88-.36l.22.32a1.72,1.72,0,0,1-1.14.45A1.43,1.43,0,0,1,848.49,475.79Z"/><path class="cls-6" d="M852.74,476.1v-1.35h-.81v-.36l.83,0,.06-.92h.41v.92h1.39v.39h-1.39v1.35c0,.51.17.78.72.78a2.06,2.06,0,0,0,.68-.13l.1.36a2.52,2.52,0,0,1-.89.17C853,477.28,852.74,476.8,852.74,476.1Z"/><path class="cls-6" d="M856.34,476.78a.48.48,0,1,1,.47.5A.47.47,0,0,1,856.34,476.78Z"/><path class="cls-6" d="M859,476.83l.22-.32a2.08,2.08,0,0,0,1.24.38c.48,0,.71-.19.71-.44s-.11-.36-.88-.52-1.12-.41-1.12-.83.41-.81,1.19-.81a2.18,2.18,0,0,1,1.15.36l-.24.31a1.68,1.68,0,0,0-1-.3c-.48,0-.66.2-.66.41s.25.35.83.48c.95.2,1.17.44,1.17.88s-.45.85-1.26.85A2.48,2.48,0,0,1,859,476.83Z"/><path class="cls-6" d="M863.3,476.1v-1.35h-.81v-.36l.83,0,.06-.92h.4v.92h1.4v.39h-1.4v1.35c0,.51.17.78.73.78a2,2,0,0,0,.67-.13l.11.36a2.56,2.56,0,0,1-.89.17C863.57,477.28,863.3,476.8,863.3,476.1Z"/><path class="cls-6" d="M866.08,476.47c0-.64.6-1,2.07-1.07a.68.68,0,0,0-.76-.71,2,2,0,0,0-1,.34l-.19-.33a2.45,2.45,0,0,1,1.27-.41,1.06,1.06,0,0,1,1.16,1.17v1.74h-.4l0-.38h0a2,2,0,0,1-1.12.46A.86.86,0,0,1,866.08,476.47Zm2.07,0v-.74c-1.22.1-1.59.34-1.59.71s.29.45.62.45A1.56,1.56,0,0,0,868.15,476.46Z"/><path class="cls-6" d="M870,474.36h.4l0,.67h0a1.5,1.5,0,0,1,1.27-.74,1.27,1.27,0,0,1,.56.11l-.11.42a1.5,1.5,0,0,0-.52-.09,1.33,1.33,0,0,0-1.18.81v1.66H870Z"/><path class="cls-6" d="M873.85,476.1v-1.35h-.8v-.36l.82,0,.07-.92h.4v.92h1.39v.39h-1.39v1.35c0,.51.17.78.72.78a2,2,0,0,0,.68-.13l.11.36a2.61,2.61,0,0,1-.89.17C874.12,477.28,873.85,476.8,873.85,476.1Z"/><path class="cls-6" d="M877.38,475.58a3.25,3.25,0,0,1,1.32-2.66l.27.24a3.11,3.11,0,0,0,0,4.83l-.27.25A3.26,3.26,0,0,1,877.38,475.58Z"/><path class="cls-6" d="M880.4,478a3.11,3.11,0,0,0,0-4.83l.27-.24a3.36,3.36,0,0,1,0,5.32Z"/><path class="cls-6" d="M884.35,478.15a1,1,0,0,0,.74-1l-.11-.54.33.47a.42.42,0,0,1-.33.13.41.41,0,0,1-.45-.44.43.43,0,0,1,.47-.44c.34,0,.52.28.52.75a1.43,1.43,0,0,1-1,1.4Zm.14-3.47a.47.47,0,1,1,.94,0,.47.47,0,1,1-.94,0Z"/><path class="cls-6" d="M838,481.39h.39l.05.48h0a1.48,1.48,0,0,1,1.07-.55c.68,0,1,.4,1,1.15v1.77H840v-1.7c0-.54-.19-.8-.65-.8a1.23,1.23,0,0,0-.9.51v2H838Z"/><path class="cls-6" d="M841.33,482.82a1.41,1.41,0,1,1,2.81,0,1.41,1.41,0,1,1-2.81,0Zm2.32,0c0-.65-.37-1.09-.91-1.09s-.91.44-.91,1.09.36,1.09.91,1.09S843.65,483.47,843.65,482.82Z"/><path class="cls-6" d="M844.85,482.82a1.38,1.38,0,0,1,1.29-1.5,1.21,1.21,0,0,1,.85.37h0l0-.53v-1.09h.49v4.17h-.4l0-.37h0a1.35,1.35,0,0,1-.93.44C845.34,484.31,844.85,483.77,844.85,482.82Zm2.13.66v-1.42a1.07,1.07,0,0,0-.74-.33,1,1,0,0,0-.89,1.09c0,.68.31,1.08.84,1.08A1.06,1.06,0,0,0,847,483.48Z"/><path class="cls-6" d="M848.42,482.81a1.44,1.44,0,0,1,1.45-1.49,1.23,1.23,0,0,1,1.3,1.34,2.19,2.19,0,0,1,0,.29h-2.41v-.37h2.12l-.12.13c0-.67-.34-1-.86-1a1,1,0,0,0-1,1.11,1,1,0,0,0,1.11,1.11,1.59,1.59,0,0,0,.87-.26l.17.31a1.92,1.92,0,0,1-1.1.34A1.44,1.44,0,0,1,848.42,482.81Z"/><path class="cls-6" d="M851.86,485.32,852,485a1.47,1.47,0,0,0,.65.15c.56,0,.71-.28.71-.76v-2.56h-1.32v-.4h1.81v2.92a1.05,1.05,0,0,1-1.2,1.2A1.9,1.9,0,0,1,851.86,485.32Zm1.33-4.9a.39.39,0,0,1,.77,0,.39.39,0,0,1-.77,0Z"/><path class="cls-6" d="M855.47,483.87l.22-.33a2,2,0,0,0,1.24.39c.48,0,.71-.2.71-.44s-.11-.37-.88-.53-1.11-.4-1.11-.83.4-.81,1.18-.81a2.1,2.1,0,0,1,1.15.37l-.24.31a1.68,1.68,0,0,0-1-.3c-.48,0-.66.19-.66.41s.25.35.83.47c.95.21,1.18.44,1.18.88s-.46.85-1.27.85A2.5,2.5,0,0,1,855.47,483.87Z"/><path class="cls-6" d="M859.86,483.81a.47.47,0,0,1,.47-.49.5.5,0,0,1,0,1A.47.47,0,0,1,859.86,483.81Z"/><path class="cls-6" d="M862.51,483.87l.22-.33a2,2,0,0,0,1.24.39c.48,0,.71-.2.71-.44s-.11-.37-.88-.53-1.12-.4-1.12-.83.41-.81,1.19-.81a2.13,2.13,0,0,1,1.15.37l-.24.31a1.68,1.68,0,0,0-.95-.3c-.48,0-.66.19-.66.41s.25.35.83.47c.94.21,1.17.44,1.17.88s-.45.85-1.26.85A2.48,2.48,0,0,1,862.51,483.87Z"/><path class="cls-6" d="M866.82,483.13v-1.34H866v-.37l.82,0,.07-.91h.4v.91h1.4v.4h-1.4v1.35c0,.51.17.77.72.77a1.75,1.75,0,0,0,.68-.13l.11.36a2.35,2.35,0,0,1-.89.17C867.09,484.31,866.82,483.84,866.82,483.13Z"/><path class="cls-6" d="M869.6,483.5c0-.64.59-.95,2.07-1.06a.68.68,0,0,0-.76-.72,2.06,2.06,0,0,0-1,.34l-.19-.33a2.55,2.55,0,0,1,1.27-.41,1.06,1.06,0,0,1,1.16,1.17v1.75h-.4l0-.39h0a1.89,1.89,0,0,1-1.12.46A.86.86,0,0,1,869.6,483.5Zm2.07,0v-.74c-1.22.09-1.59.33-1.59.71s.29.45.62.45A1.56,1.56,0,0,0,871.67,483.5Z"/><path class="cls-6" d="M873.5,481.39h.4l.05.68h0a1.49,1.49,0,0,1,1.27-.75,1.15,1.15,0,0,1,.56.12l-.11.42a1.32,1.32,0,0,0-.53-.1,1.34,1.34,0,0,0-1.17.82v1.66h-.48Z"/><path class="cls-6" d="M877.37,483.13v-1.34h-.81v-.37l.83,0,.06-.91h.41v.91h1.39v.4h-1.39v1.35c0,.51.17.77.72.77a1.83,1.83,0,0,0,.68-.13l.1.36a2.31,2.31,0,0,1-.89.17C877.64,484.31,877.37,483.84,877.37,483.13Z"/><path class="cls-6" d="M880.9,482.61a3.25,3.25,0,0,1,1.32-2.66l.26.25a3.13,3.13,0,0,0,0,4.83l-.26.24A3.25,3.25,0,0,1,880.9,482.61Z"/><path class="cls-6" d="M883.92,485a3.11,3.11,0,0,0,0-4.83l.27-.25a3.36,3.36,0,0,1,0,5.32Z"/><path class="cls-6" d="M887.87,485.18a1,1,0,0,0,.74-1l-.11-.54.33.46a.4.4,0,0,1-.33.14.42.42,0,0,1-.45-.44.43.43,0,0,1,.46-.45c.35,0,.53.29.53.75a1.45,1.45,0,0,1-1,1.41Zm.13-3.46a.48.48,0,0,1,.48-.5.5.5,0,0,1,0,1A.48.48,0,0,1,888,481.72Z"/><path class="cls-6" d="M838,491.89h.3c.6,0,.73-.15.73-.53s0-.66,0-1.06.12-.57.52-.64v0c-.4-.07-.52-.26-.52-.64s0-.73,0-1.06-.13-.53-.73-.53H838v-.28h.36c.74,0,1.08.18,1.08.78,0,.4-.06.76-.06,1.13s.16.45.85.46v.3c-.69,0-.85.23-.85.46,0,.39.06.7.06,1.13,0,.6-.34.78-1.08.78H838Z"/><path class="cls-6" d="M842.13,492.22a1.05,1.05,0,0,0,.74-1l-.11-.54.33.46a.39.39,0,0,1-.33.13.42.42,0,0,1-.46-.43.44.44,0,0,1,.47-.45c.35,0,.53.29.53.75a1.45,1.45,0,0,1-1,1.41Zm.13-3.47a.48.48,0,1,1,1,0,.48.48,0,1,1-1,0Z"/><rect class="cls-14" x="813.64" y="475.32" width="116.63" height="74.36" rx="2.33"/><rect class="cls-15" x="824.85" y="482.48" width="94.19" height="60.05"/><polyline class="cls-16" points="868.41 533.31 869.43 534.34 876.71 527.07"/><path class="cls-16" d="M864.68,515l1.71,17.67a2.72,2.72,0,0,0,.8,1.7L868.9,536a.79.79,0,1,0,1.12-1.12l-1.52-1.51a2.79,2.79,0,0,1-.8-1.69l-1.58-15.32Z"/><path class="cls-16" d="M873.12,509.53l15.35,1.56a2.37,2.37,0,0,1,1.46.7l1,1-7.28,7.28"/><path class="cls-16" d="M873,509.5l-1.44-1.44,17.67,1.71a2.72,2.72,0,0,1,1.7.8l1.71,1.71a.79.79,0,0,1-1.12,1.12"/><path class="cls-16" d="M854.54,499.15l1.73,4.75c.75,2.07,5.21,7.61,6.8,9.2l14.1,14.1a1.94,1.94,0,0,0,2.75.13l4-4a1.94,1.94,0,0,0-.13-2.75l-14-14c-1.66-1.66-7.35-6.17-9.53-6.92l-4.71-1.61A.83.83,0,0,0,854.54,499.15Z"/><rect class="cls-16" x="873.66" y="521.14" width="9.4" height="1.21" transform="translate(-111.66 773.91) rotate(-45)"/><path class="cls-16" d="M884.22,523.43l.62.63a2.23,2.23,0,0,1,0,3.15l-1,1a2.23,2.23,0,0,1-3.15,0l-.63-.62"/><path class="cls-16" d="M857.19,505.63l5-5a10.59,10.59,0,0,0-1.87-1"/><line class="cls-17" x1="824.85" y1="489.81" x2="918.63" y2="489.81"/><circle class="cls-18" cx="828.82" cy="486.26" r="1.48"/><circle class="cls-18" cx="833.88" cy="486.26" r="1.48"/><circle class="cls-18" cx="838.94" cy="486.26" r="1.48"/><line class="cls-17" x1="911.49" y1="482.48" x2="911.49" y2="489.81"/><line class="cls-17" x1="916.7" y1="485.07" x2="914.31" y2="487.46"/><line class="cls-17" x1="914.31" y1="485.07" x2="916.7" y2="487.46"/><polygon class="cls-6" points="850.64 538.75 859.39 518.35 862.59 520.18 855.38 539.74 850.64 538.75"/><path class="cls-8" d="M857.27,563.87l-16.14-7.71-2.63-1.71a22.09,22.09,0,0,1-4.17-5.48,1.63,1.63,0,0,1-.23-1.45c.27-.52,1-.59,1.55-.61,4.84-.16,9.79-1.26,13.74-4.06a15.16,15.16,0,0,0,6.14-9.12,1.68,1.68,0,0,0-2.43-1.81c-5.63,3-11.78,5.53-17.83,3.93a17.12,17.12,0,0,1-2.54-.93,81,81,0,0,0,0-17.33c-.89-8.35-3.4-17.06-9.7-22.62-7.78-6.86-19.48-7.22-29.52-4.61a32.61,32.61,0,0,0-10,4.2C775.38,500,771.73,510.2,771,519.93c-.6,7.67.26,15.36.6,23.05a16.62,16.62,0,0,1-7.23,9.79,16.79,16.79,0,0,1-16.46.25,1.16,1.16,0,0,0-1.71,1.25,15.25,15.25,0,0,0,7.2,10,13.79,13.79,0,0,0,14.32-.56.06.06,0,0,1,.1.07,30.51,30.51,0,0,1-11,14.22,1.74,1.74,0,0,0,.58,3.09c8.56,2.28,18.73-2,22.54-10.11a22.54,22.54,0,0,1-4.81,16.42,1.52,1.52,0,0,0,1.52,2.44A29.14,29.14,0,0,0,796.79,573a.5.5,0,0,1,1,.12,35.13,35.13,0,0,1-2.49,18.12,2,2,0,0,0,2.06,2.81c4.35-.45,8.46-3.38,10.89-7.14,2.78-4.32,3.77-9.52,4.18-14.66a.53.53,0,0,1,1-.17c2.39,5.55,3.93,10,5.75,15.43.69,2,4.33,4.74,6.17,4.21,2.84-.81,2-8.12,1.2-11.05-1.08-3.92-2.45-4.68-3.94-8.92a.39.39,0,0,1,.65-.39c5.39,5.77,11.49,11.39,18.74,13.34a2.59,2.59,0,0,0,2.93-3.8,36.22,36.22,0,0,0-5.71-6.81l-10.66-10.69a.24.24,0,0,1,.25-.39,101.74,101.74,0,0,0,17.63,5.14c3.46.68,7.29,1.07,10.63.21A2.36,2.36,0,0,0,857.27,563.87Z"/><path class="cls-19" d="M857.27,563.87l-16.14-7.71-2.63-1.71a22.09,22.09,0,0,1-4.17-5.48,1.63,1.63,0,0,1-.23-1.45c.27-.52,1-.59,1.55-.61,4.84-.16,9.79-1.26,13.74-4.06a15.16,15.16,0,0,0,6.14-9.12,1.68,1.68,0,0,0-2.43-1.81c-5.63,3-11.78,5.53-17.83,3.93a17.12,17.12,0,0,1-2.54-.93,81,81,0,0,0,0-17.33c-.89-8.35-3.4-17.06-9.7-22.62-7.78-6.86-19.48-7.22-29.52-4.61a32.61,32.61,0,0,0-10,4.2C775.38,500,771.73,510.2,771,519.93c-.6,7.67.26,15.36.6,23.05a16.62,16.62,0,0,1-7.23,9.79,16.79,16.79,0,0,1-16.46.25,1.16,1.16,0,0,0-1.71,1.25,15.25,15.25,0,0,0,7.2,10,13.79,13.79,0,0,0,14.32-.56.06.06,0,0,1,.1.07,30.51,30.51,0,0,1-11,14.22,1.74,1.74,0,0,0,.58,3.09c8.56,2.28,18.73-2,22.54-10.11a22.54,22.54,0,0,1-4.81,16.42,1.52,1.52,0,0,0,1.52,2.44A29.14,29.14,0,0,0,796.79,573a.5.5,0,0,1,1,.12,35.13,35.13,0,0,1-2.49,18.12,2,2,0,0,0,2.06,2.81c4.35-.45,8.46-3.38,10.89-7.14,2.78-4.32,3.77-9.52,4.18-14.66a.53.53,0,0,1,1-.17c2.39,5.55,3.93,10,5.75,15.43.69,2,4.33,4.74,6.17,4.21,2.84-.81,2-8.12,1.2-11.05-1.08-3.92-2.45-4.68-3.94-8.92a.39.39,0,0,1,.65-.39c5.39,5.77,11.49,11.39,18.74,13.34a2.59,2.59,0,0,0,2.93-3.8,36.22,36.22,0,0,0-5.71-6.81l-10.66-10.69a.24.24,0,0,1,.25-.39,101.74,101.74,0,0,0,17.63,5.14c3.46.68,7.29,1.07,10.63.21A2.36,2.36,0,0,0,857.27,563.87Z"/><path class="cls-20" d="M821.69,520.49c.2,1.66,1,1.71,2,1.58s1.79-.36,1.59-2-1.18-2.91-2.18-2.79S821.48,518.83,821.69,520.49Z"/><ellipse class="cls-21" cx="815.53" cy="528.23" rx="3.64" ry="1.82" transform="translate(-58.43 103.6) rotate(-7.02)"/><path class="cls-22" d="M793.52,490.36a32.61,32.61,0,0,0-10,4.2C775.38,500,771.73,510.2,771,519.93c-.6,7.67.26,15.36.6,23.05a16,16,0,0,1-19.28,11.67,16.1,16.1,0,0,0,14.71.05c4.27-2.33,7.06-6.79,8.42-11.46s1.45-9.6,1.49-14.47c0-2.23.2-4.81,2-6.1a7,7,0,0,1,2-.86c5.91-1.75,12-2.83,17.87-4.72s11.62-4.68,15.79-9.21c3.76-4.09,6-9.8,5.25-15.24C812.28,488.07,802.27,488.09,793.52,490.36Z"/><polygon class="cls-12" points="862.59 515.97 859.39 518.35 862.59 520.18 862.59 515.97"/><path class="cls-23" d="M816.74,486.61c-7.48-11.74-29,2.51-40.72,10.07a18.71,18.71,0,0,0-6.22,5.75c-1.42,2.38-2.18,5.88-.09,7.74,11.17,9.91,29,5.07,37.68.54C810.92,508.87,823.21,496.78,816.74,486.61Z"/><g class="cls-2"><path class="cls-3" d="M807.39,507.56c-8.66,4.52-26.51,9.36-37.68-.55a3.76,3.76,0,0,1-1.08-1.71c-.43,1.81-.26,3.68,1.08,4.87,11.17,9.91,29,5.07,37.68.54,3-1.56,12.26-10.47,11.1-19.34C817.53,499.1,810,506.18,807.39,507.56Z"/></g><path class="cls-24" d="M780.5,504.93c-13.77-5.47-5.63-16.75-26.82-24.85a2.33,2.33,0,0,1,.2-4.4c13-3.88,27.59-3.91,38.44,1.35,6,2.9,11.93,6.53,15.52,12.15,1.42,2.21,2.41,5.12,1.12,7.41a8.46,8.46,0,0,1-1.87,2.09c-3,2.68-6.24,5.27-10,6.69S784.35,506.45,780.5,504.93Z"/><g class="cls-2"><path class="cls-3" d="M809,494a8.46,8.46,0,0,1-1.87,2.09c-3,2.68-6.24,5.27-10,6.68s-12.72,1.09-16.57-.44c-13.77-5.46-5.63-16.74-26.82-24.84a2.22,2.22,0,0,1-1.08-.85,2.3,2.3,0,0,0,1.08,3.45c21.19,8.1,13.05,19.38,26.82,24.85,3.85,1.52,12.79,1.85,16.57.44s7-4,10-6.69a8.46,8.46,0,0,0,1.87-2.09,5.31,5.31,0,0,0,.45-3.76A4.57,4.57,0,0,1,809,494Z"/></g><path class="cls-25" d="M834.1,547.52c.28-.52,1-.59,1.55-.61,4.84-.16,9.79-1.26,13.74-4.06a15.16,15.16,0,0,0,6.14-9.12,1.67,1.67,0,0,0-.81-1.78,2.93,2.93,0,0,0-.42.66,17.05,17.05,0,0,1-11.65,9.45,25.85,25.85,0,0,0-5.26,1.25C835.75,544.07,833.83,545.73,834.1,547.52Z"/><path class="cls-25" d="M855.76,567.88c-2.38.17-7.29-1.45-9.59-2-5.58-1.45-10.61-3.09-17.38-2.83a101.74,101.74,0,0,0,17.63,5.14c3.46.68,7.29,1.07,10.63.21A2.24,2.24,0,0,0,858.6,567C857.45,567.49,856.25,568.06,855.76,567.88Z"/><path class="cls-25" d="M825.07,591.76C821.2,588.23,820,585,818,580.07c-.54-1.32-3.23-7.53-4.57-8,2.39,5.55,3.93,10,5.75,15.43C819.82,589.45,823.17,592,825.07,591.76Z"/><path class="cls-25" d="M799.89,586.22a15.57,15.57,0,0,0,.49-8.15,11.4,11.4,0,0,0-2.62-5,35.13,35.13,0,0,1-2.49,18.12,2,2,0,0,0,.09,1.76A13,13,0,0,0,799.89,586.22Z"/><path class="cls-25" d="M788.55,579.59c-1.51,1.15-2.83,2.51-4.24,3.78a43.14,43.14,0,0,1-8.94,6.2,1.5,1.5,0,0,0,1.24.25,29.2,29.2,0,0,0,19.63-15.62c.18-.42.37-.83.55-1.21C794,574.19,791,577.77,788.55,579.59Z"/><path class="cls-25" d="M779.9,571c-1.83,1.34-7.34,5.46-8.88,6.46-3.95,2.55-10.1,2.36-15,1.83a1.76,1.76,0,0,0,1.3,1.82C765.92,583.35,776.09,579.08,779.9,571Z"/><path class="cls-25" d="M768.32,560.79c-3.87,1.7-9.7,2.26-13.29,0a35.53,35.53,0,0,1-8.25-7.81,1.11,1.11,0,0,0-.61,1.26,15.25,15.25,0,0,0,7.2,10,13.79,13.79,0,0,0,14.32-.56.06.06,0,0,1,.1.07A3.14,3.14,0,0,0,768.32,560.79Z"/><path class="cls-25" d="M844.67,583.84a22.21,22.21,0,0,1-7.29-3.11c-4.76-3.14-9.79-5.69-14.14-9.38,5.39,5.77,11.49,11.39,18.74,13.34A2.57,2.57,0,0,0,844.67,583.84Z"/><g class="cls-26"><path class="cls-27" d="M800.69,538.79a4.29,4.29,0,0,0-2.25,2.11,6.51,6.51,0,0,0-.73,2.44,5.31,5.31,0,0,0,3.12,5.47,4.82,4.82,0,0,0,5.88-2.92,5.78,5.78,0,0,0-2.19-6.43S801.68,538.45,800.69,538.79Z"/></g><g class="cls-26"><path class="cls-27" d="M807.74,551.26a2.44,2.44,0,0,0-2.76,2.45,2.63,2.63,0,0,0,3,2.27,2.3,2.3,0,0,0,1.86-2C809.9,553.05,807.74,551.26,807.74,551.26Z"/></g><g class="cls-26"><path class="cls-27" d="M798.13,554.11a3.63,3.63,0,0,0-5.6,3.58,6.5,6.5,0,0,0,.29,1.07,5.6,5.6,0,0,0,2.92,3.57,3.9,3.9,0,0,0,4.13-1.15,5.35,5.35,0,0,0,1.16-4.26,2.93,2.93,0,0,0-.38-1.17,3.82,3.82,0,0,0-1.88-1.3Z"/></g><g class="cls-28"><path class="cls-29" d="M785.52,546.14c-2,2.85-4.06,5.76-7,7.68-1.54,1-3.45,1.95-3.89,3.74a3.08,3.08,0,0,0,2.57,3.63,9.62,9.62,0,0,0,2.74-.44,5.64,5.64,0,0,1,3.33.22,3.54,3.54,0,0,1,2.13,2.47,16.44,16.44,0,0,1,0,2.33,2.09,2.09,0,0,0,1.06,1.93,2.38,2.38,0,0,0,2.39-.89c1.5-1.5,2.68-3.59,4.75-4.1a4.88,4.88,0,0,1,3.71.77,13,13,0,0,1,2.84,2.65c.43.5,1.17,1,1.65.59a1.13,1.13,0,0,0,.25-.88c-.09-2-1.22-3.7-2.29-5.36C796,554.56,792.47,548,792.54,541c0-3.13.78-6.27.33-9.37-.17-1.13-1-2.54-2.07-2.19a2,2,0,0,0-.89.73,12.53,12.53,0,0,0-2.62,5.9c-.31,2-.15,4-.31,5.94A11.58,11.58,0,0,1,785.52,546.14Z"/></g><path class="cls-5" d="M853.38,537.17a2,2,0,0,0-2.23,1.91,1.27,1.27,0,0,0,.1.61,1.21,1.21,0,0,0,1.48.52,2.3,2.3,0,0,0,1.21-1.15,1.55,1.55,0,0,0,.2-1.14C854,537.54,853.38,537.17,853.38,537.17Z"/><path class="cls-30" d="M852,539.69a1.27,1.27,0,0,1-.1-.61,2,2,0,0,1,1.57-1.86l-.08-.05a2,2,0,0,0-2.23,1.91,1.27,1.27,0,0,0,.1.61,1.22,1.22,0,0,0,1.42.54A1,1,0,0,1,852,539.69Z"/><path class="cls-5" d="M845.35,544.19a2.24,2.24,0,0,0-1.61-.67,2.26,2.26,0,0,0-1.6.71,1.38,1.38,0,0,0-.34.57,1.33,1.33,0,0,0,.86,1.48,2.55,2.55,0,0,0,1.82-.12,1.64,1.64,0,0,0,1-.81A2.13,2.13,0,0,0,845.35,544.19Z"/><path class="cls-30" d="M842.41,545.32a1.39,1.39,0,0,1,.35-.58,2.22,2.22,0,0,1,1.59-.71,2.31,2.31,0,0,1,1,.26l0-.1a2.21,2.21,0,0,0-3.21,0,1.38,1.38,0,0,0-.34.57,1.31,1.31,0,0,0,.81,1.45A1.16,1.16,0,0,1,842.41,545.32Z"/><path class="cls-5" d="M841.29,566.74a2.92,2.92,0,0,0-1.18-1.46,1.79,1.79,0,0,0-1.55-.2,1,1,0,0,0-.45.35,1.72,1.72,0,0,0,.34,1.81,2.61,2.61,0,0,0,1.59.85,1.09,1.09,0,0,0,1-.24A2.25,2.25,0,0,0,841.29,566.74Z"/><path class="cls-30" d="M838.5,566.23a.93.93,0,0,1,.44-.35,1.74,1.74,0,0,1,1.55.19,2.81,2.81,0,0,1,.81.77.45.45,0,0,0,0-.1,3,3,0,0,0-1.18-1.47,1.82,1.82,0,0,0-1.55-.19,1,1,0,0,0-.45.35,1.68,1.68,0,0,0,.3,1.75A1.26,1.26,0,0,1,838.5,566.23Z"/><path class="cls-5" d="M798.63,582.39a2.28,2.28,0,0,0,1.13-.88,1.3,1.3,0,0,0,.17-1.16.73.73,0,0,0-.25-.35,1.3,1.3,0,0,0-1.37.23,1.92,1.92,0,0,0-.68,1.18.84.84,0,0,0,.16.79A1.73,1.73,0,0,0,798.63,582.39Z"/><path class="cls-30" d="M799.07,580.28a.8.8,0,0,1,.26.34,1.32,1.32,0,0,1-.18,1.17,2,2,0,0,1-.6.59h.08a2.28,2.28,0,0,0,1.13-.88,1.3,1.3,0,0,0,.17-1.16.73.73,0,0,0-.25-.35,1.28,1.28,0,0,0-1.33.19A1,1,0,0,1,799.07,580.28Z"/><path class="cls-5" d="M788.85,581.94a3.06,3.06,0,0,1,.34-1.86,1.77,1.77,0,0,1,1.27-.91.92.92,0,0,1,.56.1,1.69,1.69,0,0,1,.56,1.74,2.5,2.5,0,0,1-1,1.5,1.1,1.1,0,0,1-1,.3C789.23,582.68,788.85,581.94,788.85,581.94Z"/><path class="cls-30" d="M791.06,580.15a.91.91,0,0,0-.56-.1,1.78,1.78,0,0,0-1.26.91,2.86,2.86,0,0,0-.34,1.07l0-.09a3.06,3.06,0,0,1,.34-1.86,1.77,1.77,0,0,1,1.27-.91.92.92,0,0,1,.56.1,1.66,1.66,0,0,1,.57,1.67A1.21,1.21,0,0,0,791.06,580.15Z"/><path class="cls-5" d="M783.21,586.17a1.84,1.84,0,0,1,.46-1,1.08,1.08,0,0,1,.87-.36.61.61,0,0,1,.32.13A1.06,1.06,0,0,1,785,586a1.55,1.55,0,0,1-.79.75.69.69,0,0,1-.65,0C783.32,586.66,783.21,586.17,783.21,586.17Z"/><path class="cls-30" d="M784.76,585.42a.53.53,0,0,0-.31-.13,1.06,1.06,0,0,0-.88.36,1.87,1.87,0,0,0-.35.58.21.21,0,0,1,0-.06,1.84,1.84,0,0,1,.46-1,1.08,1.08,0,0,1,.87-.36.61.61,0,0,1,.32.13A1,1,0,0,1,785,586,.76.76,0,0,0,784.76,585.42Z"/><path class="cls-5" d="M774.73,576.31a1.81,1.81,0,0,1,.46-1,1,1,0,0,1,.87-.36.54.54,0,0,1,.32.13,1,1,0,0,1,.09,1.11,1.55,1.55,0,0,1-.79.75.66.66,0,0,1-.65,0C774.84,576.8,774.73,576.31,774.73,576.31Z"/><path class="cls-30" d="M776.28,575.56a.62.62,0,0,0-.32-.14,1.08,1.08,0,0,0-.87.36,1.74,1.74,0,0,0-.35.59.28.28,0,0,1,0-.06,1.81,1.81,0,0,1,.46-1,1,1,0,0,1,.87-.36.54.54,0,0,1,.32.13,1,1,0,0,1,.11,1.07A.74.74,0,0,0,776.28,575.56Z"/><path class="cls-5" d="M762.06,580.65a1.77,1.77,0,0,1,1-.49,1.07,1.07,0,0,1,.9.29.57.57,0,0,1,.15.31,1,1,0,0,1-.65.9,1.59,1.59,0,0,1-1.09.06.67.67,0,0,1-.51-.4C761.82,581.1,762.06,580.65,762.06,580.65Z"/><path class="cls-30" d="M763.72,581.09a.48.48,0,0,0-.15-.3,1.07,1.07,0,0,0-.9-.3,1.87,1.87,0,0,0-.64.22.3.3,0,0,1,0-.06,1.77,1.77,0,0,1,1-.49,1.07,1.07,0,0,1,.9.29.57.57,0,0,1,.15.31,1,1,0,0,1-.61.88A.76.76,0,0,0,763.72,581.09Z"/><path class="cls-5" d="M769.93,579.56a1.76,1.76,0,0,1,.82-.8,1,1,0,0,1,.94,0,.53.53,0,0,1,.25.24,1,1,0,0,1-.33,1.07,1.6,1.6,0,0,1-1,.4.67.67,0,0,1-.61-.22C769.85,580.06,769.93,579.56,769.93,579.56Z"/><path class="cls-30" d="M771.65,579.44a.56.56,0,0,0-.24-.24,1.09,1.09,0,0,0-.95,0,1.76,1.76,0,0,0-.54.41.15.15,0,0,1,0-.06,1.76,1.76,0,0,1,.82-.8,1,1,0,0,1,.94,0,.53.53,0,0,1,.25.24,1,1,0,0,1-.3,1A.78.78,0,0,0,771.65,579.44Z"/><path class="cls-5" d="M751.41,560.89a2.14,2.14,0,0,1,1.31.14,1.24,1.24,0,0,1,.69.84.66.66,0,0,1,0,.39,1.19,1.19,0,0,1-1.18.48,1.77,1.77,0,0,1-1.09-.61.76.76,0,0,1-.26-.7C750.91,561.18,751.41,560.89,751.41,560.89Z"/><path class="cls-30" d="M752.76,562.33a.65.65,0,0,0,0-.39,1.2,1.2,0,0,0-.69-.83,1.93,1.93,0,0,0-.76-.18l.06,0a2.15,2.15,0,0,1,1.31.14,1.24,1.24,0,0,1,.69.84.59.59,0,0,1,0,.39,1.14,1.14,0,0,1-1.13.48A.82.82,0,0,0,752.76,562.33Z"/><path class="cls-5" d="M764.35,564a2.16,2.16,0,0,1,1-.87,1.25,1.25,0,0,1,1.09,0,.61.61,0,0,1,.26.29,1.18,1.18,0,0,1-.44,1.2,1.82,1.82,0,0,1-1.19.4.75.75,0,0,1-.68-.28C764.23,564.54,764.35,564,764.35,564Z"/><path class="cls-30" d="M766.33,563.94a.69.69,0,0,0-.27-.29,1.23,1.23,0,0,0-1.08,0,2.08,2.08,0,0,0-.65.44l0-.07a2.16,2.16,0,0,1,1-.87,1.25,1.25,0,0,1,1.09,0,.61.61,0,0,1,.26.29,1.17,1.17,0,0,1-.41,1.17A.89.89,0,0,0,766.33,563.94Z"/><path class="cls-5" d="M757.53,564a2.13,2.13,0,0,1,1.28-.32,1.21,1.21,0,0,1,.94.54.62.62,0,0,1,.1.38,1.18,1.18,0,0,1-.94.86,1.73,1.73,0,0,1-1.24-.19.75.75,0,0,1-.48-.56C757.17,564.49,757.53,564,757.53,564Z"/><path class="cls-30" d="M759.3,564.92a.64.64,0,0,0-.1-.38,1.21,1.21,0,0,0-.94-.54,2.07,2.07,0,0,0-.77.1l0-.06a2.13,2.13,0,0,1,1.28-.32,1.21,1.21,0,0,1,.94.54.62.62,0,0,1,.1.38c0,.37-.46.73-.9.85A.83.83,0,0,0,759.3,564.92Z"/><path class="cls-5" d="M835.62,580.54a3,3,0,0,0-1.19-1.46,1.75,1.75,0,0,0-1.55-.19.91.91,0,0,0-.45.35,1.72,1.72,0,0,0,.34,1.8,2.56,2.56,0,0,0,1.59.85,1.12,1.12,0,0,0,1-.23C835.65,581.38,835.62,580.54,835.62,580.54Z"/><path class="cls-30" d="M832.82,580a1,1,0,0,1,.44-.35,1.78,1.78,0,0,1,1.55.19,2.85,2.85,0,0,1,.81.78v-.11a3,3,0,0,0-1.19-1.46,1.75,1.75,0,0,0-1.55-.19.91.91,0,0,0-.45.35,1.71,1.71,0,0,0,.3,1.75A1.29,1.29,0,0,1,832.82,580Z"/><path class="cls-5" d="M850.27,567.63a1.63,1.63,0,0,0-1.15-.56,1.66,1.66,0,0,0-1.19.45,1,1,0,0,0-.27.41,1,1,0,0,0,.57,1.11,1.85,1.85,0,0,0,1.33,0,1.2,1.2,0,0,0,.74-.55A1.54,1.54,0,0,0,850.27,567.63Z"/><path class="cls-30" d="M848.08,568.33a1.15,1.15,0,0,1,.28-.41,1.63,1.63,0,0,1,1.19-.45,1.78,1.78,0,0,1,.74.23l0-.07a1.63,1.63,0,0,0-1.15-.56,1.66,1.66,0,0,0-1.19.45,1,1,0,0,0-.27.41,1,1,0,0,0,.53,1.09A.85.85,0,0,1,848.08,568.33Z"/><path class="cls-5" d="M821.26,588.86a1.61,1.61,0,0,0-.42-1.2,1.64,1.64,0,0,0-1.16-.53,1,1,0,0,0-.48.1,1,1,0,0,0-.38,1.19,1.8,1.8,0,0,0,.95.93,1.22,1.22,0,0,0,.91.14C821,589.38,821.26,588.86,821.26,588.86Z"/><path class="cls-30" d="M819.22,587.81a1.08,1.08,0,0,1,.48-.09,1.63,1.63,0,0,1,1.16.52,1.7,1.7,0,0,1,.36.69l0-.07a1.61,1.61,0,0,0-.42-1.2,1.64,1.64,0,0,0-1.16-.53,1,1,0,0,0-.48.1,1,1,0,0,0-.4,1.14A.83.83,0,0,1,819.22,587.81Z"/><path class="cls-5" d="M796.8,589.67a1.62,1.62,0,0,0,1.33-1.93,1,1,0,0,0-.21-.44,1,1,0,0,0-1.24-.11,1.87,1.87,0,0,0-.7,1.14,1.22,1.22,0,0,0,.08.92A1.53,1.53,0,0,0,796.8,589.67Z"/><path class="cls-30" d="M797.36,587.45a1.11,1.11,0,0,1,.2.44,1.63,1.63,0,0,1-.25,1.25,1.53,1.53,0,0,1-.59.51l.08,0a1.62,1.62,0,0,0,1.33-1.93,1,1,0,0,0-.21-.44,1,1,0,0,0-1.2-.13A.81.81,0,0,1,797.36,587.45Z"/><path class="cls-5" d="M817.65,581.43a1.29,1.29,0,0,0,.2-.95,1.25,1.25,0,0,0-.56-.8.79.79,0,0,0-.35-.13.76.76,0,0,0-.72.63,1.41,1.41,0,0,0,.27,1,.93.93,0,0,0,.54.44A1.16,1.16,0,0,0,817.65,581.43Z"/><path class="cls-30" d="M816.72,580a.62.62,0,0,1,.35.12,1.24,1.24,0,0,1,.56.8,1.14,1.14,0,0,1,0,.58l0,0a1.29,1.29,0,0,0,.2-.95,1.25,1.25,0,0,0-.56-.8.79.79,0,0,0-.35-.13.74.74,0,0,0-.71.6A.62.62,0,0,1,816.72,580Z"/><g class="cls-31"><path class="cls-4" d="M804.44,485.22l.08-.12a44.8,44.8,0,0,0-12.2-8.07c-7.45-3.61-16.64-4.73-25.89-3.82a31.22,31.22,0,0,1,15.81,12.33c1.73,2.68,3.44,5.92,6.56,6.55a10.11,10.11,0,0,0,3.51-.13,22.4,22.4,0,0,0,6.73-1.79A15,15,0,0,0,804.44,485.22Z"/></g><path class="cls-9" d="M730.24,149.08l1.07-.05Z"/><circle class="cls-32" cx="1004.9" cy="424.52" r="7.11"/><circle class="cls-6" cx="1004.9" cy="424.52" r="1.94"/><circle class="cls-32" cx="1053.53" cy="40.15" r="7.11"/><circle class="cls-9" cx="1053.53" cy="40.15" r="1.94"/><circle class="cls-32" cx="839.13" cy="379.47" r="5.75"/><circle class="cls-7" cx="839.13" cy="379.47" r="1.94"/><circle class="cls-32" cx="994.86" cy="272.8" r="5.75"/><circle class="cls-7" cx="994.86" cy="272.8" r="1.94"/><circle class="cls-32" cx="837.81" cy="143.28" r="9.08"/><circle class="cls-6" cx="837.81" cy="143.28" r="3.07"/><circle class="cls-6" cx="996.24" cy="188.33" r="3.07"/><circle class="cls-6" cx="860.64" cy="234.88" r="2.1"/><circle class="cls-9" cx="711.48" cy="311.18" r="2.1"/><circle class="cls-6" cx="518.86" cy="547.52" r="2.1"/><rect class="cls-33" width="1079" height="33.05"/><rect class="cls-33" y="573.85" width="1079" height="33.05"/></g></g></svg>