<svg alt="hide" xmlns="http://www.w3.org/2000/svg" viewBox="0 0 33.32 29.23" width="20" height="20" alt="Hide" role="img"><title>Hide options</title><defs><style>.i-hide-cls-1{fill:#231f20;}</style></defs><title>i-hide</title><g id="Layer_2" data-name="Layer 2"><g id="Layer_1-2" data-name="Layer 1"><path class="i-hide-cls-1" d="M33.27,14.39a.67.67,0,0,0-.07-.18.89.89,0,0,0-.22-.29,39.45,39.45,0,0,0-7.27-7.14L31,1.4,29.54,0,24,5.65a14.34,14.34,0,0,0-7.36-2.41c-8.13,0-15.13,9-16.33,10.68a.9.9,0,0,0-.23.31,1,1,0,0,0-.1.37,1.09,1.09,0,0,0,.12.56,1,1,0,0,0,.21.28,39.64,39.64,0,0,0,7.2,7.08L2.34,27.84l1.43,1.39,5.45-5.57a14.43,14.43,0,0,0,7.44,2.46c8.06,0,15-8.91,16.3-10.64a1.13,1.13,0,0,0,.27-.34A1,1,0,0,0,33.27,14.39Zm-31,.27c1.66-2.14,7.8-9.42,14.39-9.42a12,12,0,0,1,5.93,1.88L20.82,8.93A7.09,7.09,0,0,0,11,19L9,21.08A37.87,37.87,0,0,1,2.27,14.66Zm19.49,0a5.1,5.1,0,0,1-7.92,4.25l7-7.16A5,5,0,0,1,21.76,14.68Zm-10.21,0a5.09,5.09,0,0,1,7.85-4.3l-7,7.14A5,5,0,0,1,11.55,14.68Zm5.11,9.44a12.09,12.09,0,0,1-6-1.92l1.78-1.82a7.1,7.1,0,0,0,9.83-10.06l2-2.09A37.31,37.31,0,0,1,31,14.7C29.38,16.84,23.23,24.12,16.66,24.12Z"/></g></g></svg>
