<svg alt="reset all pages" role="img" width="12" height="13" viewBox="0 0 12 13" fill="none" xmlns="http://www.w3.org/2000/svg"><title>Reset pages</title>
<path d="M10.4354 7.38349C10.4354 10.3019 7.78236 12.6454 4.77555 12.0706C2.87419 11.7168 1.32657 10.1692 0.972831 8.26784C0.398001 5.26104 2.69732 2.60798 5.61569 2.60798V4.37669C5.61569 4.50934 5.79256 4.59777 5.88099 4.46512L8.00344 2.34267C8.04766 2.29845 8.04766 2.1658 8.00344 2.12158L5.88099 -0.000865684C5.79256 -0.0893011 5.61569 -0.0450834 5.61569 0.0875697V1.63519C2.43201 1.63519 -0.132612 4.28825 4.14783e-05 7.51614C0.132695 10.4345 2.52045 12.8223 5.43882 12.9107C8.66671 13.0434 11.3198 10.4345 11.3198 7.25083H10.4354V7.38349Z" fill="white"/>
</svg>
