<svg xmlns="http://www.w3.org/2000/svg" alt="Show" role="img" viewBox="0 0 33.33 22.88" width="20" height="20"><title>Show options</title><defs><style>.i-show-cls-1{fill:#231f20;}</style></defs><title>i-show</title><g id="Layer_2" data-name="Layer 2"><g id="Layer_1-2" data-name="Layer 1"><path class="i-show-cls-1" d="M16.66,4.33a7.11,7.11,0,1,0,7.11,7.11A7.12,7.12,0,0,0,16.66,4.33Zm0,12.21a5.11,5.11,0,1,1,5.11-5.1A5.11,5.11,0,0,1,16.66,16.54Z"/><path class="i-show-cls-1" d="M33.26,11.1,33.2,11a1,1,0,0,0-.22-.28C31.77,9.11,24.38,0,16.66,0,8.53,0,1.53,9,.33,10.68A.9.9,0,0,0,.1,11a1,1,0,0,0-.1.37,1.09,1.09,0,0,0,.12.56,1,1,0,0,0,.21.28c1.22,1.57,8.6,10.68,16.33,10.68,8,0,15-8.88,16.29-10.63a.87.87,0,0,0,.28-.35A1,1,0,0,0,33.26,11.1Zm-16.6,9.78c-6.23,0-12.66-7.33-14.39-9.46C3.93,9.28,10.07,2,16.66,2,22.89,2,29.31,9.33,31,11.46,29.38,13.6,23.23,20.88,16.66,20.88Z"/></g></g></svg>
