<svg xmlns="http://www.w3.org/2000/svg" viewBox="0 0 280 162.79" alt="Computer" role="img" aria-hidden="true"><defs><style>.introtoazure-cls-1{isolation:isolate;}.introtoazure-cls-2{fill:#adadad;}.introtoazure-cls-22,.introtoazure-cls-3{fill:#f0f0f0;}.introtoazure-cls-4{fill:#103c66;}.introtoazure-cls-5{fill:#fff;}.introtoazure-cls-6{fill:#cfcfcf;}.introtoazure-cls-7{fill:#e7e7e7;}.introtoazure-cls-8{fill:#0483da;}.introtoazure-cls-20,.introtoazure-cls-21,.introtoazure-cls-23,.introtoazure-cls-9{fill:#a8a8a8;}.introtoazure-cls-10{fill:#f25022;}.introtoazure-cls-11{fill:#7fba00;}.introtoazure-cls-12{fill:#00a4ef;}.introtoazure-cls-13{fill:#ffb900;}.introtoazure-cls-14{fill:#d5d5d5;}.introtoazure-cls-15{fill:#696969;}.introtoazure-cls-15,.introtoazure-cls-21{opacity:0.5;}.introtoazure-cls-15,.introtoazure-cls-20,.introtoazure-cls-21,.introtoazure-cls-23{mix-blend-mode:multiply;}.introtoazure-cls-16{fill:#b8d432;}.introtoazure-cls-17{fill:#0266ab;}.introtoazure-cls-18{fill:#7ac7ff;}.introtoazure-cls-19{fill:#818181;}.introtoazure-cls-20{opacity:0.1;}.introtoazure-cls-22{opacity:0.26;}.introtoazure-cls-23{opacity:0.4;}</style></defs><title>Laptop</title><g class="introtoazure-cls-1"><g id="Layer_1" data-name="Layer 1"><path class="introtoazure-cls-2" d="M13,5.55V164H267V5.55a4.34,4.34,0,0,0-4.34-4.34H17.36A4.34,4.34,0,0,0,13,5.55Z" transform="translate(0 -1.21)"/><rect class="introtoazure-cls-3" x="26.05" y="13.02" width="227.91" height="136.71"/><rect class="introtoazure-cls-4" x="162.79" y="26.05" width="91.16" height="123.69"/><rect class="introtoazure-cls-5" x="26.05" y="13.02" width="227.91" height="13.02"/><path class="introtoazure-cls-6" d="M148.14,66.7H40.7a2,2,0,0,1,0-4H148.14a2,2,0,0,1,0,4Z" transform="translate(0 -1.21)"/><path class="introtoazure-cls-7" d="M194.54,50.42h-17.1a2,2,0,0,1,0-4h17.1a2,2,0,0,1,0,4Z" transform="translate(0 -1.21)"/><path class="introtoazure-cls-7" d="M177.44,91.11a2,2,0,0,1-.76-.15,1.8,1.8,0,0,1-.65-.43,2,2,0,0,1-.59-1.41,1.67,1.67,0,0,1,0-.39,2.38,2.38,0,0,1,.11-.38,1.86,1.86,0,0,1,.19-.34,1.48,1.48,0,0,1,.25-.31,2.48,2.48,0,0,1,.3-.25,2.31,2.31,0,0,1,.35-.18,2.29,2.29,0,0,1,.37-.12,2,2,0,0,1,1.8.55,1.48,1.48,0,0,1,.25.31,1.41,1.41,0,0,1,.19.34,2.2,2.2,0,0,1,.15.77,2,2,0,0,1-.59,1.41A1.94,1.94,0,0,1,177.44,91.11Z" transform="translate(0 -1.21)"/><path class="introtoazure-cls-7" d="M185.58,82.16H184a2,2,0,0,1,0-4h1.63a2,2,0,0,1,0,4Z" transform="translate(0 -1.21)"/><path class="introtoazure-cls-8" d="M207.56,74.84h-17.1a2,2,0,0,1,0-4h17.1a2,2,0,0,1,0,4Z" transform="translate(0 -1.21)"/><path class="introtoazure-cls-6" d="M140,77H40.7a2,2,0,0,1,0-4H140a2,2,0,0,1,0,4Z" transform="translate(0 -1.21)"/><path class="introtoazure-cls-6" d="M131.86,89.49H40.7a2,2,0,0,1,0-4h91.16a2,2,0,0,1,0,4Z" transform="translate(0 -1.21)"/><path class="introtoazure-cls-7" d="M103.37,38.07H85.47a1.05,1.05,0,0,1,0-2.1h17.9a1,1,0,0,1,0,2.1Z" transform="translate(0 -1.21)"/><path class="introtoazure-cls-3" d="M61.05,21.79H43.14a1.05,1.05,0,1,1,0-2.1H61.05a1.05,1.05,0,1,1,0,2.1Z" transform="translate(0 -1.21)"/><path class="introtoazure-cls-3" d="M76.51,21.79h-5.7a1.05,1.05,0,1,1,0-2.1h5.7a1.05,1.05,0,0,1,0,2.1Z" transform="translate(0 -1.21)"/><path class="introtoazure-cls-3" d="M92,21.79h-5.7a1.05,1.05,0,1,1,0-2.1H92a1.05,1.05,0,0,1,0,2.1Z" transform="translate(0 -1.21)"/><path class="introtoazure-cls-3" d="M107.44,21.79h-5.7a1.05,1.05,0,1,1,0-2.1h5.7a1.05,1.05,0,0,1,0,2.1Z" transform="translate(0 -1.21)"/><path class="introtoazure-cls-9" d="M129.42,52.23H41.51a3,3,0,0,1,0-6h87.91a3,3,0,0,1,0,6Z" transform="translate(0 -1.21)"/><polygon class="introtoazure-cls-6" points="145.7 32.56 148.95 35.81 145.7 39.07 145.7 32.56"/><polygon class="introtoazure-cls-6" points="42.33 32.56 39.07 35.81 42.33 39.07 42.33 32.56"/><path class="introtoazure-cls-7" d="M188,58.56H184a2,2,0,0,1,0-4H188a2,2,0,0,1,0,4Z" transform="translate(0 -1.21)"/><rect class="introtoazure-cls-10" x="29.3" y="16.28" width="3.26" height="3.26"/><rect class="introtoazure-cls-11" x="32.56" y="16.28" width="3.26" height="3.26"/><rect class="introtoazure-cls-12" x="29.3" y="19.53" width="3.26" height="3.26"/><rect class="introtoazure-cls-13" x="32.56" y="19.53" width="3.26" height="3.26"/><rect class="introtoazure-cls-14" x="39.07" y="98.49" width="110.7" height="51.28"/><rect class="introtoazure-cls-15" x="162.79" y="26.05" width="91.16" height="11.4"/><path class="introtoazure-cls-8" d="M205.12,58.56H194.54a2,2,0,0,1,0-4h10.58a2,2,0,0,1,0,4Z" transform="translate(0 -1.21)"/><path class="introtoazure-cls-7" d="M195.35,66.7H184a2,2,0,0,1,0-4h11.4a2,2,0,0,1,0,4Z" transform="translate(0 -1.21)"/><path class="introtoazure-cls-16" d="M202.67,66.7h-.81a2,2,0,0,1,0-4h.81a2,2,0,0,1,0,4Z" transform="translate(0 -1.21)"/><path class="introtoazure-cls-16" d="M239.3,50.42H201.05a2,2,0,0,1,0-4H239.3a2,2,0,0,1,0,4Z" transform="translate(0 -1.21)"/><path class="introtoazure-cls-16" d="M222.21,58.56H211.63a2,2,0,0,1,0-4h10.58a2,2,0,0,1,0,4Z" transform="translate(0 -1.21)"/><path class="introtoazure-cls-17" d="M231.16,74.84H214.07a2,2,0,0,1,0-4h17.09a2,2,0,0,1,0,4Z" transform="translate(0 -1.21)"/><path class="introtoazure-cls-18" d="M220.58,66.7H209.19a2,2,0,0,1,0-4h11.39a2,2,0,0,1,0,4Z" transform="translate(0 -1.21)"/><path class="introtoazure-cls-7" d="M227.09,66.7a2,2,0,0,1-1.41-.59,1.81,1.81,0,0,1-.25-.3,2.31,2.31,0,0,1-.18-.35,1.6,1.6,0,0,1-.12-.37,1.72,1.72,0,0,1,0-.39,2,2,0,0,1,.59-1.42A2.48,2.48,0,0,1,226,63a2.31,2.31,0,0,1,.35-.18,1.58,1.58,0,0,1,.37-.11,2,2,0,0,1,2.39,2,1.72,1.72,0,0,1,0,.39,1.58,1.58,0,0,1-.11.37,2.31,2.31,0,0,1-.18.35,2.48,2.48,0,0,1-.25.3A2,2,0,0,1,227.09,66.7Z" transform="translate(0 -1.21)"/><path class="introtoazure-cls-7" d="M227.91,58.56a2,2,0,0,1-1.42-.59,2,2,0,0,1-.58-1.41,2,2,0,0,1,2.39-2,1.58,1.58,0,0,1,.37.11,1.7,1.7,0,0,1,.35.19,1.76,1.76,0,0,1,.3.24,2,2,0,0,1,.59,1.42,2,2,0,0,1-.59,1.41,1.81,1.81,0,0,1-.3.25,2.37,2.37,0,0,1-.35.19,2.26,2.26,0,0,1-.37.11A1.72,1.72,0,0,1,227.91,58.56Z" transform="translate(0 -1.21)"/><path class="introtoazure-cls-7" d="M194.54,99.26h-17.1a2,2,0,0,1,0-4h17.1a2,2,0,0,1,0,4Z" transform="translate(0 -1.21)"/><path class="introtoazure-cls-7" d="M177.44,140a2,2,0,0,1-.76-.15,1.89,1.89,0,0,1-.65-.43,1.79,1.79,0,0,1-.25-.31,1.63,1.63,0,0,1-.19-.34,1.73,1.73,0,0,1-.11-.37,1.75,1.75,0,0,1,0-.4,1.72,1.72,0,0,1,0-.39,2.26,2.26,0,0,1,.11-.37,2.37,2.37,0,0,1,.19-.35,1.42,1.42,0,0,1,.25-.3,1.81,1.81,0,0,1,.3-.25,2.31,2.31,0,0,1,.35-.18,2.29,2.29,0,0,1,.37-.12,2,2,0,0,1,1.8.55,1.42,1.42,0,0,1,.25.3,1.7,1.7,0,0,1,.19.35,1.58,1.58,0,0,1,.11.37,1.72,1.72,0,0,1,0,.39,1.75,1.75,0,0,1,0,.4,1.73,1.73,0,0,1-.11.37,2.21,2.21,0,0,1-.18.34,2.51,2.51,0,0,1-.26.31,1.85,1.85,0,0,1-.64.43A2,2,0,0,1,177.44,140Z" transform="translate(0 -1.21)"/><path class="introtoazure-cls-7" d="M185.58,131H184a2,2,0,0,1,0-4h1.63a2,2,0,1,1,0,4Z" transform="translate(0 -1.21)"/><path class="introtoazure-cls-8" d="M202.67,123.67H190.46a2,2,0,0,1,0-4h12.21a2,2,0,0,1,0,4Z" transform="translate(0 -1.21)"/><path class="introtoazure-cls-7" d="M188,107.4H184a2,2,0,0,1,0-4H188a2,2,0,0,1,0,4Z" transform="translate(0 -1.21)"/><path class="introtoazure-cls-17" d="M213.26,107.4H194.54a2,2,0,0,1,0-4h18.72a2,2,0,0,1,0,4Z" transform="translate(0 -1.21)"/><path class="introtoazure-cls-7" d="M195.35,115.54H184a2,2,0,0,1,0-4h11.4a2,2,0,0,1,0,4Z" transform="translate(0 -1.21)"/><path class="introtoazure-cls-16" d="M202.67,115.54h-.81a2,2,0,0,1,0-4h.81a2,2,0,0,1,0,4Z" transform="translate(0 -1.21)"/><path class="introtoazure-cls-18" d="M214.88,99.26H201.05a2,2,0,0,1,0-4h13.83a2,2,0,0,1,0,4Z" transform="translate(0 -1.21)"/><path class="introtoazure-cls-8" d="M222.21,107.4h-2.44a2,2,0,0,1,0-4h2.44a2,2,0,0,1,0,4Z" transform="translate(0 -1.21)"/><path class="introtoazure-cls-16" d="M226.28,123.67H209.19a2,2,0,0,1,0-4h17.09a2,2,0,0,1,0,4Z" transform="translate(0 -1.21)"/><path class="introtoazure-cls-18" d="M232.79,115.54h-23.6a2,2,0,0,1,0-4h23.6a2,2,0,0,1,0,4Z" transform="translate(0 -1.21)"/><path class="introtoazure-cls-7" d="M239.3,115.53a2,2,0,0,1-1.41-.58,2.34,2.34,0,0,1-.25-.3,1.7,1.7,0,0,1-.19-.35,2.26,2.26,0,0,1-.11-.37,1.72,1.72,0,0,1,0-.39,1.75,1.75,0,0,1,0-.4,2.59,2.59,0,0,1,.11-.37,3.9,3.9,0,0,1,.19-.35,1.81,1.81,0,0,1,.25-.3,2.08,2.08,0,0,1,2.83,0,1.76,1.76,0,0,1,.24.3,1.7,1.7,0,0,1,.19.35,1.73,1.73,0,0,1,.11.37,1.75,1.75,0,0,1,0,.4,1.72,1.72,0,0,1,0,.39,1.58,1.58,0,0,1-.11.37,2.31,2.31,0,0,1-.18.35,3.61,3.61,0,0,1-.25.3A2,2,0,0,1,239.3,115.53Z" transform="translate(0 -1.21)"/><path class="introtoazure-cls-7" d="M227.91,107.4a2,2,0,0,1-1.42-.59,1.89,1.89,0,0,1-.25-.31,1.83,1.83,0,0,1-.18-.34,2.29,2.29,0,0,1-.12-.37,2.56,2.56,0,0,1,0-.39,1.81,1.81,0,0,1,0-.4,1.73,1.73,0,0,1,.11-.37,1.83,1.83,0,0,1,.18-.34,2.6,2.6,0,0,1,.25-.31,2,2,0,0,1,1.81-.54,1.58,1.58,0,0,1,.37.11,2.31,2.31,0,0,1,.35.18,2.48,2.48,0,0,1,.3.25,1.89,1.89,0,0,1,.25.31,1.83,1.83,0,0,1,.18.34,2.65,2.65,0,0,1,.12.37,2.71,2.71,0,0,1,0,.4,2.58,2.58,0,0,1,0,.39,2.26,2.26,0,0,1-.11.37,1.86,1.86,0,0,1-.19.34,1.48,1.48,0,0,1-.25.31A2,2,0,0,1,227.91,107.4Z" transform="translate(0 -1.21)"/><path class="introtoazure-cls-3" d="M245.81,21.79h-5.69a1.05,1.05,0,0,1,0-2.1h5.69a1.05,1.05,0,1,1,0,2.1Z" transform="translate(0 -1.21)"/><circle class="introtoazure-cls-3" cx="231.16" cy="19.53" r="3.26"/><path class="introtoazure-cls-19" d="M0,149.77H280a0,0,0,0,1,0,0v7.08a5.95,5.95,0,0,1-5.95,5.95H5.95A5.95,5.95,0,0,1,0,156.84v-7.08a0,0,0,0,1,0,0Z"/><polygon class="introtoazure-cls-20" points="266.98 149.77 13.02 149.77 13.02 15.19 191.01 149.77 266.98 149.77"/><polygon class="introtoazure-cls-21" points="251.78 10.85 26.05 10.85 26.05 13.02 251.78 13.02 251.78 149.77 258.3 149.77 258.3 15.19 258.3 10.85 251.78 10.85"/><polygon class="introtoazure-cls-22" points="90.08 119.38 90.08 133.49 99.3 126.43 90.08 119.38"/><path class="introtoazure-cls-19" d="M6,164h268.1a5.94,5.94,0,0,0,5.92-5.43H0A5.94,5.94,0,0,0,6,164Z" transform="translate(0 -1.21)"/><path class="introtoazure-cls-23" d="M6,164h268.1a5.94,5.94,0,0,0,5.92-5.43H0A5.94,5.94,0,0,0,6,164Z" transform="translate(0 -1.21)"/></g></g></svg>
