<svg data-name="Layer 1" xmlns="http://www.w3.org/2000/svg" viewBox="0 0 36 36"><title>Key Vault SQL</title><defs><style>.cls-1{fill:#2272b9;}.cls-2,.cls-3{fill:#fff;}.cls-2{opacity:0.15;isolation:isolate;}.cls-4{fill:#7fbb42;}.cls-5{fill:#b8d433;}</style></defs><title>SQL Database</title><path class="cls-1" d="M3.66,4.92V31.08C3.66,33.8,9.74,36,17.24,36V4.92Z"/><path class="cls-1" d="M17.06,36h.18c7.5,0,13.58-2.2,13.58-4.92V4.92H17.06Z"/><path class="cls-2" d="M17.06,36h.18c7.5,0,13.58-2.2,13.58-4.92V4.92H17.06Z"/><path class="cls-3" d="M30.82,4.92c0,2.71-6.08,4.92-13.58,4.92S3.66,7.63,3.66,4.92,9.74,0,17.24,0,30.82,2.2,30.82,4.92"/><path class="cls-4" d="M28.05,4.63c0,1.8-4.84,3.25-10.81,3.25S6.44,6.43,6.44,4.63s4.84-3.24,10.8-3.24S28.05,2.84,28.05,4.63"/><path class="cls-5" d="M25.78,6.62c1.42-.55,2.27-1.24,2.27-2,0-1.8-4.84-3.25-10.81-3.25S6.44,2.84,6.44,4.64c0,.74.85,1.43,2.26,2a25.2,25.2,0,0,1,8.54-1.26,25.12,25.12,0,0,1,8.54,1.26"/><path class="cls-3" d="M12.93,23.08A2.24,2.24,0,0,1,12.05,25a4,4,0,0,1-2.45.67,4.67,4.67,0,0,1-2.22-.48V23.25a3.44,3.44,0,0,0,2.27.87,1.53,1.53,0,0,0,.92-.24.74.74,0,0,0,.33-.63.9.9,0,0,0-.32-.68,5.44,5.44,0,0,0-1.27-.74,2.8,2.8,0,0,1-2-2.51,2.26,2.26,0,0,1,.85-1.85,3.52,3.52,0,0,1,2.27-.7,5.63,5.63,0,0,1,2.08.33v1.79a3.35,3.35,0,0,0-2-.6,1.46,1.46,0,0,0-.88.24.76.76,0,0,0-.32.63.9.9,0,0,0,.26.66,4.05,4.05,0,0,0,1.07.65,5.29,5.29,0,0,1,1.71,1.15A2.15,2.15,0,0,1,12.93,23.08Z"/><path class="cls-3" d="M22.15,21.14a4.89,4.89,0,0,1-.69,2.63,3.68,3.68,0,0,1-1.93,1.56L22,27.63H19.5l-1.77-2A4.14,4.14,0,0,1,15.67,25a3.78,3.78,0,0,1-1.42-1.54,4.72,4.72,0,0,1-.5-2.17,5.12,5.12,0,0,1,.54-2.38,3.85,3.85,0,0,1,1.52-1.6,4.43,4.43,0,0,1,2.25-.57,4.16,4.16,0,0,1,2.12.55,3.69,3.69,0,0,1,1.45,1.55A4.81,4.81,0,0,1,22.15,21.14Zm-2,.11a3.36,3.36,0,0,0-.57-2.06A1.83,1.83,0,0,0,18,18.44a2,2,0,0,0-1.61.75,3.17,3.17,0,0,0-.6,2,3.12,3.12,0,0,0,.59,2,2,2,0,0,0,3.15,0A3.08,3.08,0,0,0,20.12,21.25Z"/><polygon class="cls-3" points="28.67 25.49 23.57 25.49 23.57 16.92 25.5 16.92 25.5 23.92 28.67 23.92 28.67 25.49"/></svg>