<svg data-name="Layer 1" xmlns="http://www.w3.org/2000/svg" viewBox="0 0 36 36"><defs><style>.cls-1{fill:#5bb4da;}.cls-2,.cls-3,.cls-5{fill:#fff;}.cls-3{opacity:0.5;}.cls-3,.cls-5{isolation:isolate;}.cls-4{fill:#b8d433;}.cls-5{opacity:0.1;}</style></defs><title>Azure Active Directory</title><path class="cls-1" d="M18,36a3.33,3.33,0,0,1-2.35-1L1,20.35a3.33,3.33,0,0,1,0-4.7L15.65,1a3.33,3.33,0,0,1,4.7,0L35,15.65a3.33,3.33,0,0,1,0,4.7L20.35,35A3.33,3.33,0,0,1,18,36"/><path class="cls-2" d="M27.8,15.19a2.81,2.81,0,0,0-2.35,4.35l-5.57,5.58a3.72,3.72,0,0,0-.48-.27V10.63a2.81,2.81,0,1,0-2.8,0V24.85a5,5,0,0,0-.46.25l-5.58-5.58a2.9,2.9,0,1,0-1.44,1.13L15,26.52a3.4,3.4,0,0,0-.26,1.28A3.28,3.28,0,1,0,21,26.54l5.89-5.88a2.92,2.92,0,0,0,.89.16,2.82,2.82,0,0,0,0-5.63Z"/><rect class="cls-3" x="22.32" y="5.92" width="1.82" height="14.89" transform="translate(-2.65 20.35) rotate(-45.01)"/><rect class="cls-3" x="5.33" y="12.47" width="14.89" height="1.82" transform="translate(-5.72 12.95) rotate(-45)"/><path class="cls-4" d="M19.92,27.8a2,2,0,1,1-2-1.95,2,2,0,0,1,2,1.95"/><path class="cls-4" d="M19.57,8.2A1.57,1.57,0,1,1,18,6.63,1.58,1.58,0,0,1,19.57,8.2"/><path class="cls-4" d="M9.77,18A1.57,1.57,0,1,1,8.2,16.44,1.57,1.57,0,0,1,9.77,18"/><path class="cls-4" d="M29.37,18a1.57,1.57,0,1,1-1.57-1.56A1.57,1.57,0,0,1,29.37,18"/><path class="cls-5" d="M20.35,1a3.33,3.33,0,0,0-4.7,0L1,15.65a3.33,3.33,0,0,0,0,4.7l8.31,8.31L24.92,5.54Z"/></svg>