<svg data-name="Layer 1" xmlns="http://www.w3.org/2000/svg" viewBox="0 0 36 36"><defs><style>.cls-1{fill:#7fbb42;}.cls-2{fill:#fbd118;}</style></defs><title>Key Vault</title><path class="cls-1" d="M34.13,19.87A16.15,16.15,0,0,0,27.79,7.06v.5A9.85,9.85,0,0,1,26.71,12a11.72,11.72,0,1,1-17.06-.43,9.4,9.4,0,0,1-.94-4,4.26,4.26,0,0,1,.07-.94A16.16,16.16,0,1,0,34.13,19.87Z"/><path class="cls-2" d="M18.22,0a7.42,7.42,0,0,0-2.09,14.54v7.35H12.67v3.74h3.46v2.74h4.1V14.47a7.36,7.36,0,0,0,5.33-7.13A7.28,7.28,0,0,0,18.22,0Zm0,3.89a3.53,3.53,0,1,1-3.53,3.53A3.53,3.53,0,0,1,18.22,3.89Z"/></svg>