<svg width="18px" height="18px" viewBox="0 0 2048 2048" alt="Money icon" aria-hidden="true" role="img" xmlns="http://www.w3.org/2000/svg" xmlns:xlink="http://www.w3.org/1999/xlink"><path transform="translate(0,2048) scale(1,-1)" d= "M1792 1664L2048 1664L2048 384L128 384L128 640L0 640L0 1792L1792 1792L1792 1664ZM1664 1664L1536 1664Q1536 1637 1546 1614Q1556 1591 1573.5 1573.5Q1591 1556 1614 1546Q1637 1536 1664 1536L1664 1664ZM128 1664L128 1536Q155 1536 178 1546Q201 1556 218.5 1573.5Q236 1591 246 1614Q256 1637 256 1664L128 1664ZM128 1408L128 1024Q181 1024 227.5 1004Q274 984 309 949Q344 914 364 867.5Q384 821 384 768L1408 768Q1408 821 1428 867.5Q1448 914 1483 949Q1518 984 1564.5 1004Q1611 1024 1664 1024L1664 1408Q1611 1408 1564.5 1428Q1518 1448 1483 1483Q1448 1518 1428 1564.5Q1408 1611 1408 1664L384 1664Q384 1611 364 1564.5Q344 1518 309 1483Q274 1448 227.5 1428Q181 1408 128 1408ZM1664 768L1664 896Q1637 896 1614 886Q1591 876 1573.5 858.5Q1556 841 1546 818Q1536 795 1536 768L1664 768ZM128 896L128 768L256 768Q256 795 246 818Q236 841 218.5 858.5Q201 876 178 886Q155 896 128 896ZM1920 512L1920 1536L1792 1536L1792 640L256 640L256 512L1920 512ZM448 1152Q422 1152 403 1171Q384 1190 384 1216Q384 1242 403 1261Q422 1280 448 1280Q474 1280 493 1261Q512 1242 512 1216Q512 1190 493 1171Q474 1152 448 1152ZM1344 1152Q1318 1152 1299 1171Q1280 1190 1280 1216Q1280 1242 1299 1261Q1318 1280 1344 1280Q1370 1280 1389 1261Q1408 1242 1408 1216Q1408 1190 1389 1171Q1370 1152 1344 1152ZM896 896Q843 896 796.5 916Q750 936 715 971Q680 1006 660 1052.5Q640 1099 640 1152L640 1280Q640 1333 660 1379.5Q680 1426 715 1461Q750 1496 796.5 1516Q843 1536 896 1536Q949 1536 995.5 1516Q1042 1496 1077 1461Q1112 1426 1132 1379.5Q1152 1333 1152 1280L1152 1152Q1152 1099 1132 1052.5Q1112 1006 1077 971Q1042 936 995.5 916Q949 896 896 896ZM768 1280L768 1152Q768 1125 778 1102Q788 1079 805.5 1061.5Q823 1044 846 1034Q869 1024 896 1024Q923 1024 946 1034Q969 1044 986.5 1061.5Q1004 1079 1014 1102Q1024 1125 1024 1152L1024 1280Q1024 1307 1014 1330Q1004 1353 986.5 1370.5Q969 1388 946 1398Q923 1408 896 1408Q869 1408 846 1398Q823 1388 805.5 1370.5Q788 1353 778 1330Q768 1307 768 1280Z"></path></svg>