<svg data-name="Layer 1" xmlns="http://www.w3.org/2000/svg" viewBox="0 0 36 36"><defs><style>.cls-1{fill:#010101;}</style></defs><title>Multiple Pages</title><path class="cls-1" d="M33.17,7.93V29.58H26.85V27.73h4.48V9.25H23.94V1.85H11V6.43H9.15V0H25.28ZM25.79,7.4H30L25.79,3.17Z"/><polygon class="cls-1" points="26.84 29.58 26.84 36 2.83 36 2.83 6.43 9.15 6.43 9.15 8.28 4.67 8.28 4.67 34.15 25 34.15 25 29.58 26.84 29.58"/><rect class="cls-1" x="25.01" y="27.73" width="1.84" height="1.85"/><path class="cls-1" d="M26.85,14.36V27.73H25V15.67H17.62V8.28H11V6.43h7.93Zm-7.38-.54h4.22L19.47,9.59Z"/><rect class="cls-1" x="9.15" y="6.43" width="1.85" height="1.85"/></svg>