<svg alt="Add a Page" xmlns="http://www.w3.org/2000/svg" width="14" height="14" viewBox="0 0 9 9" fill="none">
<title>Add page</title>
<path fill-rule="evenodd" clip-rule="evenodd" d="M4.28234 8.21875H4.7179V4.93641H8V4.50085H4.7179V1.21875H4.28234L4.28234 4.50085H1V4.93641H4.28234L4.28234 8.21875Z" fill="white"/>
<path d="M4.7179 8.21875V8.71875C4.99404 8.71875 5.2179 8.49489 5.2179 8.21875H4.7179ZM4.28234 8.21875H3.78234C3.78234 8.35136 3.83502 8.47854 3.92879 8.5723C4.02255 8.66607 4.14973 8.71875 4.28234 8.71875V8.21875ZM4.7179 4.93641V4.43641C4.44175 4.43641 4.2179 4.66027 4.2179 4.93641H4.7179ZM8 4.93641V5.43641C8.27614 5.43641 8.5 5.21255 8.5 4.93641H8ZM8 4.50085H8.5C8.5 4.22471 8.27614 4.00085 8 4.00085V4.50085ZM4.7179 4.50085H4.2179C4.2179 4.777 4.44175 5.00085 4.7179 5.00085V4.50085ZM4.7179 1.21875H5.2179C5.2179 0.942608 4.99404 0.71875 4.7179 0.71875V1.21875ZM4.28234 1.21875V0.71875C4.0062 0.71875 3.78234 0.942608 3.78234 1.21875L4.28234 1.21875ZM4.28234 4.50085V5.00085C4.55848 5.00085 4.78234 4.777 4.78234 4.50085H4.28234ZM1 4.50085V4.00085C0.723858 4.00085 0.5 4.22471 0.5 4.50085H1ZM1 4.93641H0.5C0.5 5.21255 0.723858 5.43641 1 5.43641V4.93641ZM4.28234 4.93641H4.78234C4.78234 4.8038 4.72966 4.67662 4.63589 4.58286C4.54212 4.48909 4.41495 4.43641 4.28234 4.43641V4.93641ZM4.7179 7.71875H4.28234V8.71875H4.7179V7.71875ZM4.2179 4.93641V8.21875H5.2179V4.93641H4.2179ZM8 4.43641H4.7179V5.43641H8V4.43641ZM7.5 4.50085V4.93641H8.5V4.50085H7.5ZM4.7179 5.00085H8V4.00085H4.7179V5.00085ZM4.2179 1.21875V4.50085H5.2179V1.21875H4.2179ZM4.28234 1.71875H4.7179V0.71875H4.28234V1.71875ZM4.78234 4.50085L4.78234 1.21875L3.78234 1.21875L3.78234 4.50085H4.78234ZM1 5.00085H4.28234V4.00085H1V5.00085ZM1.5 4.93641V4.50085H0.5V4.93641H1.5ZM4.28234 4.43641H1V5.43641H4.28234V4.43641ZM4.78234 8.21875L4.78234 4.93641H3.78234L3.78234 8.21875H4.78234Z" fill="white"/>
</svg>
