<svg xmlns="http://www.w3.org/2000/svg" viewBox="0 0 35.18 36" fill="#ffffff" alt="Quick start wand" role="img" aria-hidden="true"><title>Quick start your webapp</title><g id="Layer_2" data-name="Layer 2"><g id="Layer_1-2" data-name="Layer 1"><path d="M25.18,13.1h0a2,2,0,0,1-1.48.67,2.09,2.09,0,0,1-1.57-.67,2.36,2.36,0,0,1-.66-1.61,2.49,2.49,0,0,1,.66-1.6A2,2,0,0,1,23.7,9.3a1.92,1.92,0,0,1,1.48.59,2.1,2.1,0,0,1,.66,1.6,2,2,0,0,1-.66,1.61Zm6.44,0h0l1.16-.25a1,1,0,0,0,.74-.34,1.37,1.37,0,0,0,.25-.76,1,1,0,0,0-.25-.76,1.6,1.6,0,0,0-.74-.43,5,5,0,0,0-1.16-.17l-1.23-.25a12.05,12.05,0,0,1-2.07-.84,6.83,6.83,0,0,1-1.48-1.19,7.34,7.34,0,0,1-1.08-1.6,14.34,14.34,0,0,1-.66-2.2,4.51,4.51,0,0,1-.16-1c-.09-.26-.09-.6-.17-.93a1.61,1.61,0,0,0-.41-.76,1,1,0,0,0-.74-.26,1.33,1.33,0,0,0-.75.26,1.08,1.08,0,0,0-.33.76,4.43,4.43,0,0,0-.16.93,3.88,3.88,0,0,0-.17,1c-.25.84-.49,1.52-.74,2.2a5.47,5.47,0,0,1-1.07,1.6A7.15,7.15,0,0,1,18.91,9.3a9.88,9.88,0,0,1-2.07.84l-1.15.25a6.6,6.6,0,0,0-1.24.17,1.8,1.8,0,0,0-.66.43.81.81,0,0,0-.33.76,1,1,0,0,0,.33.76,1,1,0,0,0,.66.34,4.26,4.26,0,0,0,1,.16,3.81,3.81,0,0,0,1,.17c.74.26,1.49.51,2.07.76A4.46,4.46,0,0,1,20.06,15a4.09,4.09,0,0,1,1.16,1.52,10.19,10.19,0,0,1,.83,2.12c.08.42.16.84.24,1.18l.25,1.27a1.07,1.07,0,0,0,.33.67,1,1,0,0,0,.75.34.79.79,0,0,0,.74-.34,1.89,1.89,0,0,0,.41-.67c.08-.34.08-.68.17-1a4.43,4.43,0,0,1,.16-1A12.81,12.81,0,0,1,25.76,17a5.72,5.72,0,0,1,1.08-1.61,3.92,3.92,0,0,1,1.48-1.18,12,12,0,0,1,2.07-.85l1.23-.25Z"/><path d="M1.07,36h0a1.16,1.16,0,0,0,.83-.42L18.83,18.34a1.59,1.59,0,0,0,.33-.85,1.53,1.53,0,0,0-.33-.84,1.46,1.46,0,0,0-.83-.34,1.46,1.46,0,0,0-.83.34L.33,34a1.11,1.11,0,0,0-.33.85.83.83,0,0,0,.33.76.87.87,0,0,0,.74.42Z"/><path d="M12.3,2.79h0a6.49,6.49,0,0,1,.91.25,1.4,1.4,0,0,1,.58.34,2.5,2.5,0,0,1,.33.51c.08.25.16.59.25.93a.22.22,0,0,0,.25.25c.16,0,.24-.08.24-.25.09-.34.17-.68.25-.93s.17-.43.33-.51A1.4,1.4,0,0,1,16,3a6.49,6.49,0,0,1,.91-.25.26.26,0,0,0,.24-.25.35.35,0,0,0-.24-.34A6.29,6.29,0,0,1,16,1.94a1.38,1.38,0,0,1-.58-.33.82.82,0,0,1-.33-.51C15,.85,15,.51,14.86.25S14.78,0,14.62,0a.22.22,0,0,0-.25.25c-.09.26-.17.6-.25.85a1.34,1.34,0,0,1-.91.84,6.29,6.29,0,0,1-.91.26.35.35,0,0,0-.24.34.26.26,0,0,0,.24.25Z"/><path d="M34.93,2.2h0c-.33-.09-.66-.17-.91-.26a.79.79,0,0,1-.5-.33.86.86,0,0,1-.33-.51C33.11.85,33,.51,33,.25S32.78,0,32.62,0a.26.26,0,0,0-.25.25c-.08.26-.17.6-.25.85a.78.78,0,0,1-.33.51c-.08.16-.33.25-.5.33s-.57.17-.9.26a.35.35,0,0,0-.25.34.27.27,0,0,0,.25.25c.33.08.66.17.9.25s.42.17.5.34.25.34.33.51.17.59.25.93a.26.26,0,0,0,.25.25c.16,0,.24-.08.33-.25.08-.34.16-.68.24-.93s.17-.43.33-.51A.8.8,0,0,1,34,3c.25-.08.58-.17.91-.25a.27.27,0,0,0,.25-.25.36.36,0,0,0-.25-.34Z"/><path d="M34.93,20.7h0c-.33-.08-.66-.16-.91-.25a.77.77,0,0,1-.5-.34,1.54,1.54,0,0,1-.33-.59,7.13,7.13,0,0,1-.24-.93c-.09-.17-.17-.25-.33-.25a.26.26,0,0,0-.25.25,6.9,6.9,0,0,1-.25.93,1.32,1.32,0,0,1-.33.59c-.08.17-.33.26-.5.34a8.59,8.59,0,0,1-.9.25c-.17,0-.25.09-.25.26a.22.22,0,0,0,.25.25c.33.09.66.17.9.25a2.86,2.86,0,0,1,.5.34,1.32,1.32,0,0,1,.33.59,7.34,7.34,0,0,1,.25.93.27.27,0,0,0,.25.26c.16,0,.24-.09.33-.26a7.59,7.59,0,0,1,.24-.93,1.54,1.54,0,0,1,.33-.59,1.46,1.46,0,0,1,.5-.34c.25-.08.58-.16.91-.25a.22.22,0,0,0,.25-.25.23.23,0,0,0-.25-.26Z"/></g></g></svg>
