<svg data-name="Layer 1" xmlns="http://www.w3.org/2000/svg" viewBox="0 0 36 36"><defs><style>.cls-1{fill:#231f20;}</style></defs><title>Save</title><path class="cls-1" d="M33.43,0a2.51,2.51,0,0,1,1,.2,2.88,2.88,0,0,1,.82.55,2.88,2.88,0,0,1,.55.82,2.55,2.55,0,0,1,.2,1V36H4.6L0,31.38V2.57a2.55,2.55,0,0,1,.2-1A2.69,2.69,0,0,1,.75.75,2.88,2.88,0,0,1,1.57.2a2.55,2.55,0,0,1,1-.2Zm0,2.57H30.86V18H5.14V2.57H2.57V30.31l3.09,3.12H7.71V23.14h18V33.43h7.72ZM7.71,15.43H28.29V2.57H7.71ZM23.14,25.71H10.29v7.72h2.57V28.29h2.57v5.14h7.71Z"/></svg>