<svg alt="Remove a Page" xmlns="http://www.w3.org/2000/svg" width="12" height="3" viewBox="0 0 9 2" fill="none">
<title>Remove a page</title>
<path fill-rule="evenodd" clip-rule="evenodd" d="M8 0.935556V0.5H4.7179H4.0625H1V0.935556H4.0625V0.9375L4.7179 0.9375V0.935556H8Z" fill="white"/>
<path d="M8 0.5H8.5C8.5 0.223858 8.27614 0 8 0V0.5ZM8 0.935556V1.43556C8.27614 1.43556 8.5 1.2117 8.5 0.935556H8ZM1 0.5V0C0.723858 0 0.5 0.223858 0.5 0.5L1 0.5ZM1 0.935556H0.5C0.5 1.2117 0.723858 1.43556 1 1.43556V0.935556ZM4.0625 0.935556H4.5625C4.5625 0.659413 4.33864 0.435556 4.0625 0.435556V0.935556ZM4.0625 0.9375H3.5625C3.5625 1.21364 3.78636 1.4375 4.0625 1.4375V0.9375ZM4.7179 0.9375V1.4375C4.8505 1.4375 4.97768 1.38482 5.07145 1.29105C5.16522 1.19729 5.2179 1.07011 5.2179 0.9375H4.7179ZM4.7179 0.935556V0.435556C4.44175 0.435556 4.2179 0.659413 4.2179 0.935556H4.7179ZM7.5 0.5V0.935556H8.5V0.5H7.5ZM4.7179 1H8V0H4.7179V1ZM4.0625 1H4.7179V0H4.0625V1ZM1 1H4.0625V0H1V1ZM1.5 0.935556V0.5H0.5V0.935556H1.5ZM4.0625 0.435556H1V1.43556H4.0625V0.435556ZM4.5625 0.9375V0.935556H3.5625V0.9375H4.5625ZM4.7179 0.4375L4.0625 0.4375V1.4375L4.7179 1.4375V0.4375ZM4.2179 0.935556V0.9375H5.2179V0.935556H4.2179ZM8 0.435556H4.7179V1.43556H8V0.435556Z" fill="white"/>
</svg>
