<svg xmlns="http://www.w3.org/2000/svg" viewBox="0 0 596.49 610.24"><defs><style>.cls-1{fill:#799cf2;}.cls-1,.cls-2{opacity:0.9;}.cls-3{fill:#94b5f7;}.cls-4{fill:#5c83e5;}.cls-5{fill:#f4a44d;}.cls-22,.cls-28,.cls-6{fill:#ff5757;}.cls-7{fill:#f4ca60;}.cls-8{fill:#ff4c39;}.cls-42,.cls-9{fill:#6172ed;}.cls-10{fill:#3649a8;}.cls-10,.cls-25{opacity:0.6;}.cls-11{fill:#3e4a68;}.cls-12,.cls-24{fill:#2b313d;}.cls-12,.cls-28,.cls-35{opacity:0.3;}.cls-13{fill:#f9c44e;}.cls-14{fill:#fcd68b;}.cls-15{fill:#efb041;}.cls-16,.cls-27{fill:#efa02e;}.cls-17{fill:#fcc35e;}.cls-18{fill:#36435e;}.cls-19{fill:#ffdb9c;}.cls-20{fill:#d8a94c;}.cls-21{fill:#eabc57;}.cls-22,.cls-27,.cls-39{opacity:0.5;}.cls-23,.cls-25{fill:#fff8dc;}.cls-23,.cls-24,.cls-26{opacity:0.2;}.cls-26{fill:#fff;}.cls-29{fill:#282120;}.cls-30{fill:#ffc0ad;}.cls-31{fill:#232323;}.cls-32{fill:#ef4343;}.cls-33{fill:#ff8650;}.cls-34{fill:#fc7575;}.cls-36{fill:#fc6060;}.cls-37{fill:#7393e5;}.cls-38{fill:#6487f4;}.cls-40{fill:#db4545;opacity:0.7;}.cls-41{fill:#436ae8;}.cls-42{opacity:0;}</style></defs><title>summarySplash2</title><g id="Layer_2" data-name="Layer 2"><g id="Layer_2-2" data-name="Layer 2"><path class="cls-1" d="M369.29,610.24H0V590.71C117.87,537,256.44,543.52,369.29,610.24Z"/><g class="cls-2"><path class="cls-3" d="M307,597.77c-8.68-1.94-17.67-1.65-26.52-2.48a106,106,0,0,1-23.7-5c-6.24-2.09-12.27-4.76-18.28-7.42l-63.15-28a399.28,399.28,0,0,1,194,55.34H327C322.68,603.56,314.84,599.54,307,597.77Z"/></g><g class="cls-2"><path class="cls-4" d="M33.53,610.24a9.73,9.73,0,0,1,.93-2.17C40,598.27,52.14,594,63.4,593.71s22.38,2.52,33.62,3.17c30.23,1.74,59.76-12.2,90-10.19a86.92,86.92,0,0,1,53.53,23.55Z"/></g><circle class="cls-5" cx="389.55" cy="285.9" r="1.82"/><circle class="cls-5" cx="527.78" cy="337.77" r="1.82"/><circle class="cls-5" cx="218.83" cy="444.7" r="1.73"/><circle class="cls-5" cx="277.57" cy="317.75" r="4.04"/><circle class="cls-5" cx="487.18" cy="175.52" r="4.24"/><circle class="cls-6" cx="185.02" cy="417.95" r="4.04"/><circle class="cls-7" cx="165.83" cy="366.8" r="1.73"/><circle class="cls-7" cx="485.94" cy="532.76" r="1.82"/><circle class="cls-6" cx="377.69" cy="503.92" r="1.82"/><circle class="cls-6" cx="577.11" cy="284.66" r="1.82"/><circle class="cls-6" cx="328.05" cy="433.86" r="1.82"/><circle class="cls-8" cx="511.92" cy="410.58" r="4.24"/><circle class="cls-7" cx="74.68" cy="404.94" r="2.89"/><circle class="cls-7" cx="474.08" cy="365.48" r="6.64"/><circle class="cls-6" cx="555.47" cy="573.69" r="6.64"/><circle class="cls-7" cx="23.02" cy="511.94" r="6.64"/><circle class="cls-9" cx="138.94" cy="411.44" r="6.33"/><circle class="cls-9" cx="589.85" cy="200.62" r="6.64"/><circle class="cls-9" cx="453.04" cy="577.85" r="4.24"/><circle class="cls-9" cx="113.67" cy="362.87" r="4.04"/><circle class="cls-9" cx="344.61" cy="307.61" r="1.82"/><circle class="cls-9" cx="64.5" cy="352.64" r="1.82"/><circle class="cls-9" cx="485.94" cy="475.92" r="1.82"/><circle class="cls-9" cx="304.56" cy="472.32" r="1.82"/><circle class="cls-10" cx="385.18" cy="467.78" r="6.98"/><circle class="cls-7" cx="385.18" cy="467.78" r="1.91"/><circle class="cls-10" cx="268" cy="442.88" r="6.65"/><circle class="cls-9" cx="268" cy="442.88" r="1.82"/><circle class="cls-9" cx="114.77" cy="459.01" r="1.82"/><circle class="cls-9" cx="363.14" cy="425.51" r="1.91"/><circle class="cls-9" cx="535.28" cy="507.42" r="1.91"/><circle class="cls-10" cx="462.17" cy="234.64" r="5.65"/><circle class="cls-6" cx="462.17" cy="234.64" r="1.91"/><circle class="cls-10" cx="266.18" cy="375.56" r="8.83"/><circle class="cls-6" cx="266.18" cy="375.56" r="2.98"/><circle class="cls-6" cx="537.19" cy="253.29" r="3.13"/><circle class="cls-10" cx="174.32" cy="475.18" r="8.5"/><circle class="cls-7" cx="177.57" cy="475.67" r="3.35"/><circle class="cls-7" cx="323.8" cy="349.63" r="3.01"/><circle class="cls-7" cx="435.36" cy="455.37" r="3.01"/><circle class="cls-7" cx="523.53" cy="460.8" r="3.01"/><circle class="cls-7" cx="523.53" cy="205.99" r="3.01"/><circle class="cls-7" cx="425.66" cy="316.56" r="2.06"/><path class="cls-11" d="M394.9,364.44h27.75a0,0,0,0,1,0,0v27a7.49,7.49,0,0,1-7.49,7.49H402.39a7.49,7.49,0,0,1-7.49-7.49v-27A0,0,0,0,1,394.9,364.44Z" transform="translate(389.63 -177.25) rotate(45)"/><path class="cls-12" d="M427.86,376.38l-21.52,21.51a4.07,4.07,0,0,1-5.77,0l2.93,2.93a4.09,4.09,0,0,0,5.77,0l21.51-21.52Z"/><path class="cls-13" d="M367.54,337.56l29.63,29.62,56-55.95L380.26,328A15.31,15.31,0,0,0,373,332.1Z"/><path class="cls-14" d="M383.81,331.51l63.65-14.62,5.67-5.66L380.26,328A15.31,15.31,0,0,0,373,332.1l-5.46,5.46,3.55,3.55,5.46-5.46A15.31,15.31,0,0,1,383.81,331.51Z"/><path class="cls-15" d="M452.51,422.53,422.89,392.9l56-55.95-16.74,72.86a15.3,15.3,0,0,1-4.14,7.27Z"/><path class="cls-16" d="M458,417.08a15.3,15.3,0,0,0,4.14-7.27L470,375.6l-2.35-6.12-20.43,20.44a5,5,0,0,0-1.38,2.64l-3.44,19.82,10.14,10.15Z"/><path class="cls-11" d="M461.22,303.41l-83.8,18.82A17.6,17.6,0,0,0,369,327l-9,9.06c-1.64,1.64-2,4-.69,5.24s3.61.95,5.24-.68l8.05-8.05a17.62,17.62,0,0,1,8.37-4.77L453.59,311Z"/><path class="cls-17" d="M462.21,409.9,478.94,337l-5,5-16.73,72.86a15.32,15.32,0,0,1-4.15,7.27l5-5A15.41,15.41,0,0,0,462.21,409.9Z"/><polygon class="cls-15" points="397.17 367.18 441.15 323.2 440.5 322.61 400.8 350.19 390.49 360.5 397.17 367.18"/><path class="cls-18" d="M486.76,328.94l-18.82,83.81a17.59,17.59,0,0,1-4.8,8.45l-9.05,9.06c-1.64,1.64-4,1.95-5.25.69s-.95-3.61.69-5.25l8-8a17.69,17.69,0,0,0,4.78-8.37l16.78-72.72Z"/><path class="cls-13" d="M515.39,269.74l-19.85,7.57c-8.65,3.3-32,22.27-38.73,29L397.09,366c-3.37,3.37-3.71,8.47-.78,11.41l16.43,16.42c2.93,2.94,8,2.59,11.4-.77l59.15-59.15c7-7,26.24-31,29.51-40.12l7.07-19.69A3.35,3.35,0,0,0,515.39,269.74Z"/><path class="cls-11" d="M496.28,277a78.93,78.93,0,0,1,9.28,8,81.29,81.29,0,0,1,7.37,8.48l6.94-19.34a3.35,3.35,0,0,0-4.48-4.38Z"/><path class="cls-19" d="M471.4,293.89c-2.35,1.88-4.63,3.75-6.73,5.52a29.92,29.92,0,0,1,26.07,25.95c1.77-2.14,3.64-4.44,5.5-6.81a30,30,0,0,0-24.84-24.66Z"/><path class="cls-11" d="M487.87,302.29a29.85,29.85,0,0,1,6,8.62,1.17,1.17,0,0,0,2.15-.08l2-5.2a4.31,4.31,0,0,0-1-4.6l-7.93-7.93a4.3,4.3,0,0,0-4.6-1l-5.19,2a1.17,1.17,0,0,0-.09,2.15A29.78,29.78,0,0,1,487.87,302.29Z"/><rect class="cls-20" x="454.31" y="314.47" width="2.07" height="2.07" rx="0.56" transform="translate(356.46 -229.57) rotate(45)"/><rect class="cls-20" x="457.84" y="318" width="2.07" height="2.07" rx="0.56" transform="translate(360 -231.03) rotate(45)"/><rect class="cls-20" x="469.57" y="329.73" width="2.07" height="2.07" rx="0.56" transform="translate(371.72 -235.89) rotate(45)"/><rect class="cls-20" x="473.1" y="333.26" width="2.07" height="2.07" rx="0.56" transform="translate(375.26 -237.35) rotate(45)"/><rect class="cls-20" x="424.75" y="344.03" width="2.07" height="2.07" rx="0.56" transform="translate(368.71 -200.01) rotate(45)"/><rect class="cls-20" x="428.28" y="347.56" width="2.07" height="2.07" rx="0.56" transform="translate(372.24 -201.47) rotate(45)"/><rect class="cls-20" x="440.01" y="359.29" width="2.07" height="2.07" rx="0.56" transform="translate(383.97 -206.33) rotate(45)"/><rect class="cls-20" x="443.54" y="362.82" width="2.07" height="2.07" rx="0.56" transform="translate(387.5 -207.79) rotate(45)"/><rect class="cls-20" x="442.6" y="326.17" width="2.07" height="2.07" rx="0.56" transform="translate(361.31 -217.86) rotate(45)"/><rect class="cls-20" x="446.13" y="329.71" width="2.07" height="2.07" rx="0.56" transform="translate(364.85 -219.32) rotate(45)"/><rect class="cls-20" x="457.86" y="341.44" width="2.07" height="2.07" rx="0.56" transform="translate(376.57 -224.18) rotate(45)"/><rect class="cls-20" x="461.39" y="344.97" width="2.07" height="2.07" rx="0.56" transform="translate(380.11 -225.64) rotate(45)"/><rect class="cls-20" x="437.62" y="331.15" width="2.07" height="2.07" rx="0.56" transform="translate(363.37 -212.88) rotate(45)"/><rect class="cls-20" x="441.15" y="334.69" width="2.07" height="2.07" rx="0.56" transform="translate(366.91 -214.34) rotate(45)"/><rect class="cls-20" x="452.88" y="346.42" width="2.07" height="2.07" rx="0.56" transform="translate(378.64 -219.2) rotate(45)"/><rect class="cls-20" x="456.41" y="349.95" width="2.07" height="2.07" rx="0.56" transform="translate(382.17 -220.66) rotate(45)"/><rect class="cls-21" x="442.31" y="327.33" width="38.26" height="2.79" transform="translate(367.6 -230) rotate(45)"/><rect class="cls-21" x="421.04" y="348.6" width="38.26" height="2.79" transform="translate(376.41 -208.74) rotate(45)"/><rect class="cls-11" x="399.87" y="369.21" width="38.26" height="3.91" transform="translate(385.17 -187.57) rotate(45)"/><rect class="cls-22" x="452.28" y="384.85" width="5.09" height="9.94" rx="1.37" transform="translate(408.86 -207.43) rotate(45)"/><path class="cls-23" d="M407.05,376l59.72-59.71c5.88-5.88,24.5-21.15,34.86-27.08l0,0a16,16,0,0,0,7.22-8.5l1.07-3a1.31,1.31,0,0,0-1.69-1.67l-10.15,3.87c-8.66,3.3-32,22.28-38.74,29L399.66,368.6c-3.36,3.36-3.71,8.47-.77,11.4l7.38,7.39C403.34,384.45,403.69,379.35,407.05,376Z"/><path class="cls-24" d="M512.8,293.81l7.07-19.69a3.31,3.31,0,0,0-3.33-4.64,4.19,4.19,0,0,1-.23,1.07l-7.07,19.69c-3.27,9.11-22.48,33.09-29.51,40.12l-59.15,59.15c-3.37,3.37-8.47,3.71-11.41.78l3.57,3.56c2.93,2.94,8,2.59,11.4-.77l59.15-59.15C490.33,326.89,509.53,302.91,512.8,293.81Z"/><path class="cls-25" d="M399.66,368.6l59.72-59.72c6.72-6.72,30.08-25.7,38.74-29L518,272.32a3.86,3.86,0,0,1,2.09-.22,3.33,3.33,0,0,0-4.66-2.36l-19.85,7.57c-8.65,3.3-32,22.27-38.73,29L397.09,366c-3.37,3.37-3.71,8.47-.78,11.41l2.58,2.57C396,377.07,396.3,372,399.66,368.6Z"/><rect class="cls-26" x="394.1" y="380.11" width="5.04" height="11.46" transform="translate(388.99 -167.44) rotate(45)"/><path class="cls-27" d="M467.62,369.48l-10.43,45.44a15.32,15.32,0,0,1-4.15,7.27l5-5a15.41,15.41,0,0,0,4.15-7.27l10.43-45.44Z"/><rect class="cls-28" x="386.01" y="338.38" width="10.33" height="10.33" rx="2.79" transform="translate(357.49 -175.98) rotate(45)"/><circle class="cls-6" cx="176.27" cy="548.4" r="1.63"/><path class="cls-29" d="M99.19,526.52c0,1.62-.79,1.76-1.76,1.76s-1.76-.14-1.76-1.76.79-2.93,1.76-2.93S99.19,524.9,99.19,526.52Z"/><path class="cls-29" d="M113.25,526.52c0,1.62-.78,1.76-1.75,1.76s-1.76-.14-1.76-1.76.78-2.93,1.76-2.93S113.25,524.9,113.25,526.52Z"/><ellipse class="cls-30" cx="88.64" cy="533.55" rx="3.52" ry="1.76"/><ellipse class="cls-30" cx="120.06" cy="533.55" rx="3.52" ry="1.76"/><path class="cls-31" d="M106.29,536.84a4.77,4.77,0,0,1-4.56-3.63,1,1,0,1,1,2-.49,2.77,2.77,0,0,0,2.61,2.11,1.75,1.75,0,0,0,1.85-1.86,1,1,0,1,1,2,0A3.76,3.76,0,0,1,106.29,536.84Z"/><path class="cls-32" d="M94,495.42c-.38.06-.76.13-1.13.21,0,0-26.92,1.92-30.41,31.59C61.4,536,64,551,61.15,559.44a33.1,33.1,0,0,1-6.77,11.24,33.69,33.69,0,0,0,12.22-13c6.18-11.79,4.84-26.1,9.06-38.73A44.83,44.83,0,0,1,94,495.42Z"/><path class="cls-30" d="M153.69,544.55a59.76,59.76,0,0,1-11.37,11.1,30,30,0,0,1-14.66,5.72c-.82.07-2,.5-1.7,1.29a1.29,1.29,0,0,0,.51.6c.75.58,1.5,1.17,2.29,1.68a16,16,0,0,1,6.92-2.12c6.39-.76,8.09-2.18,12.95-6.41a22.16,22.16,0,0,0,7.54-13.58,1.67,1.67,0,0,0-.15-1A31.14,31.14,0,0,0,153.69,544.55Z"/><path class="cls-30" d="M136.66,581.53c-5.83-.69-11-3.95-16.33-6.38a1.17,1.17,0,0,0-1-.12,1,1,0,0,0-.4.51,4.51,4.51,0,0,0-.41,2h0c9.47,4.31,20.48,8.64,29.89,4.2a2.83,2.83,0,0,0-.25-.59C144.34,581.29,140.49,582,136.66,581.53Z"/><path class="cls-5" d="M154.38,546.36a2,2,0,0,0-1.52.47,2,2,0,0,0-.7,1.42,1.27,1.27,0,0,0,.1.61,1.22,1.22,0,0,0,1.47.52,2.28,2.28,0,0,0,1.2-1.15,1.52,1.52,0,0,0,.2-1.13C155,546.72,154.38,546.36,154.38,546.36Z"/><path class="cls-33" d="M153,548.86a1.27,1.27,0,0,1-.1-.61,2,2,0,0,1,.7-1.42,2.16,2.16,0,0,1,.87-.43l-.08,0a2,2,0,0,0-1.52.47,2,2,0,0,0-.7,1.42,1.27,1.27,0,0,0,.1.61,1.2,1.2,0,0,0,1.41.54A1.09,1.09,0,0,1,153,548.86Z"/><path class="cls-5" d="M143.24,584a2,2,0,0,0-2.32-1.77,1.33,1.33,0,0,0-.57.22,1.21,1.21,0,0,0-.2,1.54,2.3,2.3,0,0,0,1.38.94,1.52,1.52,0,0,0,1.15,0A1.94,1.94,0,0,0,143.24,584Z"/><path class="cls-33" d="M140.51,583.12a1.15,1.15,0,0,1,.57-.23,2,2,0,0,1,1.54.39,1.88,1.88,0,0,1,.59.75l0-.08a2,2,0,0,0-2.32-1.77,1.33,1.33,0,0,0-.57.22,1.19,1.19,0,0,0-.23,1.49A1,1,0,0,1,140.51,583.12Z"/><path class="cls-5" d="M124,579.65a2,2,0,0,0-2.32-1.77,1.33,1.33,0,0,0-.57.22,1.22,1.22,0,0,0-.2,1.55,2.33,2.33,0,0,0,1.37.93,1.5,1.5,0,0,0,1.16,0A1.94,1.94,0,0,0,124,579.65Z"/><path class="cls-33" d="M121.26,578.82a1.35,1.35,0,0,1,.57-.23,2.1,2.1,0,0,1,1.55.39,2,2,0,0,1,.59.76.78.78,0,0,0,0-.09,2,2,0,0,0-2.32-1.77,1.33,1.33,0,0,0-.57.22,1.19,1.19,0,0,0-.23,1.49A1,1,0,0,1,121.26,578.82Z"/><path class="cls-5" d="M133,582.54a2,2,0,0,0-.77-1.39,2,2,0,0,0-1.55-.38,1.33,1.33,0,0,0-.57.22,1.21,1.21,0,0,0-.2,1.54,2.3,2.3,0,0,0,1.38.94,1.57,1.57,0,0,0,1.15,0A1.94,1.94,0,0,0,133,582.54Z"/><path class="cls-33" d="M130.22,581.7a1.24,1.24,0,0,1,.57-.22,2,2,0,0,1,1.54.38,2,2,0,0,1,.59.76l0-.08a2,2,0,0,0-.77-1.39,2,2,0,0,0-1.55-.38,1.33,1.33,0,0,0-.57.22,1.19,1.19,0,0,0-.23,1.49A1,1,0,0,1,130.22,581.7Z"/><path class="cls-5" d="M137.9,560.05a2,2,0,0,0-2.22,1.9,1.11,1.11,0,0,0,1.56,1.13,2.3,2.3,0,0,0,1.21-1.15,1.54,1.54,0,0,0,.2-1.14C138.53,560.42,137.9,560.05,137.9,560.05Z"/><path class="cls-33" d="M136.51,562.55a1.21,1.21,0,0,1-.1-.6,2,2,0,0,1,.7-1.43,2,2,0,0,1,.86-.42l-.07-.05a2,2,0,0,0-2.22,1.9,1.21,1.21,0,0,0,.1.6,1.2,1.2,0,0,0,1.41.54A1,1,0,0,1,136.51,562.55Z"/><path class="cls-5" d="M147.16,555.57a2,2,0,0,0-2.22,1.9,1.38,1.38,0,0,0,.1.6,1.2,1.2,0,0,0,1.47.52,2.25,2.25,0,0,0,1.2-1.15,1.46,1.46,0,0,0,.2-1.13C147.79,555.94,147.16,555.57,147.16,555.57Z"/><path class="cls-33" d="M145.77,558.07a1.38,1.38,0,0,1-.1-.6,2,2,0,0,1,.7-1.43,2,2,0,0,1,.87-.42l-.08,0a2,2,0,0,0-2.22,1.9,1.38,1.38,0,0,0,.1.6,1.2,1.2,0,0,0,1.41.54A1,1,0,0,1,145.77,558.07Z"/><path class="cls-30" d="M120.5,600.14a20.48,20.48,0,0,1-7-8.38c-.25-.57-.48-1.15-.73-1.73-1.09-2.54-2.62-5.08-5.09-6.34a7.23,7.23,0,0,0-3.93-.75s-.15,1-.15,0c3.4-.13,5.14,3.88,6.44,7a21.43,21.43,0,0,0,6.19,8.81,13.27,13.27,0,0,0,6.53,2.78C122,601.1,121.24,600.64,120.5,600.14Z"/><path class="cls-30" d="M91.58,586.3a5.26,5.26,0,0,1,1.8-2.69,3.2,3.2,0,0,0-1.81.7,12.68,12.68,0,0,0-3.51,3.21,21.79,21.79,0,0,0-1.47,2.89C84,595.8,79.17,599.78,74.14,603l0,.15A30.05,30.05,0,0,0,91.58,586.3Z"/><path class="cls-30" d="M73.26,587c.93-1.4,1.94-3,3.45-3.58a7.76,7.76,0,0,0-3.28,1A15.5,15.5,0,0,0,70,586.87c-1.86,1.79-3.24,4-5.09,5.83a28.88,28.88,0,0,1-8.22,5.18,11.47,11.47,0,0,1-4.83,1.42c-.55,0-1.11-.08-1.65-.1a1.87,1.87,0,0,0,.08.34c.45,1.25,1.85,1.18,3,1A31.68,31.68,0,0,0,73.26,587Z"/><path class="cls-34" d="M62.43,527.22C61.4,536,64,551,61.15,559.44c-2.67,7.93-8.89,14.14-15.51,19.26-3.41,2.64-7.31,5.66-7.54,10a56.75,56.75,0,0,0,17.62-7.54c2.29-1.49,4.93-3.22,7.53-2.38L50.62,597.62a2.15,2.15,0,0,0-.28,2c.47,1.21,1.85,1.14,2.95.92a31.68,31.68,0,0,0,20-13.54c1.07-1.62,2.25-3.53,4.18-3.75,3.2,6.2-5.68,13.43-3.25,20A30.05,30.05,0,0,0,91.58,586.3c.51-1.3,1.22-2.86,2.61-2.94,2.06-.13-.57,13.09,3.65,21.9a1.14,1.14,0,0,0,1.84.32c2.18-2.29,3.91-7.85,4.25-10.32.74-5.33-.33-6.89-.35-12.27,3.4-.13,5.14,3.88,6.44,7a21.43,21.43,0,0,0,6.19,8.81,12.17,12.17,0,0,0,10.19,2.58A100.71,100.71,0,0,1,118,582.79c-.6-1.8-1-4.14.52-5.28,9.47,4.31,20.48,8.64,29.89,4.2-.47-1.63-2.3-2.37-3.89-3-7.7-2.87-11.26-6.74-16.05-13.64,2-1.46,4.72-2,7.18-2.29,6.39-.76,8.09-2.18,12.95-6.41a22.17,22.17,0,0,0,7.54-13.57,1.65,1.65,0,0,0-2.52-1.61,36.39,36.39,0,0,1-9.36,4.17c-4.28,1.22-9.57,1.36-12.44-2a12.65,12.65,0,0,1-2.08-4.11c-3.53-9.92-5.5-20.53-10.93-29.56s-15.72-16.33-26-14.05C92.84,495.63,65.92,497.55,62.43,527.22Z"/><g class="cls-35"><path class="cls-30" d="M91.32,498.48c10.28-2.29,20.58,5,26,14s7.39,19.64,10.92,29.56a13.28,13.28,0,0,0,2.08,4.11c2.87,3.4,8.17,3.27,12.45,2a36.23,36.23,0,0,0,9.36-4.18,1.66,1.66,0,0,1,2.52,1.61,20,20,0,0,1-1.58,5.53,20.83,20.83,0,0,0,3.09-8.37,1.65,1.65,0,0,0-2.52-1.61,36.39,36.39,0,0,1-9.36,4.17c-4.28,1.22-9.57,1.36-12.44-2a12.65,12.65,0,0,1-2.08-4.11c-3.53-9.92-5.5-20.53-10.93-29.56s-15.72-16.33-26-14.05c0,0-18.48,1.34-26.8,18.68C74.89,499.65,91.32,498.48,91.32,498.48Z"/><path class="cls-30" d="M61.4,581.5,50.62,597.62a2.31,2.31,0,0,0-.38,1.15l11.49-17.18C61.62,581.55,61.51,581.53,61.4,581.5Z"/><path class="cls-30" d="M44.13,581.54c5.8-4.49,11.3-9.82,14.36-16.41-3.19,5.31-7.91,9.74-12.85,13.57-2.89,2.23-6.12,4.75-7.19,8.08A29.55,29.55,0,0,1,44.13,581.54Z"/></g><path class="cls-29" d="M101.52,532.82c.15,1.61-.62,1.82-1.59,1.91s-1.76,0-1.92-1.58.51-3,1.48-3.08S101.36,531.21,101.52,532.82Z"/><path class="cls-29" d="M113,529c.25,1.59-.51,1.85-1.47,2s-1.76.13-2-1.47.33-3,1.29-3.16S112.73,527.41,113,529Z"/><ellipse class="cls-30" cx="90.13" cy="538.92" rx="3.52" ry="1.76" transform="translate(-83.62 20.88) rotate(-9.05)"/><ellipse class="cls-30" cx="118.98" cy="532.23" rx="2.21" ry="1.25" transform="translate(-82.21 25.33) rotate(-9.05)"/><path class="cls-31" d="M109.32,541.42a4.77,4.77,0,0,1-5.51-1.89,1,1,0,0,1,1.67-1.12,2.77,2.77,0,0,0,3.17,1.11,1.74,1.74,0,0,0,1.12-2.37,1,1,0,1,1,1.9-.68A3.77,3.77,0,0,1,109.32,541.42Z"/><path class="cls-36" d="M94,495.42c-.38.06-.76.13-1.13.21,0,0-26.92,1.92-30.41,31.59C61.4,536,64,551,61.15,559.44a33.1,33.1,0,0,1-6.77,11.24,33.69,33.69,0,0,0,12.22-13c6.18-11.79,4.84-26.1,9.06-38.73A44.83,44.83,0,0,1,94,495.42Z"/><path class="cls-30" d="M153.69,544.55a59.76,59.76,0,0,1-11.37,11.1,30,30,0,0,1-14.66,5.72c-.82.07-2,.5-1.7,1.29a1.29,1.29,0,0,0,.51.6c.75.58,1.5,1.17,2.29,1.68a16,16,0,0,1,6.92-2.12c6.39-.76,8.09-2.18,12.95-6.41a22.16,22.16,0,0,0,7.54-13.58,1.67,1.67,0,0,0-.15-1A31.14,31.14,0,0,0,153.69,544.55Z"/><path class="cls-30" d="M136.66,581.53c-5.83-.69-11-3.95-16.33-6.38a1.17,1.17,0,0,0-1-.12,1,1,0,0,0-.4.51,4.51,4.51,0,0,0-.41,2h0c9.47,4.31,20.48,8.64,29.89,4.2a2.83,2.83,0,0,0-.25-.59C144.34,581.29,140.49,582,136.66,581.53Z"/><path class="cls-5" d="M154.38,546.36a2,2,0,0,0-1.52.47,2,2,0,0,0-.7,1.42,1.27,1.27,0,0,0,.1.61,1.22,1.22,0,0,0,1.47.52,2.28,2.28,0,0,0,1.2-1.15,1.52,1.52,0,0,0,.2-1.13C155,546.72,154.38,546.36,154.38,546.36Z"/><path class="cls-33" d="M153,548.86a1.27,1.27,0,0,1-.1-.61,2,2,0,0,1,.7-1.42,2.16,2.16,0,0,1,.87-.43l-.08,0a2,2,0,0,0-1.52.47,2,2,0,0,0-.7,1.42,1.27,1.27,0,0,0,.1.61,1.2,1.2,0,0,0,1.41.54A1.09,1.09,0,0,1,153,548.86Z"/><path class="cls-5" d="M143.24,584a2,2,0,0,0-2.32-1.77,1.33,1.33,0,0,0-.57.22,1.21,1.21,0,0,0-.2,1.54,2.3,2.3,0,0,0,1.38.94,1.52,1.52,0,0,0,1.15,0A1.94,1.94,0,0,0,143.24,584Z"/><path class="cls-33" d="M140.51,583.12a1.15,1.15,0,0,1,.57-.23,2,2,0,0,1,1.54.39,1.88,1.88,0,0,1,.59.75l0-.08a2,2,0,0,0-2.32-1.77,1.33,1.33,0,0,0-.57.22,1.19,1.19,0,0,0-.23,1.49A1,1,0,0,1,140.51,583.12Z"/><path class="cls-5" d="M124,579.65a2,2,0,0,0-2.32-1.77,1.33,1.33,0,0,0-.57.22,1.22,1.22,0,0,0-.2,1.55,2.33,2.33,0,0,0,1.37.93,1.5,1.5,0,0,0,1.16,0A1.94,1.94,0,0,0,124,579.65Z"/><path class="cls-33" d="M121.26,578.82a1.35,1.35,0,0,1,.57-.23,2.1,2.1,0,0,1,1.55.39,2,2,0,0,1,.59.76.78.78,0,0,0,0-.09,2,2,0,0,0-2.32-1.77,1.33,1.33,0,0,0-.57.22,1.19,1.19,0,0,0-.23,1.49A1,1,0,0,1,121.26,578.82Z"/><path class="cls-5" d="M133,582.54a2,2,0,0,0-.77-1.39,2,2,0,0,0-1.55-.38,1.33,1.33,0,0,0-.57.22,1.21,1.21,0,0,0-.2,1.54,2.3,2.3,0,0,0,1.38.94,1.57,1.57,0,0,0,1.15,0A1.94,1.94,0,0,0,133,582.54Z"/><path class="cls-33" d="M130.22,581.7a1.24,1.24,0,0,1,.57-.22,2,2,0,0,1,1.54.38,2,2,0,0,1,.59.76l0-.08a2,2,0,0,0-.77-1.39,2,2,0,0,0-1.55-.38,1.33,1.33,0,0,0-.57.22,1.19,1.19,0,0,0-.23,1.49A1,1,0,0,1,130.22,581.7Z"/><path class="cls-5" d="M137.9,560.05a2,2,0,0,0-2.22,1.9,1.11,1.11,0,0,0,1.56,1.13,2.3,2.3,0,0,0,1.21-1.15,1.54,1.54,0,0,0,.2-1.14C138.53,560.42,137.9,560.05,137.9,560.05Z"/><path class="cls-33" d="M136.51,562.55a1.21,1.21,0,0,1-.1-.6,2,2,0,0,1,.7-1.43,2,2,0,0,1,.86-.42l-.07-.05a2,2,0,0,0-2.22,1.9,1.21,1.21,0,0,0,.1.6,1.2,1.2,0,0,0,1.41.54A1,1,0,0,1,136.51,562.55Z"/><path class="cls-5" d="M147.16,555.57a2,2,0,0,0-2.22,1.9,1.38,1.38,0,0,0,.1.6,1.2,1.2,0,0,0,1.47.52,2.25,2.25,0,0,0,1.2-1.15,1.46,1.46,0,0,0,.2-1.13C147.79,555.94,147.16,555.57,147.16,555.57Z"/><path class="cls-33" d="M145.77,558.07a1.38,1.38,0,0,1-.1-.6,2,2,0,0,1,.7-1.43,2,2,0,0,1,.87-.42l-.08,0a2,2,0,0,0-2.22,1.9,1.38,1.38,0,0,0,.1.6,1.2,1.2,0,0,0,1.41.54A1,1,0,0,1,145.77,558.07Z"/><path class="cls-30" d="M120.5,600.14a20.48,20.48,0,0,1-7-8.38c-.25-.57-.48-1.15-.73-1.73-1.09-2.54-2.62-5.08-5.09-6.34a7.23,7.23,0,0,0-3.93-.75s-.15,1-.15,0c3.4-.13,5.14,3.88,6.44,7a21.43,21.43,0,0,0,6.19,8.81,13.27,13.27,0,0,0,6.53,2.78C122,601.1,121.24,600.64,120.5,600.14Z"/><path class="cls-30" d="M102,600.36a4.62,4.62,0,0,1-1.47.14A2.42,2.42,0,0,1,99,599.26a11.17,11.17,0,0,1-1.17-5.16c-.22-3.25-.61-6.67-2.56-9.27a2.38,2.38,0,0,0-.4-.44c.66,3.26-.55,13.62,3,20.93a1.1,1.1,0,0,0,1.78.29,15.8,15.8,0,0,0,2.91-5.29A2.92,2.92,0,0,0,102,600.36Z"/><path class="cls-30" d="M91.58,586.3a5.26,5.26,0,0,1,1.8-2.69,3.2,3.2,0,0,0-1.81.7,12.68,12.68,0,0,0-3.51,3.21,21.79,21.79,0,0,0-1.47,2.89C84,595.8,79.17,599.78,74.14,603l0,.15A30.05,30.05,0,0,0,91.58,586.3Z"/><path class="cls-5" d="M109,589.74a2.06,2.06,0,0,0,.73-1.41,2,2,0,0,0-.52-1.5,1.19,1.19,0,0,0-.5-.36,1.21,1.21,0,0,0-1.4.67,2.29,2.29,0,0,0,0,1.67,1.53,1.53,0,0,0,.66.94A2,2,0,0,0,109,589.74Z"/><path class="cls-33" d="M108.23,587a1.26,1.26,0,0,1,.5.36,2,2,0,0,1,.21,2.41l.09,0a2.06,2.06,0,0,0,.73-1.41,2,2,0,0,0-.52-1.5,1.19,1.19,0,0,0-.5-.36,1.21,1.21,0,0,0-1.37.62A1,1,0,0,1,108.23,587Z"/><path class="cls-5" d="M113.34,595.75a2,2,0,0,0,.1-1.59,2.09,2.09,0,0,0-1.1-1.16,1.24,1.24,0,0,0-.6-.11,1.21,1.21,0,0,0-1,1.19,2.24,2.24,0,0,0,.66,1.52,1.48,1.48,0,0,0,1,.59A1.92,1.92,0,0,0,113.34,595.75Z"/><path class="cls-33" d="M111.49,593.57a1.27,1.27,0,0,1,.6.12,2,2,0,0,1,1.09,1.16,2,2,0,0,1,.09.95l.07,0a2,2,0,0,0,.1-1.59,2.09,2.09,0,0,0-1.1-1.16,1.24,1.24,0,0,0-.6-.11,1.19,1.19,0,0,0-1,1.13A1,1,0,0,1,111.49,593.57Z"/><path class="cls-5" d="M96.23,596.77a2,2,0,0,0,.57-2.87,1.36,1.36,0,0,0-.45-.41,1.21,1.21,0,0,0-1.48.5,2.26,2.26,0,0,0-.23,1.64,1.53,1.53,0,0,0,.54,1A2,2,0,0,0,96.23,596.77Z"/><path class="cls-33" d="M95.78,593.94a1.39,1.39,0,0,1,.45.42,2,2,0,0,1,.33,1.55,1.91,1.91,0,0,1-.42.87h.09a2,2,0,0,0,.57-2.87,1.36,1.36,0,0,0-.45-.41,1.19,1.19,0,0,0-1.44.45A1.06,1.06,0,0,1,95.78,593.94Z"/><path class="cls-5" d="M87.19,593.62a2,2,0,0,0-2.34,1.75,1.4,1.4,0,0,0,.06.61,1.22,1.22,0,0,0,1.43.62,2.28,2.28,0,0,0,1.27-1.08,1.45,1.45,0,0,0,.28-1.11C87.79,594,87.19,593.62,87.19,593.62Z"/><path class="cls-33" d="M85.64,596a1.41,1.41,0,0,1-.06-.61,2,2,0,0,1,.79-1.38,2,2,0,0,1,.89-.37l-.07,0a2,2,0,0,0-2.34,1.75,1.4,1.4,0,0,0,.06.61,1.21,1.21,0,0,0,1.37.63A1.08,1.08,0,0,1,85.64,596Z"/><path class="cls-5" d="M98,603.63a2,2,0,0,0,.26-1.57,2.08,2.08,0,0,0-1-1.26,1.36,1.36,0,0,0-.59-.18,1.22,1.22,0,0,0-1.12,1.08,2.31,2.31,0,0,0,.5,1.59A1.53,1.53,0,0,0,97,604,1.89,1.89,0,0,0,98,603.63Z"/><path class="cls-33" d="M96.41,601.28a1.2,1.2,0,0,1,.58.18,2,2,0,0,1,1,1.26,2.08,2.08,0,0,1,0,1l.07,0a2,2,0,0,0,.26-1.57,2.08,2.08,0,0,0-1-1.26,1.36,1.36,0,0,0-.59-.18,1.2,1.2,0,0,0-1.1,1A1,1,0,0,1,96.41,601.28Z"/><path class="cls-5" d="M119.09,599.81a1.49,1.49,0,0,0-.61-1,1.46,1.46,0,0,0-1.14-.25.93.93,0,0,0-.42.18.9.9,0,0,0-.11,1.14,1.69,1.69,0,0,0,1,.65,1.06,1.06,0,0,0,.84-.06A1.4,1.4,0,0,0,119.09,599.81Z"/><path class="cls-33" d="M117.05,599.26a1.05,1.05,0,0,1,.42-.18,1.45,1.45,0,0,1,1.14.25,1.49,1.49,0,0,1,.46.54l0-.06a1.49,1.49,0,0,0-.61-1,1.46,1.46,0,0,0-1.14-.25.93.93,0,0,0-.42.18.89.89,0,0,0-.13,1.1A.79.79,0,0,1,117.05,599.26Z"/><path class="cls-5" d="M95.48,591.05a1.48,1.48,0,0,0,.65-1,1.55,1.55,0,0,0-.26-1.14,1,1,0,0,0-.34-.29.88.88,0,0,0-1.08.38,1.71,1.71,0,0,0-.15,1.22,1.15,1.15,0,0,0,.41.74A1.49,1.49,0,0,0,95.48,591.05Z"/><path class="cls-33" d="M95.11,589a.87.87,0,0,1,.34.29,1.46,1.46,0,0,1,.26,1.14,1.53,1.53,0,0,1-.29.65h.06a1.48,1.48,0,0,0,.65-1,1.55,1.55,0,0,0-.26-1.14,1,1,0,0,0-.34-.29.87.87,0,0,0-1.06.35A.75.75,0,0,1,95.11,589Z"/><path class="cls-5" d="M89.28,588.72a1.48,1.48,0,0,0-1.8,1.17,1,1,0,0,0,0,.45.9.9,0,0,0,1,.53,1.68,1.68,0,0,0,1-.73,1.09,1.09,0,0,0,.26-.8C89.71,589.05,89.28,588.72,89.28,588.72Z"/><path class="cls-33" d="M88,590.41a1,1,0,0,1,0-.45,1.44,1.44,0,0,1,1.32-1.19l0,0a1.48,1.48,0,0,0-1.8,1.17,1,1,0,0,0,0,.45.88.88,0,0,0,1,.53A.72.72,0,0,1,88,590.41Z"/><path class="cls-5" d="M81.66,598.5a1.48,1.48,0,0,0-1.8,1.17,1,1,0,0,0,0,.45.88.88,0,0,0,1,.52,1.7,1.7,0,0,0,1-.72,1.12,1.12,0,0,0,.26-.81C82.08,598.83,81.66,598.5,81.66,598.5Z"/><path class="cls-33" d="M80.4,600.19a1,1,0,0,1,0-.45,1.48,1.48,0,0,1,.65-1,1.45,1.45,0,0,1,.67-.23l0,0a1.48,1.48,0,0,0-1.8,1.17,1,1,0,0,0,0,.45.88.88,0,0,0,1,.53A.78.78,0,0,1,80.4,600.19Z"/><path class="cls-30" d="M73.26,587c.93-1.4,1.94-3,3.45-3.58a7.76,7.76,0,0,0-3.28,1A15.5,15.5,0,0,0,70,586.87c-1.86,1.79-3.24,4-5.09,5.83a28.88,28.88,0,0,1-8.22,5.18,11.47,11.47,0,0,1-4.83,1.42c-.55,0-1.11-.08-1.65-.1a1.87,1.87,0,0,0,.08.34c.45,1.25,1.85,1.18,3,1A31.68,31.68,0,0,0,73.26,587Z"/><path class="cls-37" d="M99.57,493.1c-18,4-37.84,15.94-41.87,31.44-1.36,5.21,6,5.77,8.21,5.09C78,526,88,523.35,99,517.37c6.22-3.35,12.51-7.3,16-13.44a9.23,9.23,0,0,0,1.42-4.41c0-3.49-3.17-6.33-6.56-7.13S103,492.35,99.57,493.1Z"/><g class="cls-2"><path class="cls-4" d="M114.93,500.09c-3.51,6.13-9.8,10.09-16,13.44-11.08,6-21.1,8.58-33.13,12.26-1.68.51-6.29.31-7.85-2.06-.08.27-.17.54-.24.81-1.36,5.21,6,5.77,8.21,5.09C78,526,88,523.35,99,517.37c6.22-3.35,12.51-7.31,16-13.44a9.23,9.23,0,0,0,1.42-4.41,5.87,5.87,0,0,0-.39-2.09A11.86,11.86,0,0,1,114.93,500.09Z"/></g><path class="cls-38" d="M68.6,518.19c-6.8-13.84-10.77-28.54-25.07-43.83a1.21,1.21,0,0,1,.88-2c24.26-.14,48.86,9.43,60.21,26.27.8,1.18.22,2.5-.72,3.56-3.16,3.6-17.3,12.38-27.09,15.47L72,519.15A2.37,2.37,0,0,1,68.6,518.19Z"/><path class="cls-5" d="M72,587.19a2,2,0,0,0-1.54.37,2,2,0,0,0-.79,1.38,1.16,1.16,0,0,0,.06.61,1.2,1.2,0,0,0,1.43.61,2.22,2.22,0,0,0,1.27-1.07,1.51,1.51,0,0,0,.28-1.12C72.59,587.59,72,587.19,72,587.19Z"/><path class="cls-33" d="M70.44,589.59a1.14,1.14,0,0,1-.06-.61,2,2,0,0,1,.79-1.38,2,2,0,0,1,.89-.36l-.08,0a2,2,0,0,0-1.54.37,2,2,0,0,0-.79,1.38,1.16,1.16,0,0,0,.06.61,1.19,1.19,0,0,0,1.37.62A1,1,0,0,1,70.44,589.59Z"/><g class="cls-2"><path class="cls-4" d="M78.78,513.68,74,515.21a2.37,2.37,0,0,1-3.43-1C64.05,501,60.13,487,47.24,472.35c-.94,0-1.88,0-2.83,0a1.21,1.21,0,0,0-.88,2c14.3,15.29,18.27,30,25.07,43.83a2.37,2.37,0,0,0,3.43,1l4.78-1.53c9.79-3.09,23.93-11.87,27.09-15.47a3.18,3.18,0,0,0,1-3C100.46,503.19,87.78,510.84,78.78,513.68Z"/></g><g class="cls-39"><path class="cls-3" d="M62.75,474.06a30.78,30.78,0,0,1,7.79,10.1c3,6,4.61,12.49,7,18.73a2.59,2.59,0,0,0,.74,1.19,2.35,2.35,0,0,0,1.28.35C87.64,505,94.62,499,100.16,493,91.19,483.52,77.59,477,62.75,474.06Z"/></g><path class="cls-40" d="M71.18,550a6,6,0,0,0-6-6,5.85,5.85,0,0,0-2.7.65,68.64,68.64,0,0,1-.4,10.43,6,6,0,0,0,9.09-5.1Z"/><circle class="cls-40" cx="71.73" cy="558.67" r="2.67"/><circle class="cls-40" cx="63.63" cy="564.06" r="3.52"/><path class="cls-41" d="M150.06,559.06a1,1,0,0,1-1-1V522.8a1,1,0,0,1,2,0v35.26A1,1,0,0,1,150.06,559.06Z"/><path class="cls-5" d="M66.5,593.81a1.56,1.56,0,0,0-1.15-.26,1.54,1.54,0,0,0-1,.66.93.93,0,0,0-.15.42.88.88,0,0,0,.74.87,1.71,1.71,0,0,0,1.19-.29,1.15,1.15,0,0,0,.54-.65A1.48,1.48,0,0,0,66.5,593.81Z"/><path class="cls-33" d="M64.69,594.9a1,1,0,0,1,.16-.42,1.44,1.44,0,0,1,1.68-.61.28.28,0,0,1,0-.06,1.56,1.56,0,0,0-1.15-.26,1.54,1.54,0,0,0-1,.66.93.93,0,0,0-.15.42.87.87,0,0,0,.7.86A.75.75,0,0,1,64.69,594.9Z"/><path class="cls-5" d="M57.33,598.49a1.48,1.48,0,0,0-1.14-.26,1.52,1.52,0,0,0-1,.65,1.08,1.08,0,0,0-.16.42.91.91,0,0,0,.75.88,1.66,1.66,0,0,0,1.19-.3,1.1,1.1,0,0,0,.54-.64A1.42,1.42,0,0,0,57.33,598.49Z"/><path class="cls-33" d="M55.53,599.57a.94.94,0,0,1,.16-.42,1.46,1.46,0,0,1,1-.65,1.43,1.43,0,0,1,.71,0l0-.06a1.48,1.48,0,0,0-1.14-.26,1.52,1.52,0,0,0-1,.65,1.08,1.08,0,0,0-.16.42.87.87,0,0,0,.71.86A.74.74,0,0,1,55.53,599.57Z"/><path class="cls-41" d="M150.06,559.06a1,1,0,0,1-1-1V522.8a1,1,0,0,1,2,0v35.26A1,1,0,0,1,150.06,559.06Z"/><path class="cls-38" d="M151.06,558.06V522.8a1,1,0,0,0-1-1v37.26A1,1,0,0,0,151.06,558.06Z"/><path class="cls-41" d="M155.13,515.66a.48.48,0,0,0-.67-.68c-3.51,2.5-5.3,2.5-8.8,0a.49.49,0,0,0-.68.68c2.51,3.5,2.51,5.29,0,8.79a.49.49,0,0,0,.68.68c3.5-2.51,5.29-2.51,8.8,0a.48.48,0,0,0,.67-.68C152.63,521,152.63,519.16,155.13,515.66Zm-5.07,5.39a1,1,0,1,1,1-1A1,1,0,0,1,150.06,521.05Z"/><path class="cls-30" d="M63.25,578.74l-.7,1A3.44,3.44,0,0,0,63.25,578.74Z"/><path class="cls-30" d="M63.25,578.74c-.46-.56-3.63-.52-4.34-.36-6.75,1.55-7.86,2.31-13.71,6-1.92,1.22-5.69,2.49-7.1,4.27a56.75,56.75,0,0,0,17.62-7.54C58,579.63,60.65,577.9,63.25,578.74Z"/><path class="cls-5" d="M44.45,586.56a1.13,1.13,0,0,0-1.6-.32.64.64,0,0,0-.23.26.67.67,0,0,0,.27.82,1.28,1.28,0,0,0,.92.13.84.84,0,0,0,.57-.3A1.16,1.16,0,0,0,44.45,586.56Z"/><path class="cls-33" d="M42.87,586.82a.72.72,0,0,1,.23-.26,1.16,1.16,0,0,1,.87-.18,1.07,1.07,0,0,1,.48.23v-.05a1.13,1.13,0,0,0-1.6-.32.64.64,0,0,0-.23.26.66.66,0,0,0,.25.8A.54.54,0,0,1,42.87,586.82Z"/><path class="cls-5" d="M51.18,583.22a2,2,0,0,0-1.53-.42,2,2,0,0,0-1.36.82,1.11,1.11,0,0,0,.71,1.8,2.3,2.3,0,0,0,1.63-.32,1.51,1.51,0,0,0,.78-.85A2,2,0,0,0,51.18,583.22Z"/><path class="cls-33" d="M48.66,584.58a1.33,1.33,0,0,1,.24-.56,2,2,0,0,1,1.36-.83,2.09,2.09,0,0,1,1,.12l0-.09a2,2,0,0,0-1.53-.42,2,2,0,0,0-1.36.82,1.1,1.1,0,0,0,.65,1.78A1,1,0,0,1,48.66,584.58Z"/><path class="cls-5" d="M55.41,580.59a1.49,1.49,0,0,0-1.14-.26,1.52,1.52,0,0,0-1,.65,1.06,1.06,0,0,0-.16.43.89.89,0,0,0,.74.87,1.65,1.65,0,0,0,1.19-.3,1.08,1.08,0,0,0,.55-.64A1.42,1.42,0,0,0,55.41,580.59Z"/><path class="cls-33" d="M53.61,581.67a.84.84,0,0,1,.16-.42,1.44,1.44,0,0,1,1-.65,1.39,1.39,0,0,1,.7,0,.14.14,0,0,0,0-.06,1.49,1.49,0,0,0-1.14-.26,1.52,1.52,0,0,0-1,.65,1.06,1.06,0,0,0-.16.43.89.89,0,0,0,.7.86A.78.78,0,0,1,53.61,581.67Z"/><rect class="cls-42" width="176.48" height="610.24"/></g></g></svg>