<svg xmlns="http://www.w3.org/2000/svg" width="1920" height="1080" viewBox="0 0 1920 1080" alt="An octopus wizard launching his project in space"><defs><style>.summarySplash-cls-0{fill:#7f98cd;}.summarySplash-cls-2{fill:#99b2dc;}.summarySplash-cls-3{fill:#637fbe;}.summarySplash-cls-4{fill:#f3a34d;}.summarySplash-cls-21,.summarySplash-cls-27,.summarySplash-cls-5{fill:#f05959;}.summarySplash-cls-43,.summarySplash-cls-6{fill:#f4ca60;}.summarySplash-cls-7{fill:#ef4f3e;}.summarySplash-cls-42,.summarySplash-cls-8{fill:#616eb3;}.summarySplash-cls-9{fill:#3b4c9f;}.summarySplash-cls-24,.summarySplash-cls-9{opacity:0.6;}.summarySplash-cls-10{fill:#3e4a69;}.summarySplash-cls-11,.summarySplash-cls-23{fill:#2b313d;}.summarySplash-cls-11,.summarySplash-cls-27,.summarySplash-cls-34{opacity:0.3;}.summarySplash-cls-12{fill:#f7c34f;}.summarySplash-cls-13{fill:#fad58a;}.summarySplash-cls-14{fill:#edaf3f;}.summarySplash-cls-15,.summarySplash-cls-26{fill:#efa02e;}.summarySplash-cls-16{fill:#fcc35f;}.summarySplash-cls-17{fill:#37435e;}.summarySplash-cls-18{fill:#ffda9b;}.summarySplash-cls-19{fill:#d7a84d;}.summarySplash-cls-20{fill:#e9ba56;}.summarySplash-cls-21,.summarySplash-cls-26,.summarySplash-cls-39{opacity:0.5;}.summarySplash-cls-22,.summarySplash-cls-24{fill:#fff7dc;}.summarySplash-cls-22,.summarySplash-cls-23,.summarySplash-cls-25{opacity:0.2;}.summarySplash-cls-25{fill:#fff;}.summarySplash-cls-28{fill:#272020;}.summarySplash-cls-29{fill:#f9bfad;}.summarySplash-cls-30{fill:#232323;}.summarySplash-cls-31{fill:#ee4343;}.summarySplash-cls-32{fill:#f48553;}.summarySplash-cls-33{fill:#f27576;}.summarySplash-cls-35{fill:#f06061;}.summarySplash-cls-36{fill:#7990c9;}.summarySplash-cls-37{opacity:0.9;}.summarySplash-cls-38{fill:#6a80bf;}.summarySplash-cls-40{fill:#da4545;opacity:0.7;}.summarySplash-cls-41{fill:#4e69b1;}.summarySplash-cls-42,.summarySplash-cls-43{opacity:0;}</style></defs><title>An octopus wizard launching his project in space</title><g id="Layer_2" data-name="Layer 2"><g id="Layer_1-2" data-name="Layer 1"><path class="summarySplash-cls-0" d="M653.562,1080H0v-34.566C208.6,950.4,453.853,961.918,653.562,1080Z"/><path class="summarySplash-cls-2" d="M543.252,1057.936c-15.351-3.438-31.274-2.934-46.937-4.4a186.971,186.971,0,0,1-41.935-8.86c-11.043-3.7-21.711-8.421-32.361-13.135L310.256,982.067A706.648,706.648,0,0,1,653.562,1080H578.787C571.085,1068.173,557.2,1061.06,543.252,1057.936Z"/><path class="summarySplash-cls-3" d="M59.348,1080a17.035,17.035,0,0,1,1.631-3.845c9.847-17.339,31.3-24.882,51.232-25.415s39.6,4.464,59.5,5.614c53.485,3.088,105.758-21.6,159.214-18.032A153.886,153.886,0,0,1,425.673,1080Z"/><circle class="summarySplash-cls-4" cx="689.425" cy="505.979" r="3.22"/><circle class="summarySplash-cls-4" cx="934.062" cy="597.785" r="3.22"/><circle class="summarySplash-cls-4" cx="387.286" cy="787.023" r="3.067"/><circle class="summarySplash-cls-4" cx="491.245" cy="562.351" r="7.155"/><circle class="summarySplash-cls-4" cx="862.213" cy="310.627" r="7.513"/><circle class="summarySplash-cls-5" cx="327.439" cy="739.691" r="7.155"/><circle class="summarySplash-cls-6" cx="293.477" cy="649.16" r="3.067"/><circle class="summarySplash-cls-6" cx="860.023" cy="942.87" r="3.22"/><circle class="summarySplash-cls-5" cx="668.443" cy="891.831" r="3.22"/><circle class="summarySplash-cls-5" cx="1021.363" cy="503.789" r="3.22"/><circle class="summarySplash-cls-5" cx="580.576" cy="767.85" r="3.22"/><circle class="summarySplash-cls-7" cx="905.991" cy="726.64" r="7.513"/><circle class="summarySplash-cls-6" cx="132.177" cy="716.667" r="5.111"/><circle class="summarySplash-cls-6" cx="839.028" cy="646.827" r="11.759"/><circle class="summarySplash-cls-5" cx="983.063" cy="1015.315" r="11.759"/><circle class="summarySplash-cls-6" cx="40.744" cy="906.034" r="11.759"/><circle class="summarySplash-cls-8" cx="245.893" cy="728.164" r="11.199"/><circle class="summarySplash-cls-8" cx="1043.913" cy="355.065" r="11.759"/><circle class="summarySplash-cls-8" cx="801.795" cy="1022.684" r="7.513"/><circle class="summarySplash-cls-8" cx="201.179" cy="642.207" r="7.155"/><circle class="summarySplash-cls-8" cx="609.895" cy="544.403" r="3.22"/><circle class="summarySplash-cls-8" cx="114.157" cy="624.105" r="3.22"/><circle class="summarySplash-cls-8" cx="860.023" cy="842.272" r="3.22"/><circle class="summarySplash-cls-8" cx="539.005" cy="835.902" r="3.22"/><circle class="summarySplash-cls-9" cx="681.697" cy="827.866" r="12.353"/><circle class="summarySplash-cls-6" cx="681.697" cy="827.866" r="3.374"/><circle class="summarySplash-cls-9" cx="474.3" cy="783.809" r="11.766"/><circle class="summarySplash-cls-8" cx="474.3" cy="783.809" r="3.213"/><circle class="summarySplash-cls-8" cx="203.124" cy="812.361" r="3.213"/><circle class="summarySplash-cls-8" cx="642.683" cy="753.058" r="3.374"/><circle class="summarySplash-cls-8" cx="947.337" cy="898.028" r="3.374"/><circle class="summarySplash-cls-9" cx="817.941" cy="415.273" r="9.992"/><circle class="summarySplash-cls-5" cx="817.941" cy="415.273" r="3.374"/><circle class="summarySplash-cls-9" cx="471.086" cy="664.668" r="15.627"/><circle class="summarySplash-cls-5" cx="471.086" cy="664.668" r="5.276"/><circle class="summarySplash-cls-5" cx="950.711" cy="448.267" r="5.54"/><circle class="summarySplash-cls-9" cx="311.39" cy="841.403" r="15.041"/><circle class="summarySplash-cls-6" cx="311.39" cy="841.403" r="5.933"/><circle class="summarySplash-cls-6" cx="573.053" cy="618.773" r="5.332"/><circle class="summarySplash-cls-6" cx="770.504" cy="805.911" r="5.332"/><circle class="summarySplash-cls-6" cx="926.539" cy="815.513" r="5.332"/><circle class="summarySplash-cls-6" cx="926.539" cy="364.555" r="5.332"/><circle class="summarySplash-cls-6" cx="753.334" cy="560.238" r="3.651"/><path class="summarySplash-cls-10" d="M698.892,644.986H748a0,0,0,0,1,0,0v53.581a7.486,7.486,0,0,1-7.486,7.486H706.377a7.486,7.486,0,0,1-7.486-7.486V644.986A0,0,0,0,1,698.892,644.986Z" transform="translate(689.557 -313.699) rotate(45)"/><path class="summarySplash-cls-11" d="M757.219,666.111l-38.078,38.078a7.217,7.217,0,0,1-10.206,0l5.18,5.18a7.215,7.215,0,0,0,10.206,0L762.4,671.292Z"/><path class="summarySplash-cls-12" d="M650.476,597.407l52.431,52.431,99.033-99.032L672.987,580.421a27.11,27.11,0,0,0-12.861,7.336Z"/><path class="summarySplash-cls-13" d="M679.269,586.7l112.643-25.869,10.028-10.028L672.987,580.421a27.114,27.114,0,0,0-12.861,7.336l-9.65,9.65,6.282,6.282,9.65-9.65A27.114,27.114,0,0,1,679.269,586.7Z"/><path class="summarySplash-cls-14" d="M800.858,747.789l-52.431-52.431,99.032-99.032L817.844,725.278a27.11,27.11,0,0,1-7.336,12.861Z"/><path class="summarySplash-cls-15" d="M810.508,738.139a27.11,27.11,0,0,0,7.336-12.861L831.75,664.73l-4.15-10.825-36.172,36.172a8.738,8.738,0,0,0-2.43,4.681l-6.1,35.069,17.961,17.962Z"/><path class="summarySplash-cls-10" d="M816.271,536.968,667.949,570.276a31.19,31.19,0,0,0-14.958,8.483l-16.032,16.033c-2.9,2.9-3.443,7.054-1.215,9.281s6.382,1.683,9.281-1.215l14.236-14.236a31.229,31.229,0,0,1,14.816-8.451l128.689-29.7Z"/><path class="summarySplash-cls-16" d="M818.01,725.444l29.615-128.953-8.878,8.879L809.131,734.322a27.109,27.109,0,0,1-7.336,12.862l8.879-8.879A27.118,27.118,0,0,0,818.01,725.444Z"/><polygon class="summarySplash-cls-14" points="702.907 649.838 780.743 572.002 779.595 570.953 709.324 619.762 691.078 638.009 702.907 649.838"/><path class="summarySplash-cls-17" d="M861.463,582.16,828.155,730.482a31.2,31.2,0,0,1-8.483,14.958l-16.033,16.032c-2.9,2.9-7.054,3.443-9.281,1.215s-1.683-6.383,1.215-9.281l14.236-14.236a31.229,31.229,0,0,0,8.451-14.816l29.7-128.689Z"/><path class="summarySplash-cls-12" d="M912.131,477.388l-35.123,13.39c-15.321,5.84-56.662,39.424-68.556,51.318L702.763,647.785c-5.953,5.953-6.568,14.989-1.375,20.183l29.075,29.075c5.194,5.193,14.23,4.578,20.183-1.375L855.331,590.982c12.446-12.446,46.437-54.886,52.222-71l12.514-34.85C921.967,479.844,917.4,475.382,912.131,477.388Z"/><path class="summarySplash-cls-10" d="M878.31,490.281a141.585,141.585,0,0,1,29.465,29.087l12.292-34.234c1.9-5.29-2.672-9.752-7.936-7.745Z"/><path class="summarySplash-cls-18" d="M834.284,520.132c-4.159,3.319-8.193,6.629-11.908,9.758a52.973,52.973,0,0,1,46.134,45.928c3.139-3.777,6.433-7.852,9.726-12.045a52.994,52.994,0,0,0-43.952-43.641Z"/><path class="summarySplash-cls-10" d="M863.434,535a52.945,52.945,0,0,1,10.657,15.253,2.069,2.069,0,0,0,3.8-.151l3.534-9.194a7.64,7.64,0,0,0-1.729-8.143l-14.03-14.029A7.639,7.639,0,0,0,857.526,517l-9.195,3.533a2.069,2.069,0,0,0-.15,3.8A52.959,52.959,0,0,1,863.434,535Z"/><rect class="summarySplash-cls-19" x="804.027" y="556.541" width="3.672" height="3.672" rx="0.56" transform="translate(630.865 -406.287) rotate(45)"/><rect class="summarySplash-cls-19" x="810.283" y="562.796" width="3.672" height="3.672" rx="0.56" transform="translate(637.119 -408.878) rotate(45)"/><rect class="summarySplash-cls-19" x="831.037" y="583.551" width="3.672" height="3.672" rx="0.56" transform="translate(657.874 -417.475) rotate(45)"/><rect class="summarySplash-cls-19" x="837.293" y="589.806" width="3.672" height="3.672" rx="0.56" transform="translate(664.129 -420.066) rotate(45)"/><rect class="summarySplash-cls-19" x="751.713" y="608.855" width="3.672" height="3.672" rx="0.56" transform="translate(652.534 -353.973) rotate(45)"/><rect class="summarySplash-cls-19" x="757.969" y="615.11" width="3.672" height="3.672" rx="0.56" transform="translate(658.787 -356.564) rotate(45)"/><rect class="summarySplash-cls-19" x="778.723" y="635.865" width="3.672" height="3.672" rx="0.56" transform="translate(679.544 -365.161) rotate(45)"/><rect class="summarySplash-cls-19" x="784.979" y="642.12" width="3.672" height="3.672" rx="0.56" transform="translate(685.799 -367.752) rotate(45)"/><rect class="summarySplash-cls-19" x="783.307" y="577.262" width="3.672" height="3.672" rx="0.56" transform="translate(639.446 -385.566) rotate(45)"/><rect class="summarySplash-cls-19" x="789.562" y="583.517" width="3.672" height="3.672" rx="0.56" transform="translate(645.704 -388.157) rotate(45)"/><rect class="summarySplash-cls-19" x="810.316" y="604.271" width="3.672" height="3.672" rx="0.56" transform="translate(666.457 -396.754) rotate(45)"/><rect class="summarySplash-cls-19" x="816.572" y="610.527" width="3.672" height="3.672" rx="0.56" transform="translate(672.712 -399.345) rotate(45)"/><rect class="summarySplash-cls-19" x="774.492" y="586.076" width="3.672" height="3.672" rx="0.56" transform="translate(643.098 -376.751) rotate(45)"/><rect class="summarySplash-cls-19" x="780.748" y="592.332" width="3.672" height="3.672" rx="0.56" transform="translate(649.354 -379.343) rotate(45)"/><rect class="summarySplash-cls-19" x="801.502" y="613.086" width="3.672" height="3.672" rx="0.56" transform="translate(670.108 -387.939) rotate(45)"/><rect class="summarySplash-cls-19" x="807.757" y="619.341" width="3.672" height="3.672" rx="0.56" transform="translate(676.363 -390.53) rotate(45)"/><rect class="summarySplash-cls-20" x="782.792" y="579.312" width="67.716" height="4.938" transform="translate(650.573 -407.059) rotate(45)"/><rect class="summarySplash-cls-20" x="745.154" y="616.95" width="67.716" height="4.938" transform="translate(666.163 -369.421) rotate(45)"/><rect class="summarySplash-cls-10" x="707.69" y="653.421" width="67.716" height="6.924" transform="translate(681.68 -331.958) rotate(45)"/><rect class="summarySplash-cls-21" x="800.434" y="681.106" width="9.015" height="17.587" rx="1.374" transform="translate(723.594 -367.113) rotate(45)"/><path class="summarySplash-cls-22" d="M720.393,665.415,826.082,559.726c10.408-10.407,43.36-37.421,61.7-47.924l.079-.046a28.328,28.328,0,0,0,12.773-15.043l1.9-5.281a2.314,2.314,0,0,0-3-2.944l-17.962,6.848c-15.32,5.84-56.661,39.424-68.555,51.318L707.321,652.343c-5.953,5.953-6.568,14.989-1.375,20.182L719.018,685.6C713.824,680.4,714.44,671.368,720.393,665.415Z"/><path class="summarySplash-cls-23" d="M907.553,519.984l12.514-34.85c1.648-4.59-1.577-8.549-5.9-8.209a7.371,7.371,0,0,1-.415,1.9l-12.514,34.849c-5.786,16.113-39.776,58.553-52.223,71L744.334,689.356c-5.953,5.953-14.989,6.568-20.182,1.375l6.311,6.311c5.194,5.194,14.23,4.578,20.183-1.374L855.331,590.982C867.777,578.536,901.768,536.1,907.553,519.984Z"/><path class="summarySplash-cls-24" d="M707.321,652.343,813.01,546.654c11.894-11.894,53.235-45.478,68.556-51.318l35.123-13.39a6.827,6.827,0,0,1,3.7-.383c-.657-3.479-4.253-5.7-8.259-4.174l-35.123,13.389c-15.321,5.84-56.662,39.424-68.556,51.318L702.763,647.785c-5.953,5.953-6.568,14.989-1.375,20.183l4.558,4.558C700.753,667.332,701.368,658.3,707.321,652.343Z"/><rect class="summarySplash-cls-25" x="697.47" y="672.712" width="8.927" height="20.276" transform="translate(688.44 -296.34) rotate(45)"/><path class="summarySplash-cls-26" d="M827.6,653.905l-18.469,80.417a27.109,27.109,0,0,1-7.336,12.862l8.879-8.879a27.118,27.118,0,0,0,7.336-12.861l18.468-80.417Z"/><rect class="summarySplash-cls-27" x="683.151" y="598.871" width="18.273" height="18.273" rx="2.785" transform="translate(632.692 -311.44) rotate(45)"/><circle class="summarySplash-cls-5" cx="311.96" cy="970.553" r="2.882"/><path class="summarySplash-cls-28" d="M175.546,931.837c0,2.863-1.392,3.111-3.111,3.111s-3.111-.248-3.111-3.111,1.393-5.186,3.111-5.186S175.546,928.973,175.546,931.837Z"/><path class="summarySplash-cls-28" d="M200.435,931.837c0,2.863-1.393,3.111-3.111,3.111s-3.111-.248-3.111-3.111,1.393-5.186,3.111-5.186S200.435,928.973,200.435,931.837Z"/><ellipse class="summarySplash-cls-29" cx="156.88" cy="944.281" rx="6.222" ry="3.111"/><ellipse class="summarySplash-cls-29" cx="212.486" cy="944.281" rx="6.222" ry="3.111"/><path class="summarySplash-cls-30" d="M188.106,950.1a8.446,8.446,0,0,1-8.067-6.42,1.783,1.783,0,0,1,3.457-.874c.1.392,1.1,3.729,4.61,3.729a3.094,3.094,0,0,0,3.287-3.287,1.783,1.783,0,0,1,3.566,0A6.66,6.66,0,0,1,188.106,950.1Z"/><path class="summarySplash-cls-31" d="M166.307,876.8c-.668.1-1.337.222-2.006.371,0,0-47.632,3.393-53.807,55.9-1.835,15.6,2.732,42.134-2.277,57.024a58.423,58.423,0,0,1-11.969,19.889,59.8,59.8,0,0,0,21.626-23.035c10.926-20.872,8.562-46.2,16.022-68.543A79.386,79.386,0,0,1,166.307,876.8Z"/><path class="summarySplash-cls-29" d="M271.993,963.741c-5.942,7.282-12.444,14.2-20.111,19.637s-16.586,9.349-25.95,10.14c-1.453.122-3.456.884-3.016,2.274a2.4,2.4,0,0,0,.912,1.065c1.317,1.028,2.652,2.061,4.055,2.968,3.481-2.349,8.076-3.244,12.237-3.74,11.32-1.349,14.328-3.869,22.929-11.35,7.063-6.144,12.148-14.823,13.343-24.03a2.908,2.908,0,0,0-.276-1.688A56.608,56.608,0,0,0,271.993,963.741Z"/><path class="summarySplash-cls-29" d="M241.865,1029.185c-10.321-1.218-19.44-6.979-28.9-11.288a2.046,2.046,0,0,0-1.758-.215,1.81,1.81,0,0,0-.717.9,7.927,7.927,0,0,0-.71,3.516.3.3,0,0,1,.027-.023c16.761,7.625,36.241,15.287,52.9,7.434a4.789,4.789,0,0,0-.446-1.052C255.446,1028.76,248.632,1029.984,241.865,1029.185Z"/><path class="summarySplash-cls-4" d="M273.22,966.938a3.553,3.553,0,0,0-3.926,3.36,2.279,2.279,0,0,0,.177,1.069,2.136,2.136,0,0,0,2.594.927,4.051,4.051,0,0,0,2.127-2.038,2.653,2.653,0,0,0,.359-2C274.337,967.586,273.22,966.938,273.22,966.938Z"/><path class="summarySplash-cls-32" d="M270.764,971.367a2.279,2.279,0,0,1-.177-1.069,3.488,3.488,0,0,1,2.773-3.273c-.082-.053-.14-.087-.14-.087a3.553,3.553,0,0,0-3.926,3.36,2.266,2.266,0,0,0,.177,1.069,2.116,2.116,0,0,0,2.493.951A1.825,1.825,0,0,1,270.764,971.367Z"/><path class="summarySplash-cls-4" d="M253.512,1033.467a3.552,3.552,0,0,0-4.109-3.134,2.267,2.267,0,0,0-1.008.4,2.135,2.135,0,0,0-.362,2.73,4.048,4.048,0,0,0,2.438,1.653,2.654,2.654,0,0,0,2.036-.069A3.458,3.458,0,0,0,253.512,1033.467Z"/><path class="summarySplash-cls-32" d="M248.666,1031.994a2.278,2.278,0,0,1,1.009-.4,3.486,3.486,0,0,1,3.781,2.025c.034-.091.056-.155.056-.155a3.553,3.553,0,0,0-4.108-3.134,2.267,2.267,0,0,0-1.009.4,2.116,2.116,0,0,0-.407,2.637A1.827,1.827,0,0,1,248.666,1031.994Z"/><path class="summarySplash-cls-4" d="M219.46,1025.863a3.552,3.552,0,0,0-4.108-3.134,2.271,2.271,0,0,0-1.009.4,2.137,2.137,0,0,0-.362,2.731,4.05,4.05,0,0,0,2.438,1.652,2.654,2.654,0,0,0,2.036-.069A3.458,3.458,0,0,0,219.46,1025.863Z"/><path class="summarySplash-cls-32" d="M214.614,1024.39a2.283,2.283,0,0,1,1.009-.4,3.6,3.6,0,0,1,2.73.682,3.555,3.555,0,0,1,1.051,1.343c.035-.091.056-.155.056-.155a3.552,3.552,0,0,0-4.108-3.134,2.271,2.271,0,0,0-1.009.4,2.117,2.117,0,0,0-.407,2.637A1.827,1.827,0,0,1,214.614,1024.39Z"/><path class="summarySplash-cls-4" d="M235.3,1030.971a3.553,3.553,0,0,0-4.108-3.135,2.283,2.283,0,0,0-1.009.4,2.137,2.137,0,0,0-.362,2.731,4.05,4.05,0,0,0,2.438,1.652,2.653,2.653,0,0,0,2.036-.069C234.9,1032.2,235.3,1030.971,235.3,1030.971Z"/><path class="summarySplash-cls-32" d="M230.456,1029.5a2.276,2.276,0,0,1,1.009-.4,3.6,3.6,0,0,1,2.73.681,3.555,3.555,0,0,1,1.051,1.343c.035-.091.056-.154.056-.154a3.552,3.552,0,0,0-4.108-3.135,2.283,2.283,0,0,0-1.009.4,2.117,2.117,0,0,0-.407,2.637A1.825,1.825,0,0,1,230.456,1029.5Z"/><path class="summarySplash-cls-4" d="M244.048,991.177a3.553,3.553,0,0,0-3.926,3.36,2.27,2.27,0,0,0,.177,1.07,2.136,2.136,0,0,0,2.594.926,4.045,4.045,0,0,0,2.126-2.038,2.647,2.647,0,0,0,.359-2C245.165,991.826,244.048,991.177,244.048,991.177Z"/><path class="summarySplash-cls-32" d="M241.592,995.607a2.27,2.27,0,0,1-.177-1.07,3.489,3.489,0,0,1,2.772-3.273l-.139-.087a3.553,3.553,0,0,0-3.926,3.36,2.27,2.27,0,0,0,.177,1.07,2.117,2.117,0,0,0,2.493.951A1.826,1.826,0,0,1,241.592,995.607Z"/><path class="summarySplash-cls-4" d="M260.446,983.243a3.551,3.551,0,0,0-3.926,3.36,2.268,2.268,0,0,0,.177,1.069,2.136,2.136,0,0,0,2.594.927,4.049,4.049,0,0,0,2.126-2.038,2.653,2.653,0,0,0,.359-2C261.562,983.891,260.446,983.243,260.446,983.243Z"/><path class="summarySplash-cls-32" d="M257.99,987.672a2.268,2.268,0,0,1-.177-1.069,3.486,3.486,0,0,1,2.772-3.273c-.082-.053-.139-.087-.139-.087a3.551,3.551,0,0,0-3.926,3.36,2.28,2.28,0,0,0,.176,1.069,2.118,2.118,0,0,0,2.494.951A1.823,1.823,0,0,1,257.99,987.672Z"/><path class="summarySplash-cls-29" d="M213.264,1062.117a36.1,36.1,0,0,1-12.419-14.816c-.457-1.011-.867-2.042-1.3-3.061-1.93-4.5-4.635-9-9-11.221a12.834,12.834,0,0,0-6.972-1.333s-.255,1.716-.26.09c6.021-.235,9.106,6.87,11.4,12.442,2.446,5.935,5.921,11.6,10.956,15.582a23.379,23.379,0,0,0,11.564,4.928C215.938,1063.824,214.569,1063.01,213.264,1062.117Z"/><path class="summarySplash-cls-29" d="M162.07,1037.622c.712-1.789,1.645-3.866,3.193-4.758a5.836,5.836,0,0,0-3.207,1.247,22.289,22.289,0,0,0-6.212,5.677,39.835,39.835,0,0,0-2.6,5.111c-4.6,9.543-13.124,16.593-22.032,22.336.031.09.053.181.087.271A53.132,53.132,0,0,0,162.07,1037.622Z"/><path class="summarySplash-cls-29" d="M129.663,1038.805c1.63-2.492,3.43-5.365,6.1-6.333a13.476,13.476,0,0,0-5.809,1.8,27.229,27.229,0,0,0-6,4.366c-3.294,3.169-5.746,7.123-9.009,10.325-4.11,4.034-9.334,6.714-14.548,9.162-2.715,1.275-5.559,2.528-8.558,2.517-.973,0-1.953-.139-2.923-.174a3.2,3.2,0,0,0,.149.6c.8,2.206,3.273,2.089,5.236,1.692A56.033,56.033,0,0,0,129.663,1038.805Z"/><path class="summarySplash-cls-33" d="M110.493,933.068c-1.835,15.6,2.733,42.134-2.276,57.024-4.72,14.031-15.736,25.026-27.443,34.087-6.027,4.666-12.938,10.018-13.351,17.629a100.309,100.309,0,0,0,31.191-13.353c4.052-2.625,8.731-5.686,13.323-4.2l-22.356,33.42a3.807,3.807,0,0,0-.481,3.457c.828,2.137,3.268,2.017,5.211,1.625a56.033,56.033,0,0,0,35.352-23.951c1.879-2.871,3.981-6.253,7.391-6.638,5.668,10.968-10.052,23.763-5.758,35.339a53.131,53.131,0,0,0,30.774-29.884c.909-2.286,2.175-5.051,4.631-5.2,3.643-.219-1.011,23.171,6.452,38.772a2.011,2.011,0,0,0,3.252.55c3.872-4.046,6.921-13.878,7.529-18.258,1.309-9.427-.589-12.194-.622-21.711,6.021-.235,9.106,6.87,11.4,12.442,2.446,5.935,5.922,11.6,10.956,15.582s11.792,6.1,18.029,4.578a179.614,179.614,0,0,1-14.808-32.952c-1.061-3.185-1.762-7.331.919-9.351,16.761,7.625,36.241,15.287,52.9,7.434-.833-2.88-4.073-4.189-6.882-5.236-13.626-5.079-19.933-11.927-28.4-24.152,3.527-2.585,8.352-3.519,12.693-4.036,11.32-1.349,14.328-3.869,22.929-11.35,7.062-6.144,12.147-14.821,13.342-24.028a2.926,2.926,0,0,0-4.457-2.845,64.488,64.488,0,0,1-16.564,7.387c-7.577,2.162-16.95,2.4-22.026-3.63a22.952,22.952,0,0,1-3.683-7.271c-6.244-17.56-9.731-36.345-19.332-52.319s-27.835-28.9-46.028-24.859C164.3,877.17,116.669,880.563,110.493,933.068Z"/><g class="summarySplash-cls-34"><path class="summarySplash-cls-29" d="M161.62,882.205c18.193-4.044,36.427,8.886,46.028,24.86s13.088,34.758,19.332,52.319a22.952,22.952,0,0,0,3.683,7.271c5.075,6.026,14.449,5.791,22.026,3.63a64.5,64.5,0,0,0,16.563-7.387,2.927,2.927,0,0,1,4.458,2.845,35.558,35.558,0,0,1-2.782,9.786,36.981,36.981,0,0,0,5.463-14.822,2.927,2.927,0,0,0-4.457-2.846,64.441,64.441,0,0,1-16.564,7.388c-7.578,2.162-16.95,2.4-22.026-3.63a22.952,22.952,0,0,1-3.683-7.271c-6.243-17.56-9.731-36.345-19.331-52.319s-27.836-28.9-46.03-24.859c0,0-32.7,2.361-47.42,33.056C132.543,884.277,161.62,882.205,161.62,882.205Z"/><path class="summarySplash-cls-29" d="M108.671,1029.136l-19.09,28.538a4.078,4.078,0,0,0-.672,2.033l20.347-30.417C109.061,1029.227,108.867,1029.183,108.671,1029.136Z"/><path class="summarySplash-cls-29" d="M78.093,1029.215c10.266-7.946,20-17.379,25.422-29.042-5.637,9.387-14,17.237-22.741,24.006-5.107,3.953-10.833,8.406-12.718,14.3C70.71,1034.943,74.549,1031.958,78.093,1029.215Z"/></g><path class="summarySplash-cls-28" d="M179.661,942.981c.269,2.851-1.095,3.228-2.805,3.389s-3.121.046-3.39-2.8.9-5.293,2.611-5.454S179.393,940.13,179.661,942.981Z"/><path class="summarySplash-cls-28" d="M199.94,936.231c.435,2.831-.905,3.287-2.6,3.547s-3.113.227-3.547-2.6.591-5.337,2.289-5.6S199.506,933.4,199.94,936.231Z"/><ellipse class="summarySplash-cls-29" cx="159.515" cy="953.772" rx="6.222" ry="3.111" transform="translate(-147.983 36.945) rotate(-9.047)"/><ellipse class="summarySplash-cls-29" cx="210.577" cy="941.946" rx="3.915" ry="2.221" transform="matrix(0.988, -0.157, 0.157, 0.988, -145.488, 44.827)"/><path class="summarySplash-cls-30" d="M193.48,958.2a8.446,8.446,0,0,1-9.755-3.335,1.783,1.783,0,0,1,2.961-1.986c.23.335,2.286,3.144,5.6,1.962a3.093,3.093,0,0,0,1.99-4.2,1.783,1.783,0,1,1,3.359-1.2A6.661,6.661,0,0,1,193.48,958.2Z"/><path class="summarySplash-cls-35" d="M166.307,876.8c-.668.1-1.337.222-2.006.371,0,0-47.632,3.393-53.807,55.9-1.835,15.6,2.732,42.134-2.277,57.024a58.423,58.423,0,0,1-11.969,19.889,59.8,59.8,0,0,0,21.626-23.035c10.926-20.872,8.562-46.2,16.022-68.543A79.386,79.386,0,0,1,166.307,876.8Z"/><path class="summarySplash-cls-29" d="M271.993,963.741c-5.942,7.282-12.444,14.2-20.111,19.637s-16.586,9.349-25.95,10.14c-1.453.122-3.456.884-3.016,2.274a2.4,2.4,0,0,0,.912,1.065c1.317,1.028,2.652,2.061,4.055,2.968,3.481-2.349,8.076-3.244,12.237-3.74,11.32-1.349,14.328-3.869,22.929-11.35,7.063-6.144,12.148-14.823,13.343-24.03a2.908,2.908,0,0,0-.276-1.688A56.608,56.608,0,0,0,271.993,963.741Z"/><path class="summarySplash-cls-29" d="M241.865,1029.185c-10.321-1.218-19.44-6.979-28.9-11.288a2.046,2.046,0,0,0-1.758-.215,1.81,1.81,0,0,0-.717.9,7.927,7.927,0,0,0-.71,3.516.3.3,0,0,1,.027-.023c16.761,7.625,36.241,15.287,52.9,7.434a4.789,4.789,0,0,0-.446-1.052C255.446,1028.76,248.632,1029.984,241.865,1029.185Z"/><path class="summarySplash-cls-4" d="M273.22,966.938a3.553,3.553,0,0,0-3.926,3.36,2.279,2.279,0,0,0,.177,1.069,2.136,2.136,0,0,0,2.594.927,4.051,4.051,0,0,0,2.127-2.038,2.653,2.653,0,0,0,.359-2C274.337,967.586,273.22,966.938,273.22,966.938Z"/><path class="summarySplash-cls-32" d="M270.764,971.367a2.279,2.279,0,0,1-.177-1.069,3.488,3.488,0,0,1,2.773-3.273c-.082-.053-.14-.087-.14-.087a3.553,3.553,0,0,0-3.926,3.36,2.266,2.266,0,0,0,.177,1.069,2.116,2.116,0,0,0,2.493.951A1.825,1.825,0,0,1,270.764,971.367Z"/><path class="summarySplash-cls-4" d="M253.512,1033.467a3.552,3.552,0,0,0-4.109-3.134,2.267,2.267,0,0,0-1.008.4,2.135,2.135,0,0,0-.362,2.73,4.048,4.048,0,0,0,2.438,1.653,2.654,2.654,0,0,0,2.036-.069A3.458,3.458,0,0,0,253.512,1033.467Z"/><path class="summarySplash-cls-32" d="M248.666,1031.994a2.278,2.278,0,0,1,1.009-.4,3.486,3.486,0,0,1,3.781,2.025c.034-.091.056-.155.056-.155a3.553,3.553,0,0,0-4.108-3.134,2.267,2.267,0,0,0-1.009.4,2.116,2.116,0,0,0-.407,2.637A1.827,1.827,0,0,1,248.666,1031.994Z"/><path class="summarySplash-cls-4" d="M219.46,1025.863a3.552,3.552,0,0,0-4.108-3.134,2.271,2.271,0,0,0-1.009.4,2.137,2.137,0,0,0-.362,2.731,4.05,4.05,0,0,0,2.438,1.652,2.654,2.654,0,0,0,2.036-.069A3.458,3.458,0,0,0,219.46,1025.863Z"/><path class="summarySplash-cls-32" d="M214.614,1024.39a2.283,2.283,0,0,1,1.009-.4,3.6,3.6,0,0,1,2.73.682,3.555,3.555,0,0,1,1.051,1.343c.035-.091.056-.155.056-.155a3.552,3.552,0,0,0-4.108-3.134,2.271,2.271,0,0,0-1.009.4,2.117,2.117,0,0,0-.407,2.637A1.827,1.827,0,0,1,214.614,1024.39Z"/><path class="summarySplash-cls-4" d="M235.3,1030.971a3.553,3.553,0,0,0-4.108-3.135,2.283,2.283,0,0,0-1.009.4,2.137,2.137,0,0,0-.362,2.731,4.05,4.05,0,0,0,2.438,1.652,2.653,2.653,0,0,0,2.036-.069C234.9,1032.2,235.3,1030.971,235.3,1030.971Z"/><path class="summarySplash-cls-32" d="M230.456,1029.5a2.276,2.276,0,0,1,1.009-.4,3.6,3.6,0,0,1,2.73.681,3.555,3.555,0,0,1,1.051,1.343c.035-.091.056-.154.056-.154a3.552,3.552,0,0,0-4.108-3.135,2.283,2.283,0,0,0-1.009.4,2.117,2.117,0,0,0-.407,2.637A1.825,1.825,0,0,1,230.456,1029.5Z"/><path class="summarySplash-cls-4" d="M244.048,991.177a3.553,3.553,0,0,0-3.926,3.36,2.27,2.27,0,0,0,.177,1.07,2.136,2.136,0,0,0,2.594.926,4.045,4.045,0,0,0,2.126-2.038,2.647,2.647,0,0,0,.359-2C245.165,991.826,244.048,991.177,244.048,991.177Z"/><path class="summarySplash-cls-32" d="M241.592,995.607a2.27,2.27,0,0,1-.177-1.07,3.489,3.489,0,0,1,2.772-3.273l-.139-.087a3.553,3.553,0,0,0-3.926,3.36,2.27,2.27,0,0,0,.177,1.07,2.117,2.117,0,0,0,2.493.951A1.826,1.826,0,0,1,241.592,995.607Z"/><path class="summarySplash-cls-4" d="M260.446,983.243a3.551,3.551,0,0,0-3.926,3.36,2.268,2.268,0,0,0,.177,1.069,2.136,2.136,0,0,0,2.594.927,4.049,4.049,0,0,0,2.126-2.038,2.653,2.653,0,0,0,.359-2C261.562,983.891,260.446,983.243,260.446,983.243Z"/><path class="summarySplash-cls-32" d="M257.99,987.672a2.268,2.268,0,0,1-.177-1.069,3.486,3.486,0,0,1,2.772-3.273c-.082-.053-.139-.087-.139-.087a3.551,3.551,0,0,0-3.926,3.36,2.28,2.28,0,0,0,.176,1.069,2.118,2.118,0,0,0,2.494.951A1.823,1.823,0,0,1,257.99,987.672Z"/><path class="summarySplash-cls-29" d="M213.264,1062.117a36.1,36.1,0,0,1-12.419-14.816c-.457-1.011-.867-2.042-1.3-3.061-1.93-4.5-4.635-9-9-11.221a12.834,12.834,0,0,0-6.972-1.333s-.255,1.716-.26.09c6.021-.235,9.106,6.87,11.4,12.442,2.446,5.935,5.921,11.6,10.956,15.582a23.379,23.379,0,0,0,11.564,4.928C215.938,1063.824,214.569,1063.01,213.264,1062.117Z"/><path class="summarySplash-cls-29" d="M180.592,1062.51a8.1,8.1,0,0,1-2.613.255,4.314,4.314,0,0,1-2.731-2.191c-1.649-2.692-1.855-5.991-2.069-9.141-.392-5.743-1.078-11.8-4.532-16.4a5.042,5.042,0,0,0-.7-.779c1.159,5.779-.984,24.112,5.254,37.04a1.947,1.947,0,0,0,3.142.523c2.015-2.067,3.811-5.712,5.161-9.36A4.818,4.818,0,0,0,180.592,1062.51Z"/><path class="summarySplash-cls-29" d="M162.07,1037.622c.712-1.789,1.645-3.866,3.193-4.758a5.836,5.836,0,0,0-3.207,1.247,22.289,22.289,0,0,0-6.212,5.677,39.835,39.835,0,0,0-2.6,5.111c-4.6,9.543-13.124,16.593-22.032,22.336.031.09.053.181.087.271A53.132,53.132,0,0,0,162.07,1037.622Z"/><path class="summarySplash-cls-4" d="M192.959,1043.717a3.553,3.553,0,0,0,.381-5.154,2.288,2.288,0,0,0-.884-.628,2.138,2.138,0,0,0-2.485,1.189,4.052,4.052,0,0,0-.052,2.945,2.656,2.656,0,0,0,1.171,1.667A3.448,3.448,0,0,0,192.959,1043.717Z"/><path class="summarySplash-cls-32" d="M191.545,1038.853a2.28,2.28,0,0,1,.884.628,3.487,3.487,0,0,1,.37,4.273l.16-.037a3.553,3.553,0,0,0,.381-5.154,2.288,2.288,0,0,0-.884-.628,2.116,2.116,0,0,0-2.431,1.1A1.826,1.826,0,0,1,191.545,1038.853Z"/><path class="summarySplash-cls-4" d="M200.6,1054.352a3.553,3.553,0,0,0-1.769-4.855,2.269,2.269,0,0,0-1.064-.21,2.136,2.136,0,0,0-1.777,2.1,4.043,4.043,0,0,0,1.162,2.707,2.653,2.653,0,0,0,1.751,1.04A3.461,3.461,0,0,0,200.6,1054.352Z"/><path class="summarySplash-cls-32" d="M197.309,1050.5a2.267,2.267,0,0,1,1.063.21,3.6,3.6,0,0,1,1.932,2.046,3.558,3.558,0,0,1,.16,1.7c.078-.058.131-.1.131-.1a3.553,3.553,0,0,0-1.769-4.855,2.269,2.269,0,0,0-1.064-.21,2.118,2.118,0,0,0-1.765,2A1.825,1.825,0,0,1,197.309,1050.5Z"/><path class="summarySplash-cls-4" d="M170.313,1056.158a3.554,3.554,0,0,0,1.007-5.069,2.278,2.278,0,0,0-.8-.731,2.137,2.137,0,0,0-2.612.876,4.055,4.055,0,0,0-.411,2.917,2.653,2.653,0,0,0,.958,1.8A3.455,3.455,0,0,0,170.313,1056.158Z"/><path class="summarySplash-cls-32" d="M169.5,1051.158a2.277,2.277,0,0,1,.8.731,3.6,3.6,0,0,1,.589,2.751,3.549,3.549,0,0,1-.744,1.535c.1-.009.164-.017.164-.017a3.554,3.554,0,0,0,1.007-5.069,2.278,2.278,0,0,0-.8-.731,2.119,2.119,0,0,0-2.548.794A1.83,1.83,0,0,1,169.5,1051.158Z"/><path class="summarySplash-cls-4" d="M154.3,1050.582a3.552,3.552,0,0,0-4.135,3.1,2.277,2.277,0,0,0,.108,1.078,2.136,2.136,0,0,0,2.529,1.092,4.049,4.049,0,0,0,2.253-1.9,2.653,2.653,0,0,0,.488-1.978C155.375,1051.3,154.3,1050.582,154.3,1050.582Z"/><path class="summarySplash-cls-32" d="M151.566,1054.844a2.267,2.267,0,0,1-.107-1.079,3.487,3.487,0,0,1,2.977-3.087c-.078-.058-.133-.1-.133-.1a3.552,3.552,0,0,0-4.135,3.1,2.277,2.277,0,0,0,.108,1.078,2.116,2.116,0,0,0,2.426,1.11A1.827,1.827,0,0,1,151.566,1054.844Z"/><path class="summarySplash-cls-4" d="M173.5,1068.307a3.554,3.554,0,0,0-1.266-5.01,2.276,2.276,0,0,0-1.036-.317,2.138,2.138,0,0,0-1.983,1.913,4.049,4.049,0,0,0,.881,2.811,2.654,2.654,0,0,0,1.636,1.212A3.45,3.45,0,0,0,173.5,1068.307Z"/><path class="summarySplash-cls-32" d="M170.624,1064.139a2.272,2.272,0,0,1,1.037.317,3.488,3.488,0,0,1,1.7,3.938c.084-.05.14-.086.14-.086a3.552,3.552,0,0,0-1.266-5.011,2.276,2.276,0,0,0-1.036-.317,2.119,2.119,0,0,0-1.96,1.811A1.825,1.825,0,0,1,170.624,1064.139Z"/><path class="summarySplash-cls-4" d="M210.763,1061.532a2.615,2.615,0,0,0-3.1-2.2,1.671,1.671,0,0,0-.732.317,1.573,1.573,0,0,0-.2,2.017,2.982,2.982,0,0,0,1.835,1.154,1.949,1.949,0,0,0,1.495-.1A2.543,2.543,0,0,0,210.763,1061.532Z"/><path class="summarySplash-cls-32" d="M207.162,1060.57a1.671,1.671,0,0,1,.732-.317,2.569,2.569,0,0,1,2.832,1.394l.037-.115a2.613,2.613,0,0,0-3.1-2.2,1.671,1.671,0,0,0-.732.317,1.558,1.558,0,0,0-.233,1.949A1.342,1.342,0,0,1,207.162,1060.57Z"/><path class="summarySplash-cls-4" d="M168.988,1046.034a2.614,2.614,0,0,0,.674-3.742,1.675,1.675,0,0,0-.6-.527,1.572,1.572,0,0,0-1.909.68,2.974,2.974,0,0,0-.264,2.151,1.956,1.956,0,0,0,.729,1.31A2.538,2.538,0,0,0,168.988,1046.034Z"/><path class="summarySplash-cls-32" d="M168.326,1042.367a1.675,1.675,0,0,1,.6.527,2.649,2.649,0,0,1,.47,2.016,2.62,2.62,0,0,1-.527,1.14l.12-.015a2.615,2.615,0,0,0,.674-3.743,1.675,1.675,0,0,0-.6-.527,1.558,1.558,0,0,0-1.863.618A1.347,1.347,0,0,1,168.326,1042.367Z"/><path class="summarySplash-cls-4" d="M158.009,1041.918a2.614,2.614,0,0,0-3.188,2.073,1.665,1.665,0,0,0,.025.8,1.573,1.573,0,0,0,1.8.926,2.977,2.977,0,0,0,1.748-1.281,1.957,1.957,0,0,0,.456-1.429C158.761,1042.5,158.009,1041.918,158.009,1041.918Z"/><path class="summarySplash-cls-32" d="M155.79,1044.912a1.665,1.665,0,0,1-.026-.8,2.568,2.568,0,0,1,2.338-2.12l-.093-.077a2.614,2.614,0,0,0-3.188,2.073,1.665,1.665,0,0,0,.025.8,1.558,1.558,0,0,0,1.727.934A1.34,1.34,0,0,1,155.79,1044.912Z"/><path class="summarySplash-cls-4" d="M144.519,1059.221a2.614,2.614,0,0,0-3.188,2.073,1.665,1.665,0,0,0,.026.8,1.572,1.572,0,0,0,1.8.926,2.98,2.98,0,0,0,1.748-1.281,1.956,1.956,0,0,0,.455-1.429C145.271,1059.8,144.519,1059.221,144.519,1059.221Z"/><path class="summarySplash-cls-32" d="M142.3,1062.215a1.677,1.677,0,0,1-.026-.8,2.568,2.568,0,0,1,2.338-2.12c-.054-.046-.093-.077-.093-.077a2.614,2.614,0,0,0-3.188,2.073,1.665,1.665,0,0,0,.026.8,1.556,1.556,0,0,0,1.726.934A1.342,1.342,0,0,1,142.3,1062.215Z"/><path class="summarySplash-cls-29" d="M129.663,1038.805c1.63-2.492,3.43-5.365,6.1-6.333a13.476,13.476,0,0,0-5.809,1.8,27.229,27.229,0,0,0-6,4.366c-3.294,3.169-5.746,7.123-9.009,10.325-4.11,4.034-9.334,6.714-14.548,9.162-2.715,1.275-5.559,2.528-8.558,2.517-.973,0-1.953-.139-2.923-.174a3.2,3.2,0,0,0,.149.6c.8,2.206,3.273,2.089,5.236,1.692A56.033,56.033,0,0,0,129.663,1038.805Z"/><path class="summarySplash-cls-36" d="M176.212,872.683c-31.859,7.044-66.956,28.207-74.1,55.654-2.4,9.212,10.617,10.206,14.541,9.008,21.3-6.5,39.025-11.127,58.631-21.7,11-5.933,22.135-12.935,28.338-23.789a16.267,16.267,0,0,0,2.514-7.8c.041-6.175-5.6-11.206-11.61-12.621S182.241,871.35,176.212,872.683Z"/><g class="summarySplash-cls-37"><path class="summarySplash-cls-3" d="M203.4,885.053c-6.2,10.853-17.334,17.856-28.338,23.789-19.606,10.572-37.327,15.194-58.631,21.7-2.965.906-11.118.556-13.891-3.643-.143.479-.3.956-.423,1.439-2.4,9.212,10.617,10.206,14.541,9.008,21.3-6.5,39.025-11.127,58.631-21.7,11-5.933,22.135-12.935,28.338-23.789a16.277,16.277,0,0,0,2.514-7.8,10.266,10.266,0,0,0-.685-3.7A20.789,20.789,0,0,1,203.4,885.053Z"/></g><path class="summarySplash-cls-38" d="M121.4,917.092c-12.034-24.5-19.053-50.517-44.368-77.572a2.15,2.15,0,0,1,1.569-3.616c42.929-.237,86.455,16.7,106.557,46.506,1.405,2.084.384,4.414-1.276,6.3-5.6,6.362-30.616,21.9-47.945,27.373l-8.455,2.711A4.216,4.216,0,0,1,121.4,917.092Z"/><path class="summarySplash-cls-4" d="M127.4,1039.2a3.554,3.554,0,0,0-4.135,3.1,2.28,2.28,0,0,0,.108,1.079,2.135,2.135,0,0,0,2.529,1.091,4.047,4.047,0,0,0,2.254-1.9,2.652,2.652,0,0,0,.487-1.978C128.469,1039.917,127.4,1039.2,127.4,1039.2Z"/><path class="summarySplash-cls-32" d="M124.66,1043.46a2.264,2.264,0,0,1-.107-1.078,3.487,3.487,0,0,1,2.977-3.088c-.078-.058-.133-.1-.133-.1a3.554,3.554,0,0,0-4.135,3.1,2.28,2.28,0,0,0,.108,1.079,2.118,2.118,0,0,0,2.426,1.11A1.831,1.831,0,0,1,124.66,1043.46Z"/><g class="summarySplash-cls-37"><path class="summarySplash-cls-3" d="M139.423,909.113l-8.454,2.711a4.217,4.217,0,0,1-6.083-1.7c-11.526-23.468-18.464-48.329-41.275-74.159-1.668-.042-3.337-.068-5.006-.059a2.15,2.15,0,0,0-1.569,3.616c25.315,27.054,32.334,53.072,44.367,77.572a4.217,4.217,0,0,0,6.083,1.7l8.455-2.711c17.329-5.477,42.348-21.011,47.945-27.373,1.388-1.579,2.309-3.467,1.756-5.262C177.785,890.541,155.359,904.077,139.423,909.113Z"/></g><g class="summarySplash-cls-39"><path class="summarySplash-cls-2" d="M111.063,838.988a54.608,54.608,0,0,1,13.77,17.875c5.292,10.547,8.172,22.11,12.351,33.145a4.457,4.457,0,0,0,1.3,2.105,4.183,4.183,0,0,0,2.267.631c14.358.929,26.7-9.619,36.507-20.159C161.379,855.723,137.32,844.164,111.063,838.988Z"/></g><path class="summarySplash-cls-40" d="M125.966,973.436A10.573,10.573,0,0,0,110.592,964a121.641,121.641,0,0,1-.708,18.467,10.569,10.569,0,0,0,16.082-9.034Z"/><circle class="summarySplash-cls-40" cx="126.955" cy="988.739" r="4.718"/><circle class="summarySplash-cls-40" cx="112.621" cy="998.27" r="6.237"/><path class="summarySplash-cls-41" d="M265.574,989.426a1.771,1.771,0,0,1-1.77-1.77V925.25a1.77,1.77,0,1,1,3.54,0v62.406A1.771,1.771,0,0,1,265.574,989.426Z"/><path class="summarySplash-cls-4" d="M117.684,1050.924a2.614,2.614,0,0,0-3.737.7,1.681,1.681,0,0,0-.28.747,1.573,1.573,0,0,0,1.314,1.543,2.987,2.987,0,0,0,2.105-.519,1.957,1.957,0,0,0,.965-1.147A2.548,2.548,0,0,0,117.684,1050.924Z"/><path class="summarySplash-cls-32" d="M114.492,1052.847a1.662,1.662,0,0,1,.28-.747,2.644,2.644,0,0,1,1.717-1.156,2.609,2.609,0,0,1,1.252.087c-.033-.064-.057-.107-.057-.107a2.614,2.614,0,0,0-3.737.7,1.681,1.681,0,0,0-.28.747,1.557,1.557,0,0,0,1.241,1.521A1.34,1.34,0,0,1,114.492,1052.847Z"/><path class="summarySplash-cls-4" d="M101.47,1059.2a2.614,2.614,0,0,0-3.737.7,1.669,1.669,0,0,0-.28.747,1.57,1.57,0,0,0,1.314,1.542,2.978,2.978,0,0,0,2.1-.518,1.95,1.95,0,0,0,.965-1.147A2.541,2.541,0,0,0,101.47,1059.2Z"/><path class="summarySplash-cls-32" d="M98.278,1061.121a1.672,1.672,0,0,1,.279-.747,2.649,2.649,0,0,1,1.717-1.156,2.612,2.612,0,0,1,1.253.087c-.033-.064-.057-.107-.057-.107a2.614,2.614,0,0,0-3.737.7,1.669,1.669,0,0,0-.28.747,1.557,1.557,0,0,0,1.241,1.521A1.34,1.34,0,0,1,98.278,1061.121Z"/><path class="summarySplash-cls-41" d="M265.574,989.426a1.771,1.771,0,0,1-1.77-1.77V925.25a1.77,1.77,0,1,1,3.54,0v62.406A1.771,1.771,0,0,1,265.574,989.426Z"/><path class="summarySplash-cls-38" d="M267.344,987.656V925.25a1.771,1.771,0,0,0-1.77-1.77v65.946A1.771,1.771,0,0,0,267.344,987.656Z"/><path class="summarySplash-cls-41" d="M274.557,912.605a.859.859,0,0,0-1.2-1.2c-6.2,4.435-9.366,4.435-15.566,0a.86.86,0,0,0-1.2,1.2c4.435,6.2,4.435,9.365,0,15.566a.859.859,0,0,0,1.2,1.2c6.2-4.435,9.365-4.435,15.565,0a.86.86,0,0,0,1.2-1.2C270.122,921.97,270.122,918.806,274.557,912.605Zm-8.983,9.553a1.77,1.77,0,1,1,1.77-1.77A1.77,1.77,0,0,1,265.574,922.158Z"/><path class="summarySplash-cls-29" d="M111.937,1024.254l-1.238,1.852A6.19,6.19,0,0,0,111.937,1024.254Z"/><path class="summarySplash-cls-29" d="M111.937,1024.254c-.815-1-6.426-.926-7.682-.637-11.934,2.746-13.911,4.084-24.259,10.632-3.408,2.156-10.066,4.4-12.573,7.559a100.333,100.333,0,0,0,31.191-13.353C102.666,1025.83,107.345,1022.769,111.937,1024.254Z"/><path class="summarySplash-cls-4" d="M78.66,1038.094a1.982,1.982,0,0,0-2.827-.561,1.267,1.267,0,0,0-.408.447,1.191,1.191,0,0,0,.49,1.456,2.258,2.258,0,0,0,1.627.229,1.479,1.479,0,0,0,1-.535A1.919,1.919,0,0,0,78.66,1038.094Z"/><path class="summarySplash-cls-32" d="M75.871,1038.546a1.272,1.272,0,0,1,.408-.446,2.01,2.01,0,0,1,1.535-.33,1.989,1.989,0,0,1,.856.415c0-.054-.01-.091-.01-.091a1.982,1.982,0,0,0-2.827-.561,1.267,1.267,0,0,0-.408.447,1.181,1.181,0,0,0,.444,1.421A1.021,1.021,0,0,1,75.871,1038.546Z"/><path class="summarySplash-cls-4" d="M90.58,1032.184a3.553,3.553,0,0,0-5.118.711,2.267,2.267,0,0,0-.428,1,2.135,2.135,0,0,0,1.684,2.18,4.044,4.044,0,0,0,2.89-.568,2.65,2.65,0,0,0,1.384-1.494A3.451,3.451,0,0,0,90.58,1032.184Z"/><path class="summarySplash-cls-32" d="M86.122,1034.588a2.288,2.288,0,0,1,.428-1,3.6,3.6,0,0,1,2.406-1.458,3.551,3.551,0,0,1,1.695.2c-.041-.089-.071-.149-.071-.149a3.553,3.553,0,0,0-5.118.711,2.28,2.28,0,0,0-.429,1,2.117,2.117,0,0,0,1.586,2.146A1.827,1.827,0,0,1,86.122,1034.588Z"/><path class="summarySplash-cls-4" d="M98.067,1027.521a2.614,2.614,0,0,0-3.737.7,1.667,1.667,0,0,0-.279.747,1.572,1.572,0,0,0,1.314,1.543,2.984,2.984,0,0,0,2.1-.519,1.95,1.95,0,0,0,.965-1.147A2.539,2.539,0,0,0,98.067,1027.521Z"/><path class="summarySplash-cls-32" d="M94.875,1029.444a1.685,1.685,0,0,1,.28-.747,2.647,2.647,0,0,1,1.717-1.156,2.608,2.608,0,0,1,1.252.087c-.032-.064-.056-.107-.056-.107a2.615,2.615,0,0,0-3.738.7,1.667,1.667,0,0,0-.279.747,1.556,1.556,0,0,0,1.24,1.521A1.347,1.347,0,0,1,94.875,1029.444Z"/><rect class="summarySplash-cls-42" width="312.332" height="1080"/><rect class="summarySplash-cls-43" width="1920" height="58.484"/></g></g></svg>
