<svg id="Layer_1" data-name="Layer 1" xmlns="http://www.w3.org/2000/svg" viewBox="0 0 36 36"><defs><style>.cls-1{fill:#529e45;}</style></defs><title>Node</title><path class="cls-1" d="M18,36a2.91,2.91,0,0,1-1.39-.36L12.21,33c-.66-.36-.33-.49-.13-.56a8,8,0,0,0,2-.89.32.32,0,0,1,.34,0l3.37,2a.47.47,0,0,0,.4,0L31.36,26a.39.39,0,0,0,.2-.36V10.37a.39.39,0,0,0-.2-.37L18.17,2.4a.41.41,0,0,0-.4,0L4.57,10a.44.44,0,0,0-.2.37V25.62a.42.42,0,0,0,.2.36l3.61,2.08c2,1,3.17-.16,3.17-1.32v-15a.41.41,0,0,1,.4-.4h1.69a.41.41,0,0,1,.39.4V26.74c0,2.61-1.42,4.13-3.9,4.13a5.69,5.69,0,0,1-3-.82l-3.48-2A2.77,2.77,0,0,1,2,25.65V10.4A2.77,2.77,0,0,1,3.41,8L16.61.35a2.92,2.92,0,0,1,2.78,0L32.59,8A2.77,2.77,0,0,1,34,10.4V25.65a2.77,2.77,0,0,1-1.38,2.41L19.39,35.7A3.38,3.38,0,0,1,18,36Zm4.07-10.48c-5.79,0-7-2.65-7-4.9a.4.4,0,0,1,.4-.4h1.72a.35.35,0,0,1,.36.33c.26,1.76,1,2.62,4.53,2.62,2.78,0,4-.63,4-2.12,0-.86-.33-1.49-4.66-1.92-3.61-.36-5.86-1.15-5.86-4,0-2.68,2.25-4.27,6-4.27,4.24,0,6.32,1.46,6.58,4.63a.51.51,0,0,1-.1.3.36.36,0,0,1-.26.13H26.07a.37.37,0,0,1-.36-.3c-.4-1.82-1.43-2.41-4.14-2.41-3,0-3.4,1.06-3.4,1.85,0,1,.43,1.26,4.53,1.79s6,1.29,6,4.13-2.41,4.57-6.61,4.57Z"/></svg>
