<svg data-name="Layer 1" xmlns="http://www.w3.org/2000/svg" viewBox="0 0 36 36" alt="React logo" role="img" aria-hidden="true"><defs><style>.react-cls-1{fill:#70cff0;}</style></defs><title>React</title><path class="react-cls-1" d="M36,18c0-2.38-3-4.64-7.57-6C29.49,7.29,29,3.58,27,2.39A3.17,3.17,0,0,0,25.31,2V3.61a1.77,1.77,0,0,1,.84.19c1,.58,1.43,2.76,1.09,5.56a20.05,20.05,0,0,1-.38,2.16,33,33,0,0,0-4.66-.8,34.92,34.92,0,0,0-3.05-3.67c2.39-2.23,4.64-3.44,6.17-3.44V2h0C23.3,2,20.66,3.41,18,5.9,15.31,3.42,12.67,2,10.65,2V3.64c1.52,0,3.78,1.21,6.17,3.42a32.57,32.57,0,0,0-3,3.66,33.36,33.36,0,0,0-4.67.8c-.17-.73-.29-1.44-.38-2.12-.35-2.81.08-5,1.07-5.57a1.66,1.66,0,0,1,.84-.19V2h0A3.23,3.23,0,0,0,9,2.42C6.93,3.61,6.47,7.31,7.54,12,3,13.37,0,15.63,0,18s3,4.65,7.57,6.05C6.51,28.72,7,32.43,9.05,33.62A3.18,3.18,0,0,0,10.7,34c2,0,4.66-1.44,7.33-3.93,2.67,2.48,5.31,3.9,7.33,3.9A3.27,3.27,0,0,0,27,33.59c2.06-1.19,2.52-4.89,1.46-9.55C33,22.64,36,20.38,36,18Zm-9.55-4.89c-.28,1-.61,1.92-1,2.9-.31-.59-.62-1.18-1-1.76s-.69-1.16-1-1.72C24.48,12.68,25.48,12.87,26.45,13.11Zm-3.36,7.81c-.58,1-1.16,1.93-1.77,2.81-1.1.09-2.2.14-3.32.14s-2.22-.05-3.3-.14c-.61-.87-1.21-1.8-1.78-2.78S11.86,19,11.4,18c.45-1,1-2,1.51-2.93s1.16-1.93,1.77-2.81c1.1-.09,2.2-.14,3.32-.14s2.22,0,3.3.14c.61.87,1.21,1.8,1.78,2.79S24.14,17,24.6,18C24.14,19,23.64,20,23.09,20.92Zm2.37-1c.39,1,.73,2,1,2.92-1,.24-2,.43-3,.59.36-.57.72-1.15,1.06-1.74S25.15,20.56,25.46,20ZM18,27.8a30.77,30.77,0,0,1-2-2.35c.67,0,1.34.05,2,.05s1.37,0,2-.05A26.8,26.8,0,0,1,18,27.8Zm-5.45-4.32c-1.05-.16-2.05-.35-3-.58.27-.95.61-1.92,1-2.9.3.59.61,1.17,1,1.76S12.2,22.92,12.56,23.48ZM18,8.21a30.77,30.77,0,0,1,2,2.35c-.66,0-1.34-.06-2-.06s-1.37,0-2,.06A26.8,26.8,0,0,1,18,8.21Zm-5.43,4.32c-.36.56-.72,1.14-1.06,1.74s-.65,1.17-1,1.76a30.85,30.85,0,0,1-1-2.92C10.49,12.88,11.5,12.68,12.55,12.53ZM5.91,21.72C3.31,20.61,1.63,19.16,1.63,18s1.68-2.61,4.28-3.71c.63-.27,1.32-.51,2-.74A36.17,36.17,0,0,0,9.59,18,34.58,34.58,0,0,0,8,22.47C7.24,22.24,6.55,22,5.91,21.72ZM9.85,32.2c-1-.57-1.43-2.75-1.09-5.55a20.05,20.05,0,0,1,.38-2.16,36.1,36.1,0,0,0,4.66.8A34.92,34.92,0,0,0,16.85,29c-2.39,2.22-4.64,3.44-6.17,3.44A1.75,1.75,0,0,1,9.85,32.2Zm17.41-5.59c.35,2.8-.08,5-1.07,5.56a1.56,1.56,0,0,1-.84.19c-1.52,0-3.78-1.21-6.17-3.42a32.57,32.57,0,0,0,3-3.66,33.36,33.36,0,0,0,4.67-.8A20,20,0,0,1,27.26,26.61Zm2.83-4.89c-.64.27-1.33.51-2,.74A35.58,35.58,0,0,0,26.4,18,34.18,34.18,0,0,0,28,13.54c.73.23,1.42.48,2.06.75,2.6,1.11,4.28,2.56,4.28,3.71S32.68,20.62,30.09,21.72Z"/><circle class="react-cls-1" cx="17.99" cy="18" r="3.35"/></svg>
